<?xml version="1.0" standalone="no"?>
<!DOCTYPE svg PUBLIC "-//W3C//DTD SVG 1.1//EN" "http://www.w3.org/Graphics/SVG/1.1/DTD/svg11.dtd" >
<svg>
<metadata>
Created by FontForge 20090622 at Sat Jan 19 20:48:21 2013
 By ffonts
Brutal Dude &#194;&#169; Teabeer Studios. 2008. All Rights Reserved
</metadata>
<defs>
<font id="BrutalDude" horiz-adv-x="1139" >
  <font-face 
    font-family="Brutal Dude"
    font-weight="400"
    font-stretch="normal"
    units-per-em="2048"
    panose-1="2 0 0 0 0 0 0 0 0 0"
    ascent="1638"
    descent="-410"
    x-height="1388"
    cap-height="1908"
    bbox="-773 -352 1820 2001"
    underline-thickness="150"
    underline-position="-142"
    unicode-range="U+0020-U+F005"
  />
<missing-glyph horiz-adv-x="1536" 
d="M256 0v1280h1024v-1280h-1024zM288 32h960v1216h-960v-1216z" />
    <glyph glyph-name=".notdef" horiz-adv-x="1536" 
d="M256 0v1280h1024v-1280h-1024zM288 32h960v1216h-960v-1216z" />
    <glyph glyph-name=".null" horiz-adv-x="0" 
 />
    <glyph glyph-name="nonmarkingreturn" horiz-adv-x="569" 
 />
    <glyph glyph-name="space" unicode=" " horiz-adv-x="569" 
 />
    <glyph glyph-name="space" unicode="&#xa0;" horiz-adv-x="569" 
 />
    <glyph glyph-name="exclam" unicode="!" horiz-adv-x="569" 
d="M264 1940h12q32 0 32 -36v-12h4q132 0 132 -28v-20q-84 -393 -176 -920l-12 -148l8 -32q-12 -28 -36 -28h-4q-32 3 -32 28h-8q0 -26 -36 -32l12 -224q-8 -18 -16 -20h-20q-18 0 -24 104q-36 109 -36 360v48l36 412l-16 472q30 48 76 48l64 -12q11 40 40 40zM276 1792
q-28 -71 -36 -260l-24 -220v-8h4q64 337 64 404v76zM164 1768v-12l4 -52h4v44l-4 20h-4zM212 1296v-12h4v12h-4zM216 328q60 -10 124 -92v-28q0 -141 -252 -208q-88 36 -88 76v36q13 46 140 164q55 51 76 52z" />
    <glyph glyph-name="quotedbl" unicode="&#x22;" horiz-adv-x="727" 
d="M512 1994q20 0 44 -40q20 -10 20 -36l-8 -60v-44q0 -55 32 -352l-4 -124q0 -26 -36 -32h-12q0 -26 -36 -32q-68 0 -68 280l-20 272v28q0 23 40 48q0 92 48 92zM204 1902h12q44 0 44 -140q24 -315 80 -464q0 -26 -36 -32h-4q-33 0 -48 72q-33 0 -88 476v40q4 48 40 48z
" />
    <glyph glyph-name="numbersign" unicode="#" 
d="M780 1834q40 0 40 -80l4 -4q60 -18 60 -92l24 -84q194 68 248 68q32 -15 32 -40v-4q0 -35 -72 -44q-132 -26 -132 -56l-56 -24l52 -288q187 88 200 88q26 0 32 -36q0 -29 -80 -56q-1 -6 -80 -40v-4h4l140 36h4l16 -16v-4q0 -26 -88 -64l-124 -64v-44q0 -176 -68 -336
l12 -112q-12 -28 -36 -28q-41 0 -48 116q-32 214 -32 292h-4v-44l20 -352v-44q0 -28 -28 -28t-32 88l-28 356h-8q-227 -126 -296 -176v-4l32 -132l-4 -32l12 -56q0 -20 -8 -20l4 -12q-3 -32 -32 -32h-8q-23 0 -44 144q-21 79 -32 96q-124 -84 -140 -84q-11 0 -32 20l-24 -16
h-20q-32 0 -32 32q0 58 148 148l60 44q-20 55 -84 364l-224 -112q-32 15 -32 40q0 17 36 48q-40 0 -40 36t76 48q0 88 100 120q52 11 52 20q-40 223 -40 308q0 43 32 80q0 28 28 28h4q40 -8 40 -40h8q0 20 28 20q32 0 32 -92l-4 -88l20 -188h4l368 116q-16 184 -16 268
q24 48 56 48zM388 1238l48 -364l316 188l-12 260l4 76v8zM148 1262v-4h4l84 28v4h-4zM896 1210v-56l8 -8l4 4l-8 60h-4zM904 966l8 -140h4l12 160q-24 -8 -24 -20z" />
    <glyph glyph-name="dollar" unicode="$" 
d="M380 1468h4q50 0 84 -228l28 -116q50 34 160 80l20 -8l44 8l40 -12l64 20q40 0 40 -32v-12q0 -24 -120 -64q-136 -68 -228 -128q16 -108 28 -144q161 0 292 32h4q19 -13 72 -24q0 -17 48 -20q24 -13 24 -64q0 -74 -144 -212q-80 -68 -208 -156q20 -79 20 -184
q-8 -20 -24 -20q7 -65 32 -128v-4q0 -28 -40 -36l-16 -16h-20l-20 20v16q0 107 -56 280h-4q-186 -96 -216 -96h-88l-36 -4q-148 13 -148 36v24l16 16h16l20 -4v24q7 40 32 40q17 -5 24 -20v-4l-4 -28l4 -4h40l28 16l36 -4q127 51 232 132l16 12l-48 216q-199 -56 -276 -56
q-34 0 -48 48q-44 6 -44 20l-20 -4h-4q-36 5 -36 36v4q2 50 240 236l108 72l-56 248q11 108 36 108q8 88 52 88zM284 808v-4h4l104 16l-12 56zM868 748q-3 -23 -48 -76l4 -4v-4l-8 -32q77 75 84 116h-32zM564 700l32 -152q123 111 168 180z" />
    <glyph glyph-name="percent" unicode="%" horiz-adv-x="1821" 
d="M968 1904q29 0 40 -48q24 0 156 40q17 -5 24 -20v-24q0 -19 -88 -40v-24q0 -131 -368 -584q-130 -130 -384 -764q-37 -176 -60 -176h-12l-16 4q-105 -244 -176 -244q-28 8 -28 32v8q0 16 56 84l16 32h-24q-24 13 -24 44v8q-19 0 -24 44q0 69 188 356l196 400l68 128
q-36 -24 -52 -24h-20q-7 -96 -48 -96h-8q-30 0 -36 40l12 72h-4q-181 -76 -252 -96q-26 -68 -56 -68h-16q-28 15 -28 36q64 433 112 544h-4l-48 -4q-40 9 -40 40q0 79 164 92q174 24 380 80q0 55 52 68q36 -12 36 -40v-16q0 -45 -12 -64l4 -4v-16l-24 -116h8l28 8v-4
q-40 -57 -132 -304l-4 -28l28 -20q0 26 60 32l232 408q22 0 64 168q24 7 24 32q19 24 40 24zM984 1712l4 -4h4q28 56 28 76v4q-11 -9 -36 -76zM132 1188h4q225 132 260 132q68 237 68 292h-4q-134 -36 -236 -52zM968 1004q40 -7 40 -36l-8 -56l4 -4h4l28 4q56 -19 56 -48
q0 -23 -44 -52q-100 -359 -100 -496q29 0 36 -40q0 -31 -56 -48v-8q22 0 36 -24v-28q-6 -19 -52 -32q-15 -48 -56 -48h-8q-16 6 -24 20q-97 -41 -420 -96l-28 4q-6 -16 -28 -16h-4q-36 5 -36 36v12q84 385 192 660q35 132 76 132l24 4l12 -4q20 36 40 36t24 -40q22 0 240 72
q10 96 52 96zM512 216q26 0 200 92l100 16q0 210 60 424q-268 -60 -268 -120zM432 220l-8 -44h4l32 16q-24 18 -24 28h-4z" />
    <glyph glyph-name="ampersand" unicode="&#x26;" horiz-adv-x="1366" 
d="M712 1875q57 0 148 -48l12 4l16 -4l52 4q187 -56 252 -88q0 31 48 36q36 -15 36 -40l-8 -36l12 -20v-24q-10 -20 -32 -20l-24 4q-77 -106 -184 -360q-92 -195 -164 -276l-52 -92q165 -325 204 -388l56 128q-44 5 -44 40q0 21 60 64q16 0 28 100q17 16 32 16h8
q36 0 36 -52q193 117 288 160q19 -12 80 -16q16 -17 16 -32v-4q0 -26 -112 -92q-52 -40 -196 -128l-68 -308q16 -24 16 -40l-68 -108q54 -86 156 -208l16 -52q-4 -20 -32 -44l28 -44v-12l-16 -16h-8q-38 0 -136 136q-76 103 -92 112q-162 -259 -192 -284l-16 -4
q-40 6 -40 40h-4q-92 -156 -136 -156h-8q-32 0 -36 40q3 42 52 100h-12q-27 -64 -96 -64h-24q-221 0 -396 156q-11 -20 -24 -20q-120 0 -144 72v44q20 157 64 256q162 301 360 552q132 150 132 164l-44 88q0 27 36 44q-91 174 -124 184q-24 25 -24 64l144 272l64 148l20 4
h20q0 36 64 48zM660 1319q9 -64 16 -64l24 8h4l12 -12v-4q0 -11 -28 -52l8 -28l288 424l-16 96h-76l-80 8q-68 -29 -92 -92q-12 -33 -60 -284zM648 799l-36 -48h4q15 8 36 48h-4zM680 747q-9 -28 -68 -56h-20l-16 12q-139 -155 -216 -324q-64 -115 -64 -160l4 4h12
q39 -6 80 -44v-20q0 -12 -16 -12v-8q26 -24 220 -68l48 -28q71 35 168 112l108 180q-116 160 -236 412h-4zM84 83l-8 -56l44 -16v8h4l-36 64h-4zM412 -97v-4l120 -20h8v4l-72 20h-56z" />
    <glyph glyph-name="quotesingle" unicode="'" horiz-adv-x="391" 
d="M141 1881q18 0 40 -20l24 4q66 0 88 -288l4 -144h28q7 0 24 -28q-21 -176 -76 -176q-40 0 -52 120q-51 0 -116 452v40q0 28 36 40z" />
    <glyph glyph-name="parenleft" unicode="(" horiz-adv-x="682" 
d="M437 1884q36 -5 36 -36q-11 -34 -152 -256q-88 -201 -88 -368l-12 -212q84 -506 148 -644q55 -87 164 -232q44 -69 76 -92q0 -42 104 -84q16 -16 16 -32q0 -32 -32 -32h-12q-20 0 -116 64q-108 11 -364 380q-109 148 -184 468q-36 121 -36 284q0 203 76 424l48 44h4v-44
h4q57 165 148 288l24 20h8q52 0 52 -36q68 96 84 96h4zM201 1512v-12h4q15 82 132 264v4q-33 0 -48 -56q-60 -113 -88 -200zM161 1332q-24 -87 -24 -172v-68l4 -68h4q4 142 20 304v4h-4z" />
    <glyph glyph-name="parenright" unicode=")" horiz-adv-x="682" 
d="M108 1964l64 -16l24 8h20q57 -14 160 -92q94 -35 140 -120q1 -11 72 -84q57 -64 96 -208q52 -168 52 -372q0 -83 -72 -412q-110 -337 -164 -428q-68 -131 -144 -192q-118 -48 -180 -48h-8q-42 0 -52 56q1 9 28 36q-12 15 -12 28v20q0 84 148 100q65 47 104 224
q148 481 148 700q-28 31 -88 340q-163 180 -180 180q-232 52 -232 108q0 26 36 32q48 -40 88 -40l4 4v4q-82 57 -152 80l-8 12v12q5 36 44 36h16q0 32 48 32z" />
    <glyph glyph-name="asterisk" unicode="*" horiz-adv-x="797" 
d="M379 1837q26 0 44 -60q9 0 12 -36v-176q126 119 140 168l24 8q23 0 48 -40q20 -10 20 -32v-4q0 -18 -152 -196l-36 -44q162 -220 172 -220q16 0 24 -28q-5 -32 -32 -32l-4 4h-4l-24 -4q-21 0 -68 60q-27 3 -92 60h-4l-32 -412l4 -36l-12 -8h-12q-28 0 -28 240l-12 224
l-160 -204h-16l-28 8q-3 -12 -28 -20q-24 0 -28 32q97 185 204 316q-125 119 -268 220l-8 24v16q8 15 24 20l36 -4h8q4 40 36 40q92 -24 208 -128l-24 200q0 22 68 44z" />
    <glyph glyph-name="plus" unicode="+" horiz-adv-x="1196" 
d="M455 1437q20 0 44 -44q60 0 60 -72l-8 -248q110 32 168 32l4 4h4q16 -6 16 -12l28 4h4q48 -4 48 -40q0 -31 -48 -36q-131 -28 -232 -72l-48 -320l4 -24q-5 -36 -36 -36h-4l-24 8q-8 -64 -44 -64q-16 0 -28 20v32l4 28q-20 12 -20 28l32 260h-8q-277 -124 -320 -124
q-25 0 -28 32v4q0 24 28 36l-8 24v16q29 56 348 160q24 209 24 276v4l-16 64q17 60 56 60z" />
    <glyph glyph-name="comma" unicode="," horiz-adv-x="569" 
d="M288 308q44 0 44 -84q0 -73 -60 -256q-124 -243 -148 -272q-40 0 -56 -36q-15 -12 -28 -12h-4q-36 6 -36 36v4q0 22 60 128l60 228q-18 5 -32 36q-40 6 -40 36v8q9 40 36 40v16q-16 17 -16 32v4q0 54 220 92zM236 192v-8l12 12v8z" />
    <glyph glyph-name="hyphen" unicode="-" horiz-adv-x="682" 
d="M504 1065q24 0 56 -72v-4q-10 -65 -36 -88l-276 -76l-68 -8l-92 8q-30 -16 -56 -16q-32 15 -32 40q4 18 28 40q-25 0 -28 32v16q16 12 20 56q0 31 484 72z" />
    <glyph glyph-name="hyphen" unicode="&#xad;" horiz-adv-x="682" 
d="M504 1065q24 0 56 -72v-4q-10 -65 -36 -88l-276 -76l-68 -8l-92 8q-30 -16 -56 -16q-32 15 -32 40q4 18 28 40q-25 0 -28 32v16q16 12 20 56q0 31 484 72z" />
    <glyph glyph-name="period" unicode="." horiz-adv-x="569" 
d="M200 376q32 0 32 -32q-14 -44 -44 -44v-4h4l36 8h20q84 0 116 -68l16 -48q0 -92 -132 -172q-49 -16 -84 -16h-44q-85 0 -120 140v4q16 106 56 148q81 84 144 84zM80 136l4 -16h4l28 116q-22 0 -36 -100zM276 224l28 -44v4q-14 40 -24 40h-4z" />
    <glyph glyph-name="slash" unicode="/" horiz-adv-x="1011" 
d="M980 1904h24q7 0 16 -24l-4 -20q12 -19 12 -72v-12q-28 -92 -124 -252q28 -10 28 -40q-42 -190 -180 -440l-520 -888q-90 -128 -128 -128l-28 8q0 -29 -40 -36q-32 0 -36 40q0 56 204 496q208 404 304 568q96 230 296 572q55 97 160 220zM672 1076l-8 -16v-4h4l8 16v4h-4
zM652 1044l-4 -12v-4h4l4 12v4h-4zM384 616l-220 -376l-48 -108q127 181 280 468v4l-4 12h-8z" />
    <glyph glyph-name="zero" unicode="0" 
d="M863 1912h4q32 0 44 -48v-4q0 -23 -52 -116l-48 -132q34 -48 64 -196q92 -450 92 -716v-4q0 -294 -128 -508q-88 -120 -140 -120q-31 -36 -84 -36h-12q-150 0 -272 76l-40 40h-4q-40 -168 -60 -168q-42 -64 -88 -64q-20 -28 -40 -28q-21 0 -36 24v8q0 66 28 76
q20 0 112 280q-164 291 -164 444q-16 83 -16 204q0 332 132 576q65 167 132 216q52 96 116 96q13 0 28 -28q162 52 200 52q54 0 116 -120h8l60 124q0 72 48 72zM583 1748v-8l92 -56v4q-23 46 -52 68zM427 1688v-4l76 -4l20 4v4l-28 4h-28zM459 1604h-52q-116 0 -116 -80
q-39 -108 -64 -420v-196q0 -135 56 -400h4q44 126 108 388q130 364 288 680v4q-39 28 -112 28zM335 336q104 -208 196 -208l36 -4q100 15 100 88q0 50 116 516q28 200 28 348v32q0 263 -52 364q-18 -28 -176 -432q-212 -480 -212 -568zM107 1064l-4 -140v-28q0 -140 36 -304
h4v8q-15 54 -28 468l-4 -4h-4zM831 596v-8h4v8h-4zM827 580v-12h4v12h-4zM823 564v-12h4v12h-4zM819 548v-8h4v8h-4zM843 404q-57 -119 -80 -184q39 33 84 180v4h-4z" />
    <glyph glyph-name="one" unicode="1" 
d="M308 1692l20 -4l24 4l16 -20v-8l-12 -32q38 0 68 36q15 12 28 12q64 -12 64 -56q8 -73 8 -252q-24 -319 -64 -624l-4 -468q0 -220 -32 -220l-20 -4l-28 12l-12 -16v-36q-6 -16 -28 -16q-16 0 -24 16l-4 -4h-16l-4 4l-4 12h-4l8 48q-11 73 -28 392q-16 146 -16 412v96
l4 220l-36 -40h-4l-12 12v24h-4q-59 -52 -84 -52q-52 10 -52 44l4 16l-12 32l-4 -4h-20q-24 17 -24 32q23 41 148 192q124 160 124 176q0 64 36 64z" />
    <glyph glyph-name="two" unicode="2" 
d="M849 1868h12q78 -28 104 -48q16 -31 16 -48l-8 -64q10 0 16 -32q-34 -133 -108 -296q-88 -302 -184 -456q-190 -387 -260 -564q147 108 468 260q36 -9 36 -36q0 -29 -44 -44v-4h4q156 59 156 84l12 8h4l36 -4l12 4l4 -4v-4l-8 -60l44 44h24l20 -20v-8q0 -46 -220 -216
q-165 -98 -564 -308l-212 -144h-12q-12 0 -64 32h-4q-5 -36 -36 -36l-32 4q-20 -28 -44 -28q-26 0 -40 24v28l80 72l116 288l-4 24v8q16 17 144 360q110 245 236 464q212 450 212 508h-16q-146 0 -460 -336q20 -3 20 -12v-12q-1 -8 -80 -36q-48 -37 -48 -80v-8h-8v24h-8
q-24 -45 -40 -100l-24 -8h-8q-39 0 -44 60l8 32l-12 32v28q0 34 40 112q-28 16 -28 56q49 127 280 308q94 69 236 92l132 48h4l32 -12q73 24 112 24zM773 1320q0 -53 -152 -352l-24 -64v-4h4q112 213 172 392l4 16v12h-4zM409 136h4q369 193 556 308l116 88h-4
q-429 -218 -608 -336z" />
    <glyph glyph-name="three" unicode="3" 
d="M713 1869q36 -13 36 -44l32 4q58 0 72 -104l8 -72q-30 -126 -172 -292v-8h4q109 80 184 80q39 0 52 -28q126 36 188 36q108 0 108 -76v-44l-8 -76l4 -32q0 -27 -52 -100q-198 -412 -424 -808q-43 -59 -268 -304q-32 -76 -56 -76q-32 3 -32 32l20 76l-4 24l-16 -4
q-40 9 -40 40v4q0 29 72 60q162 242 236 424q189 370 264 492q32 57 32 80v12q-256 -114 -544 -220q-27 -40 -48 -40l-20 4q-6 -16 -28 -16h-4q-32 0 -32 32v8l16 40l-4 4l-24 -8h-4q-21 0 -28 16v24q9 15 76 44l24 20l-8 24q0 13 36 44q207 351 220 524v20h-4
q-54 -21 -228 -196l-132 -144q48 -22 48 -52v-20l-4 -28q28 -20 28 -44q-7 -36 -36 -36h-8q-12 0 -144 96q-92 42 -92 92q-24 16 -24 36q0 38 308 312l104 64h28q254 104 288 104zM661 1689v-28h4l4 20zM1137 1361v-4h8v4h-8zM981 1301v-4l36 -4q16 6 16 12h-4zM1005 965
q-137 -211 -188 -320l-96 -220v-4h4l284 540v4h-4z" />
    <glyph glyph-name="four" unicode="4" 
d="M436 1900q34 0 44 -52v-40q0 -36 -28 -132v-4h4l48 128q-8 0 -8 12q21 68 56 68h4q32 -5 32 -24l40 8q32 -11 32 -40q0 -127 -240 -536l-108 -200h4l308 188q112 459 112 532q21 20 36 20l16 -4q0 60 40 60h4q32 0 36 -40q-20 -196 -60 -468h4l32 12h12l16 -12l128 60
l64 20h4l16 -16v-36q-33 -67 -196 -192q-112 -45 -112 -60q-80 -474 -184 -924l-12 -116q12 -45 12 -76q-5 -36 -36 -36q-52 0 -52 128l4 48v8h-4q0 -47 -64 -108l-4 -4h-20q-40 0 -40 60q0 84 80 272l4 4h12l12 -8l100 684q-201 -89 -412 -240q-44 -68 -100 -68
q0 -9 -36 -12h-20l-16 16v24q11 10 24 48l20 36q72 7 312 736q48 166 48 196l-8 44q8 36 40 36zM472 376l-4 -16v-4h4l4 12v8h-4zM464 352q-44 -112 -44 -196l4 -4h4l32 124l-4 20l12 52v4h-4z" />
    <glyph glyph-name="five" unicode="5" 
d="M1072 1772q32 -15 32 -40l-4 -4v-4q0 -13 48 -40v-24l-20 -20h-8l-40 12q-160 -43 -540 -196l-152 -56q-8 -124 -8 -316h4q367 192 484 192q15 16 24 16l32 -4l56 4h40q92 0 92 -48q0 -66 -108 -344l-420 -628q-148 -196 -232 -220q-18 -17 -120 -52q-24 9 -24 28
q12 16 16 56l64 28q23 17 176 264q206 337 268 488l72 184q-541 -244 -564 -244h-12q-26 0 -32 36v8q0 28 48 40v8q-26 0 -32 36v80l-4 112l4 112v100l-56 -8h-24q-28 18 -28 40v8l4 20l-60 -12q-28 12 -28 36q0 38 84 52v4h-8l-56 -8q-27 0 -40 36q0 40 152 60l608 160
q85 24 312 48zM160 1412v-8l48 12v8z" />
    <glyph glyph-name="six" unicode="6" 
d="M819 1873q48 0 48 -60q25 0 28 -32q0 -18 -72 -68q-100 -122 -100 -164q-126 -132 -228 -364q-11 -7 -40 -76h4q165 116 276 116l100 -56h24q95 0 144 -76q96 -92 96 -220q0 -150 -172 -580q-10 -20 -36 -20q-80 -196 -120 -196q-17 0 -52 -64q-50 -88 -128 -88h-28
q-80 22 -80 64v8l-80 -4h-40q-17 -16 -32 -16l-44 16h-48q-75 -32 -96 -32q-32 16 -32 40q3 23 36 44q-12 4 -12 24v12l4 28q-124 131 -124 412v64q0 112 176 600q141 280 252 280q62 92 200 240q138 168 176 168zM303 981q18 16 92 212l36 80q-52 -75 -128 -292zM995 973
v-4q20 -84 20 -144l-4 -36v-4h4l8 80q0 40 -24 108h-4zM679 949h-44q-131 0 -280 -160q0 -29 -44 -52q-68 -120 -68 -160l8 -36v-8q0 -22 -24 -32q0 -260 40 -260q8 -23 188 -36q142 0 196 108q-17 0 -24 16l56 56q112 193 112 268l16 80l-4 4l-12 -4q-28 8 -28 32
q0 11 36 72q-42 91 -96 116zM1007 781l-4 -32v-8h4l4 32v8h-4zM999 733v-12h4v12h-4zM115 625l-4 -20v-12l4 -88l12 12v88l-4 20h-8zM163 237v-4q5 -20 12 -20v4l-8 20h-4zM587 97v-4h12q32 23 32 44v12zM535 5l8 -8q80 0 80 20z" />
    <glyph glyph-name="seven" unicode="7" horiz-adv-x="1408" 
d="M1215 1914q24 -8 24 -32l-8 -32h40q24 24 40 24q36 -7 36 -32h16q28 0 28 -28v-12q0 -18 -76 -32q-132 -225 -324 -736h4q128 40 156 60l12 4q21 0 48 -44q12 0 20 -36v-4q0 -56 -152 -68v-12q0 -38 -128 -68q-38 0 -56 -84q-208 -503 -224 -560q-33 -168 -84 -168
q-12 -7 -64 -100q-61 -76 -96 -76h-16l-20 20v12q0 13 40 24l60 100q-44 0 -44 28h-4q-9 -48 -40 -48h-16q-20 12 -20 28q0 80 252 628l16 64h-4l-128 -68q-30 -16 -56 -16l-28 16l-64 -36h-20l-12 12v8q0 21 88 88q63 43 112 64v4h-8l-196 -80q-56 25 -56 32l-4 16
q0 43 152 84q99 48 292 104q212 614 244 736q-384 -49 -640 -112l4 -4l4 -128v-92q0 -102 -8 -164l24 -76v-12l-16 -16h-8q-7 0 -24 28q-25 0 -28 32h-4q-28 -24 -44 -24q-34 0 -44 108q-24 88 -80 204q-20 54 -20 80h-36l-20 20v16q0 29 44 40v36h-4q-14 0 -24 -32l-4 -4
h-20q-24 14 -24 36v16q0 59 132 80q88 22 88 28q0 36 32 36h4q22 0 32 -24q80 12 408 36q348 44 428 44h48q21 64 68 64zM987 1558v-4h4q60 131 84 164v4q-56 0 -56 -68zM319 1694v-4l64 12v4h-8q-56 -3 -56 -12zM143 1654q8 -18 16 -20q20 0 20 32v4q-36 -9 -36 -16z
M163 1558v-12h4v12h-4zM943 1146q-56 -119 -56 -136h4l56 132v4h-4zM815 814l-12 -36v-4h4l12 36v4h-4zM531 286l-52 -132v-4h4q0 13 28 36q12 20 24 96v4h-4z" />
    <glyph glyph-name="eight" unicode="8" 
d="M1081 1880q236 -31 236 -52v-20q-6 -16 -28 -16h-60l-108 -176q-101 -188 -104 -228h8q73 24 180 76q17 46 52 64h8q26 0 32 -36l-12 -44h16q48 0 48 -52v-16q-28 -311 -124 -872h4q89 45 124 76h4q32 -3 32 -32q0 -47 -180 -148l-36 -236q-15 -12 -28 -12h-12
q-4 -60 -20 -60h-12l-12 12v180l4 4l-4 4v4l4 28l-8 12q-60 -26 -60 -56h-12v16h-4l-372 -204q-65 -72 -80 -76l8 -24q0 -28 -68 -28q-18 0 -32 32q-205 -132 -296 -172h-8q-23 0 -36 32q-36 8 -36 32h-4l-16 -12h-16q-22 0 -36 28q-24 11 -24 32v8q1 20 8 20
q-36 92 -36 172v100q0 208 128 600v4h-24q-20 12 -20 28q-62 -44 -84 -48q-40 11 -40 44t164 124q92 44 92 88q24 44 60 44q15 -5 28 -20l36 16l12 -4l148 72q0 8 -108 48q-11 -64 -44 -64h-4q-28 0 -40 44q-16 0 -36 60l-12 16l4 48q0 20 -8 20l4 36l-4 160h-4l-64 -12h-4
q-20 10 -20 32q0 20 40 52q17 36 48 36l12 4l20 60q23 48 68 48q24 -8 24 -28l28 4h12q17 -10 24 -28q450 156 608 156h72zM761 1756v-4h60l140 -4q40 0 52 44l4 4v4h-4q-123 0 -252 -44zM353 1408q20 -1 20 -12v-40q170 -104 244 -104l220 72l116 332h-4q-80 -28 -564 -52z
M809 1100h-12l-16 12l-52 -8l-16 4q-407 -200 -460 -248q-68 -207 -68 -360q17 -364 40 -404q482 271 644 324q168 153 168 164q52 433 116 700q-137 -32 -264 -100q-36 -32 -60 -80zM101 596q-60 -224 -60 -404v-56h4q0 151 60 452v8h-4zM1081 436v-8l8 8h-8zM877 320h4
l136 76v8h-4q-119 -49 -136 -84zM369 88v-4h4q250 90 288 140l28 32h-4zM125 240v-4l-4 -84l4 -108h8l36 20q-37 176 -44 176z" />
    <glyph glyph-name="nine" unicode="9" 
d="M792 1916q44 -14 44 -44q-5 -40 -36 -40h-20v-8q21 0 28 -36q0 -23 -36 -52h-12l-4 4h-4q-157 -100 -196 -188q-233 -306 -236 -388q-8 0 -8 -28q74 -72 132 -72q70 0 288 104q60 41 60 68l152 544h-72q-21 0 -28 16v20q7 16 28 16h164q48 0 72 -24l20 4q29 0 40 -32
l-8 -44l16 -60q0 -216 -152 -372q-75 -94 -100 -180q-40 -70 -96 -588q0 -230 -64 -352q-8 -27 -32 -44q-10 -140 -56 -140h-4q-28 8 -28 32q11 74 20 288q-24 0 -24 16q36 356 88 632l-324 -120q-133 -28 -240 -28h-16q-99 0 -132 84l-16 60q35 176 140 296q75 81 144 224
q251 341 508 432zM1020 1772l-20 -72h4l28 24h8v-28q17 0 32 56q-29 20 -52 20zM116 1076q-36 -91 -36 -116q10 -60 60 -60l44 -4l16 4q-16 17 -16 32v4q3 32 28 32v8q-34 0 -88 100h-8z" />
    <glyph glyph-name="colon" unicode=":" horiz-adv-x="569" 
d="M264 1028h8q40 0 40 -68l4 -12l-4 -20q12 -4 12 -24q0 -26 -92 -104q-68 -84 -92 -84h-4l-16 4q-30 -20 -44 -20h-16q-22 0 -36 24v20q1 20 8 20l-16 64q0 23 88 80l136 108q4 12 24 12zM140 964h4l8 -8l-4 -4h-28v8zM288 392h4q36 -5 36 -36v-4l-12 -32q32 -14 32 -44
q-1 -18 -64 -72h4l52 28q25 -8 28 -20v-20q-138 -150 -264 -192h-20q-20 0 -44 32q-40 3 -40 40q11 36 20 36l-4 20v12q3 22 252 248z" />
    <glyph glyph-name="semicolon" unicode=";" horiz-adv-x="569" 
d="M198 1036h20q36 0 36 -48l24 8h8q36 0 36 -44l-56 -72q44 -7 44 -40q-18 -51 -144 -144l-68 -28q-44 0 -44 56l4 20h-12q-40 9 -40 40q1 23 60 84l-8 32q3 37 140 136zM198 248q25 0 40 -28q20 -9 20 -40q0 -13 -144 -344q-35 -128 -60 -128h-12q-72 8 -72 44v44
q0 98 84 344l4 52v16q14 24 36 24q40 0 40 -60l36 68z" />
    <glyph glyph-name="semicolon" unicode="&#x37e;" horiz-adv-x="569" 
d="M198 1036h20q36 0 36 -48l24 8h8q36 0 36 -44l-56 -72q44 -7 44 -40q-18 -51 -144 -144l-68 -28q-44 0 -44 56l4 20h-12q-40 9 -40 40q1 23 60 84l-8 32q3 37 140 136zM198 248q25 0 40 -28q20 -9 20 -40q0 -13 -144 -344q-35 -128 -60 -128h-12q-72 8 -72 44v44
q0 98 84 344l4 52v16q14 24 36 24q40 0 40 -60l36 68z" />
    <glyph glyph-name="less" unicode="&#x3c;" horiz-adv-x="1196" 
d="M1032 1772q25 -8 28 -20v-20q-2 -38 -232 -220l-236 -196h4l440 328l44 28q38 48 60 48q28 -12 28 -36q0 -9 -56 -76v-8l40 36h12q22 0 32 -20v-28q-85 -93 -216 -156q-42 -42 -360 -272q-275 -211 -372 -272v-4q484 -296 688 -464q159 -128 160 -168l8 -36v-8l-16 -16
h-16q-11 3 -32 44q-8 0 -8 12l-4 4h-4l-16 -12h-8q-21 0 -88 84l-124 112l-392 260h-4q120 -127 204 -168q247 -163 344 -260q67 -68 136 -172q12 0 20 -36q-5 -36 -36 -36h-4q-13 0 -64 40l20 -32v-4q0 -28 -28 -28q-10 0 -60 72l-156 128q-86 6 -220 128
q-206 237 -276 296q-86 75 -232 168l-4 20q0 17 44 60l-44 -32h-20l-16 16v8q0 23 84 80q129 107 244 228q180 194 300 276l376 316zM216 808l84 -76h4v20q-67 53 -88 56z" />
    <glyph glyph-name="equal" unicode="=" horiz-adv-x="1196" 
d="M1035 1284q32 0 32 -32q0 -36 -96 -48q0 -41 -96 -72l-72 -12v-4h4l84 4h40l36 4q17 -5 24 -20v-12q0 -52 -204 -52h-60q-232 0 -556 -48q-33 0 -36 44q13 32 52 32v4h-96q-36 6 -36 32q0 28 40 40q0 44 120 44q497 36 772 88q0 7 48 8zM951 704q24 -15 24 -36t-52 -40
q0 -17 -52 -20q20 -21 20 -36q-5 -36 -36 -36q-486 0 -736 -72h-16q-16 7 -16 28v8q0 25 200 80l104 12v4h-16q-209 -12 -328 -40q-15 0 -32 24v8q0 49 164 68q0 18 272 40q73 -8 236 -8h112l56 -4q71 20 96 20z" />
    <glyph glyph-name="greater" unicode="&#x3e;" horiz-adv-x="1196" 
d="M108 1900q93 -34 556 -480q256 -223 292 -300l96 -116v-8q0 -33 -40 -36q0 -11 76 -76v-12q0 -32 -32 -32h-4q-16 0 -40 24h-4q-7 -62 -300 -356q-303 -294 -428 -392h-12l-32 8l-168 -124h-16q-32 0 -32 36q2 17 68 76q-16 0 -24 32q0 25 168 192q69 81 264 280
q281 268 304 320l20 4q22 0 32 -20v-16q0 -32 -232 -280q-140 -129 -392 -404v-4q280 215 524 532q144 187 144 196q-114 66 -376 276q-198 168 -356 248l-160 84l-4 20v8l20 20h24q72 -7 136 -56q181 -84 436 -304v4l-408 356h-4v-4l44 -56l-12 -12q-60 65 -92 76
q-44 64 -44 88q0 25 36 32q13 0 144 -68q0 -10 124 -100v4q-100 96 -316 272q-16 21 -16 36q0 26 36 32z" />
    <glyph glyph-name="question" unicode="?" 
d="M1016 1916q22 0 40 -72v-16l-8 -12l4 -24q0 -10 -48 -48q-77 -88 -412 -804q-132 -269 -132 -368l-4 -28q-11 -16 -28 -16q-32 0 -32 40l4 40q-52 10 -52 48v4q56 313 120 452q113 269 288 556v4q-247 -48 -372 -80q-100 -29 -132 -48q-24 -59 -108 -404q-24 -14 -24 -24
q0 -100 -32 -100h-20q-21 0 -32 84l4 20l-12 20v36q0 45 40 188l-4 40v128l-68 -16q-32 15 -32 40q0 28 44 40v12l8 36h-4l-12 -4q-36 5 -36 36v4q0 41 116 68q13 140 48 140h8q20 0 28 -32l20 4h4q36 0 36 -60v-12l56 28l32 -4q365 80 520 80zM287 380q20 0 76 -36
q12 -15 12 -116l4 4h8q48 0 48 -76q0 -228 24 -228q8 0 8 -16q-9 -76 -52 -76q-44 14 -44 52l-4 32h-4q0 -56 -56 -56q-5 -16 -36 -16q-38 0 -48 60h-8q-52 0 -52 44q0 148 92 416z" />
    <glyph glyph-name="at" unicode="@" horiz-adv-x="2079" 
d="M840 1752h36q121 -12 196 -44l40 8q47 0 108 -76q87 -48 232 -244q36 -88 56 -196q96 -210 96 -328q-31 -312 -100 -312q-24 8 -24 28q-84 -75 -124 -136q-53 -61 -144 -96q-114 -149 -184 -208q-72 -44 -116 -44q-63 0 -80 52q-38 15 -68 60q-34 0 -48 52v4q0 14 16 32
l-20 140q-42 -20 -164 -28q-80 0 -128 60q-80 74 -80 168v96q0 91 68 188q32 87 156 196q57 31 116 100l96 36l36 4l56 -4l56 8h16q25 29 44 32q36 -9 36 -28l40 12q25 0 40 -36q0 -47 -68 -204l-8 -32l8 -52v-12q0 -219 -144 -376l-44 -200h4q153 80 324 156q30 32 108 164
q16 24 60 60q60 165 60 204v36q-47 176 -88 232q-8 0 -8 12h-4l-28 -28h-4q-10 0 -12 16l12 56q-68 89 -204 192l-68 44h-12l-8 -8v-4q13 0 48 -36v-4l-12 -12q-108 27 -108 64v16l8 28h-4q-366 -92 -440 -156l4 -40v-4l-20 -52l28 -28v-12l-12 -12h-4q-14 0 -32 16
q-64 -142 -140 -284h-8l-8 8v4q57 122 112 304l-8 16q-79 -65 -180 -268q-72 -149 -72 -292q6 -69 120 -220l4 -32q0 -28 -40 -32q0 -59 56 -124q127 -211 372 -304l36 4h8l12 -12v-16q0 -18 -68 -24q-174 0 -380 244q-178 260 -184 260q-64 70 -64 144v56q0 188 40 348
q0 146 188 348q13 45 108 116q373 199 504 236zM548 652h4q152 104 216 120q48 166 128 320l-16 20q-164 -51 -164 -80q-39 -50 -52 -112zM1460 684v-4h4q60 85 60 124q5 0 8 32l-4 48q-9 0 -16 -44q-48 -89 -52 -156zM456 816q-32 -89 -32 -112v-4h4l32 112v4h-4zM900 240
v-12h12v36q-12 -4 -12 -24z" />
    <glyph glyph-name="A" unicode="A" horiz-adv-x="1513" 
d="M556 1800h16q41 0 96 -168h4q43 97 68 120h20q9 0 12 -20l12 4q30 0 44 -44q0 -157 -64 -284v-4q161 -351 428 -700q268 -293 268 -392q52 -71 52 -104l-4 -28l16 -112q-8 -24 -16 -24h-12q-12 0 -16 48h-28q-26 0 -72 32h-4q44 -77 44 -92v-8l-16 -16h-16q-7 0 -100 144
q-62 93 -136 172l-208 316h-4l-12 -4l8 -40q0 -30 -40 -36l-20 8q-103 -28 -336 -160q-76 -41 -76 -60q-11 -328 -36 -328l-32 -16q-15 4 -40 28l-28 -12q-31 0 -36 60l-36 -20q-20 0 -20 8l-4 -4h-12l-20 4q-15 -68 -28 -68h-16q-32 0 -32 36l40 180l-8 24v4q0 16 28 44
l16 56h-4q-115 -66 -148 -76q-24 0 -48 44v28l16 20v4l-8 12v16q0 44 240 140q156 477 320 872q-108 264 -108 320q0 18 32 32q0 24 28 24h8l4 -4h4q6 17 20 24zM664 1168q-48 -82 -108 -480h4q274 116 288 128q-124 226 -180 352h-4zM1184 616v-4q56 -73 104 -120v4z
M360 212v-24h4l4 20l-4 4h-4z" />
    <glyph glyph-name="B" unicode="B" horiz-adv-x="1483" 
d="M138 1962h20q32 -15 32 -52v-24q32 -31 32 -56l24 8h4q25 0 40 -40q204 32 308 40q269 68 292 68q25 0 28 -36l144 20q28 0 32 -40l12 -12v-24h36q64 -2 64 -44q0 -40 -44 -40l-20 4l-68 -8v-4q16 -21 16 -36q0 -52 -192 -192q-232 -196 -400 -356h4q231 64 844 280
l164 48h4q20 -12 20 -28q-15 -32 -48 -32l4 -20v-12q-51 -47 -56 -88l-44 -56v-4q12 -15 12 -28v-4q0 -33 -68 -108q-8 -42 -44 -80q-82 -60 -376 -384q-137 -154 -332 -332l-180 -320l-24 -8q-35 0 -44 48q-24 -16 -36 -16q-22 0 -36 24v24q0 15 24 52l-12 8h-16
q-11 0 -108 -88l-24 -8h-12l-20 20v4q0 33 52 68l60 68q-13 56 -36 56q-37 28 -60 164q-36 223 -56 480l4 40q-36 5 -36 32v4q5 32 24 32v8q-32 4 -32 32q0 9 24 36v4q-44 402 -44 488h-4l-60 -8h-24l-8 8v12q56 57 92 60v8l-4 28l-176 -28l-12 20l4 12h-28q-36 5 -36 36
q0 32 124 48l28 -8q92 10 92 20v76q0 128 60 128l12 4q36 -4 60 -24q0 17 24 28zM50 1874v-104h4l4 116q-8 0 -8 -12zM302 1286l480 396h-8q-189 -36 -472 -128v-268zM1414 1382v-4h8v4h-8zM1294 1334v-4q20 0 20 -16h4l44 44h-8zM318 882q32 -483 76 -524q150 139 172 192
q109 149 440 508q-399 -79 -688 -176z" />
    <glyph glyph-name="C" unicode="C" horiz-adv-x="1479" 
d="M1192 1976q24 0 28 -32q0 -23 -104 -52v-20q-8 -15 -52 -32v-4h8q120 72 184 72q14 0 32 -16l4 4h4l16 -12v-16l-256 -128l-548 -312v-48l-4 -208q12 -104 44 -696q5 0 8 -48q298 176 648 340l88 36h4q28 0 28 -28v-12q-3 -11 -104 -56l-104 -56v-4h8q106 52 144 52
l12 -16l-8 -24q28 0 28 -28q-8 -19 -96 -64l-36 -24q28 0 28 -28v-16q-10 -18 -208 -100q-10 -12 -416 -208q-6 -36 -16 -36h-12l-16 12l-316 -168q-18 7 -28 24v4q0 18 24 44l-8 12v20q16 23 100 72q-27 0 -36 20v16q0 26 76 60l4 4v4l-12 40h8q13 -36 20 -36h4l-48 228
q-12 60 -12 120h-4v-88l4 -60h-4l8 -52h-8q-20 42 -20 284v144q0 59 16 164l-4 152v120q-88 -56 -116 -56q-36 8 -36 40v4l12 32h-4l-20 -8q-12 0 -28 28q-51 -29 -88 -40h-4l-8 8v12q3 9 120 76l-4 4v8q0 38 84 64l192 124q12 0 12 12q15 16 60 28q288 183 508 264
q74 36 220 80z" />
    <glyph glyph-name="D" unicode="D" horiz-adv-x="1479" 
d="M190 1973h12q24 -15 24 -36l-20 -60l8 -36h4q0 44 32 44h4q31 0 40 -48v-4q0 -81 -12 -144q48 7 48 28q0 60 40 60q36 0 36 -56q261 72 576 72l80 4h140q6 0 28 -36q20 -10 20 -32q0 -36 -92 -36v-16l96 12q32 0 32 -36l-40 -64q-45 -28 -140 -60l-144 -188h4
q67 80 196 184q39 40 60 40q25 0 32 -36q0 -14 -132 -144q-320 -388 -468 -656q-134 -234 -268 -528l-4 -4h-16q-28 0 -28 28l36 88q-6 0 -68 -132l20 -120v-36q-4 -32 -28 -32l8 -52q-12 -28 -36 -28l-20 12l-24 -24l16 -88q-14 -28 -32 -28q-40 0 -40 92l-4 4h-4l-8 -8h-8
q-29 0 -36 120q-22 84 -28 84q-15 -12 -28 -12h-8q-24 13 -24 44q0 41 40 108v120q0 46 28 240l-24 716q-136 12 -136 32v8q0 41 136 68l-4 4v112q-36 6 -36 32l-140 -32h-40v12l28 24l-4 4v12q0 67 196 84q0 134 56 200q23 120 68 120zM210 1837v-16l-4 -28q12 4 12 24v20
h-8zM194 1741l4 -72h4l12 92zM562 1581v-4h12v4h-12zM386 1565l-8 -28l176 36v4h-8zM286 1561l-4 -44h8q9 0 12 44h-16zM270 525q89 122 264 440q130 206 332 460l56 60h-4q-241 -48 -456 -124q-120 -33 -120 -44q-44 -298 -72 -720v-72z" />
    <glyph glyph-name="E" unicode="E" horiz-adv-x="1366" 
d="M814 1895q16 -6 16 -28q0 -27 -180 -40l-540 -104v-12h4q505 93 800 120h8l12 -12h44l96 8l20 -28q-32 -23 -124 -44v-4q26 0 32 -36q0 -39 -124 -60q-231 -80 -472 -120l-92 -16l8 -108l-8 -128v-204l-4 -60h4q54 0 476 152q36 -6 36 -36q0 -28 -80 -80l-40 -16l8 -12
v-28q-1 -14 -108 -48q-287 -131 -308 -156q-12 -181 -12 -332v-96q0 -64 24 -136h4q23 0 412 224q141 76 156 76q24 0 24 -32l92 24q-186 -141 -432 -268q-47 -20 -212 -116v-4h4q137 52 440 196q48 16 216 104v-4q-123 -119 -232 -192q-256 -127 -516 -216l4 -28v-4
q-5 -36 -36 -36h-4q-40 0 -40 80q-6 0 -24 -68l-16 -12h-16q-12 4 -12 24l4 28l-20 -4h-8l-36 12q-70 -40 -124 -60q-24 9 -24 16v24q12 34 216 136l4 4q0 178 -84 636q-91 -31 -124 -52h-12l-16 16v28q12 24 144 84v4h-8l-108 -36l4 -4v-8h-4q-60 11 -60 24v16
q25 30 164 92l-16 240q0 202 20 404l-120 -16q-76 5 -76 20v4l12 12h32q39 0 156 32v4h-8l-116 -20q-68 8 -108 24v8q0 9 220 48q20 0 20 8v4q-62 -20 -116 -20q-124 7 -124 24v12l4 4v4l-76 -16l-4 4v4q0 16 92 24l4 -12h8q56 0 780 136zM274 1619l16 -32q288 48 612 148v4
h-4l-624 -116v-4zM110 1651v-4h8v4h-8zM218 1491l16 -416h4v212l8 128l-8 84h-12zM146 1479v-24q0 -245 24 -476h4v12l-24 488h-4z" />
    <glyph glyph-name="F" unicode="F" horiz-adv-x="1251" 
d="M300 1959h16q20 -12 20 -28l-24 -196v-20l4 4h24q15 -12 28 -12q0 40 24 52h8q32 0 32 -32v-12l752 96q104 16 152 16h4q64 0 64 -40l4 -24q0 -32 -96 -32h-20l12 -12l68 12q17 -5 24 -20v-24q0 -27 -444 -72l-556 -140q0 -66 -96 -520h8q90 32 472 120q28 -12 28 -32
l128 36q40 -8 40 -40q0 -39 -108 -60v-4l4 -24q0 -32 -112 -56l-512 -188q-40 -337 -76 -568q-55 -312 -68 -312h-4q-8 0 -12 24q12 58 12 120q-16 9 -16 20q24 366 84 684h-8q-52 -265 -80 -580l-4 -64v-88l-28 -24h-4q-21 0 -24 12v12l8 12v16q0 40 -28 40l-4 4v16
q16 15 16 52v76l-4 140l20 324q-20 -12 -40 -12q-24 8 -24 32q0 29 72 68l4 28h-4l-28 -4v8q36 0 36 48h-12l-60 12h-4l-12 -8h-4l-8 8v4q0 39 108 64q0 62 100 548q-66 -20 -104 -20h-12q-22 0 -36 24v8q0 36 108 52q67 19 68 28l12 52l-228 -16h-68l-12 12v20q24 40 92 40
q0 24 88 24q44 16 156 36q52 280 84 280zM412 1575v-12h4l112 24v4h-16q-100 0 -100 -16zM220 983v-8h4v8h-4zM216 971v-16h4v16h-4zM212 951l-4 -24v-4h4l4 16v12h-4zM284 867v-4h8l56 20v4h-4zM188 835v-12l8 8v4h-8z" />
    <glyph glyph-name="G" unicode="G" horiz-adv-x="1593" 
d="M1541 1897q18 -7 28 -24v-12q0 -37 -108 -48l-4 -4v-4l12 -12v-12q0 -36 -92 -44q-48 0 -656 -212l-340 -104q0 -80 -44 -196q-7 0 -8 -28v-44q20 0 20 -28v-20q-28 -139 -28 -324l-8 -588h4q328 138 576 268l204 80q44 234 44 288l-348 -140h-4q-44 0 -44 36q0 14 16 32
h-4l-36 -8q-28 8 -28 32l-32 -4q-18 7 -28 24v24q0 28 208 100q491 241 648 300q83 28 128 28q32 -3 32 -32v-4q0 -36 -80 -36l-4 -4h-4q11 -14 24 -68q-18 -32 -36 -32l4 -20q0 -11 -32 -48l-88 -292q-168 -618 -168 -652q-5 -204 -32 -204h-24l-12 8q-23 -16 -36 -16
q-36 0 -36 56h-4l-4 -16l4 -32l-20 -16h-12q-40 0 -40 188v8q0 204 12 248h-8q-116 -60 -612 -244l-120 -44v-88q0 -94 -68 -112q-29 8 -44 32v84l16 16h4l20 -4v4l-40 28h-4v-28l-20 -20h-4q-19 0 -40 28q-162 -44 -208 -44q-28 12 -28 36q0 30 108 60q0 25 56 52
q-24 74 -24 184v16l8 136l-8 256q1 91 92 440q13 0 52 400q-115 -28 -160 -28q-21 0 -36 24v16q7 16 28 16l4 -4l176 56v4h-8q-100 -20 -284 -20l-8 12v12q0 16 120 36q107 32 272 52v4h-12l-212 -20q-48 6 -48 20v20q0 27 320 60q751 128 912 128l84 8l32 -16
q140 40 172 40zM845 1749v-4h12l308 52v4h-4zM801 1741v-4h8v4h-8zM305 1661v-4h8v4h-8zM361 1501q111 31 236 80v4l-236 -60v-24zM265 1477v-8h4l8 8h-12zM1417 941v-8h4v8h-4zM945 689l8 -8v-112l-8 -8h-4l-4 60v60zM853 313v-4h4l216 72l4 44h-4q-88 -36 -220 -112z" />
    <glyph glyph-name="H" unicode="H" horiz-adv-x="1479" 
d="M892 1912q24 0 24 -76v-232h4q14 244 60 244h8l84 -32q44 -5 44 -40v-100q0 -157 -28 -596q113 44 144 44q17 -5 24 -20v-24q-10 -20 -32 -20q20 -21 20 -36t-136 -128q-40 -7 -40 -32q-52 -557 -52 -844l4 -20q-8 -56 -24 -56l-20 4l-12 -12q-21 0 -28 16v8l8 44v8
q0 34 -40 88q-48 150 -48 412q-12 90 -16 268q-465 -189 -504 -212l-4 -4q-8 0 -8 -12q0 -136 68 -428v-20q-22 -128 -76 -128q-8 0 -8 -20q-16 -24 -36 -24q-68 8 -68 44l-40 116h-4q-29 -116 -44 -116h-16l-12 12q16 63 36 228l-20 180h-8l-16 -4l-24 8q-81 -60 -148 -60
h-4q-24 17 -24 32q0 23 100 68l80 48v20h-4q-157 -80 -196 -80q-16 0 -24 16v20q21 34 136 84l48 32l-16 16v16l4 20h-4q-125 -48 -196 -48q-40 5 -40 40q0 28 124 48q25 16 160 60q-28 268 -28 524q0 417 76 528q0 44 32 44q52 0 60 -72l4 4h16q43 0 64 -100q36 -20 36 -56
l-8 -516v-100l4 -160h4q335 104 528 176v596q0 308 24 308l4 4h24zM1156 1036v-4l8 -8l16 20h-4zM232 488q0 -239 72 -368l8 -24h4l4 12q-72 288 -72 396h-4q-10 0 -12 -16zM248 84v-4l28 -60l8 8q-32 44 -32 56h-4z" />
    <glyph glyph-name="I" unicode="I" horiz-adv-x="1506" 
d="M1420 1908q24 -10 24 -36q0 -30 -96 -40q0 -25 -16 -44q12 -17 12 -32q0 -35 -88 -40l-248 -84l-148 -592q-92 -410 -116 -624l-4 -48h4q300 100 580 160q23 -16 56 -24q16 -23 16 -36q0 -17 -36 -40q0 -28 -80 -60q-286 -144 -524 -220l4 -20q-5 -16 -20 -24h-20
q-20 12 -20 24q-40 -4 -40 -32l-16 -12h-20l-20 16q-182 -56 -292 -100q-18 8 -20 16v12q0 58 172 108v4h-4q-215 -48 -352 -104h-16l-20 20v24q0 18 188 88l344 140q-16 272 -16 392q36 676 68 820h-4q-175 -56 -492 -176h-32l-16 16v12q0 48 136 84v4h-4l-136 -20v4l-4 -4
h-32q-14 8 -20 24l4 16h-36l-20 20v4q0 41 168 84l288 88v4h-8l-380 -60h-12q-32 0 -32 32q0 34 112 48q235 52 632 104q558 104 652 104zM660 700l-4 -104l4 -204h4v308h-4zM784 300v-4q132 28 292 88v4h-4z" />
    <glyph glyph-name="J" unicode="J" horiz-adv-x="1024" 
d="M1256 1861q24 -8 24 -32v-8l-4 -4v-4q23 0 28 -32q-17 -48 -56 -48q-66 0 -288 -56v-4h12q176 36 208 36q28 -12 28 -40q0 -44 -144 -56q-111 -21 -116 -28l-28 -1008v-16h4q9 184 32 200h12q11 0 20 -68l-4 -192l8 -436q56 -40 56 -64v-16q-14 -24 -40 -24q-9 0 -44 32
h-4q-3 -20 -32 -20q-61 34 -188 156q-304 264 -428 340q-20 13 -20 32v8q24 25 24 36q-213 187 -216 240l-8 24v16q0 32 32 32q36 -6 120 -116q103 -79 332 -212l148 -104v4q-36 180 -64 480q-76 307 -76 604q-42 0 -508 -160q0 -9 -36 -12q-22 0 -32 20v16l4 20
q-24 0 -24 12v20q0 10 16 12v4h-4l-100 -16q-28 0 -28 28v12q0 26 552 168v4h-8l-532 -120q-66 -12 -120 -12h-8q-31 0 -40 20v24h-28q-16 7 -16 28q0 60 256 76q185 28 420 52q254 76 504 116l116 12l48 -12zM948 1673v-4h8v4h-8zM448 1649v-4h8v4h-8zM428 1645v-4h12v4
h-12zM856 1573v-4l-16 -256v-72l8 -288h4l20 620h-16zM800 709v-12q20 -256 40 -256l4 -4v-4q0 -72 -28 -72l52 -48v4q-16 143 -48 292l-16 100h-4zM900 169l8 -28l16 16v4l-8 12z" />
    <glyph glyph-name="K" unicode="K" horiz-adv-x="1366" 
d="M1104 1932h24q24 -14 24 -36q0 -26 -240 -280h4q221 212 236 212h12q32 0 36 -40q-35 -74 -236 -268q-347 -318 -400 -404v-4l196 -180q114 -125 192 -284l324 -348q24 -36 24 -60v-4q0 -21 -12 -24h-12l-28 24v-4q12 0 12 -40q-8 -24 -32 -24q-22 0 -52 60
q-94 110 -152 144q-29 4 -328 288l-304 228h-4l-72 -76v-4l20 -384l-4 -104l24 -164q0 -47 -56 -52l-20 4q0 -9 -32 -16q-15 0 -32 24v12l8 28q-23 17 -60 76l-16 -16l12 -148q0 -54 -52 -68q-26 0 -40 52l4 40q0 25 -28 140l-4 28l20 184l-12 596v92q-28 537 -48 672
q12 28 36 28q32 -15 32 -40h8q0 20 28 20h12q0 13 52 52q0 20 28 20h4q36 -6 36 -36l-8 -228q56 0 56 -60q16 0 16 -380v-28q151 181 468 488q39 68 80 68q14 20 216 188q0 12 40 36zM512 1256l-84 -84v-4l20 -12h4l64 100h-4zM380 1120l-72 -88v-4l36 -4q25 0 48 44l12 16z
M492 988l20 -16v4l-16 12h-4zM208 360l-4 -20l12 -56h4v4l-8 72h-4z" />
    <glyph glyph-name="L" unicode="L" 
d="M198 1784q38 0 48 -72l16 12h20q39 0 48 -52q30 44 52 44h4q34 0 44 -52q-12 -89 -20 -268l-116 -760l-64 -360h4q222 0 580 52l156 8q24 -8 24 -32q0 -25 -32 -28v-8h40l16 -16v-20q0 -18 -216 -96q-167 -71 -348 -112q-226 -44 -312 -88q-22 -40 -48 -40l-24 12l-4 -16
l8 -44q0 -25 -32 -28q-37 0 -44 60v16q-78 -20 -112 -20q-36 0 -36 80q0 24 120 36v16q0 34 76 56l4 4v12h-48q-16 7 -16 28q0 29 84 56l4 40l-16 16v20l12 12l-4 128v160q0 125 84 752q28 296 28 408l-8 64zM238 984l-4 -28v-24h4l4 48v4h-4zM230 928v-32h4v32h-4zM214 200
v-8l72 8v4h-32z" />
    <glyph glyph-name="M" unicode="M" horiz-adv-x="1706" 
d="M368 1841h4q45 0 68 -88q48 -3 48 -28h12q60 -15 60 -140v-60l-12 -560q0 -515 64 -708h4q3 217 248 1132q52 168 72 268q17 16 32 16h8q25 0 48 -44l16 84l-8 28q26 72 88 72l24 -16q68 24 92 24q52 0 60 -40q0 -40 -80 -40l-40 -16q16 -14 16 -52h4q23 64 60 64h28
l24 -16l24 8l20 -4q11 68 44 68h4q40 -7 40 -36q-28 -142 -28 -184q40 -54 40 -116l-132 -712l-28 -212l36 -332q0 -38 -48 -52l32 -288v-8q0 -36 -48 -36q-44 18 -44 80q0 89 -52 268q-120 593 -120 688q-16 -17 -96 -248q-79 -301 -172 -476q-120 -170 -120 -200l-4 -44
v-16q0 -21 36 -140q-8 -36 -36 -36h-4q-13 0 -28 12h-4v-8h-8q-37 132 -68 132q-80 136 -188 568q-31 57 -64 360l4 4v4l-16 100h-4q-140 -483 -140 -636q-20 -183 -56 -248v-84l-16 -16h-16l-12 8l-12 -12h-16q-10 0 -16 32v76l36 268v52q0 251 112 876l144 548
q22 24 48 100q15 12 36 12zM364 1565v-24h4v24h-4zM1368 1453q-36 -152 -68 -360v-8h4l68 360v8h-4zM300 1345l-12 -52l20 -4v28l-4 28h-4zM256 1165l-44 -208v-4h4q48 140 48 172v12l-4 28h-4zM1020 1073q-100 -192 -164 -464l-60 -240v-4h4q96 345 228 664l-4 44h-4z" />
    <glyph glyph-name="N" unicode="N" horiz-adv-x="1479" 
d="M172 1857q46 0 52 -80v-4l-4 -72q14 0 56 -132q120 -305 324 -872q63 -135 224 -336l32 -32v128l-20 228v188q0 237 64 548q15 12 28 12h16q17 128 44 128h12q24 0 24 -16h4l16 128l-4 20q8 24 32 24q11 0 28 -28v-4l-48 -812q0 -474 112 -1080l20 -68q-8 -40 -40 -40
h-12q-55 50 -96 56q-10 13 -76 32q-105 82 -168 188q-16 34 -92 116q-93 115 -224 448l-120 300l-132 308h-4v-4l40 -840v-104l24 -184v-28q-7 -60 -44 -60h-12q-64 49 -64 184h-8q0 -188 -32 -188l-32 -12l-16 -4q-68 0 -68 312q0 162 52 504v172q0 168 32 588
q-32 72 -60 200q12 28 36 28q13 0 40 -24v56q21 128 56 128h8zM1016 1493l-4 -36v-8h4l4 28v16h-4zM224 1297v-12l8 -8v8l-4 12h-4zM80 349l-8 -144l4 -100h4l4 80v164h-4zM1008 249l-4 -28l16 -52h4v4l-12 76h-4zM964 77l12 -8v4l-4 12z" />
    <glyph glyph-name="O" unicode="O" horiz-adv-x="1371" 
d="M1212 1905q32 0 40 -44v-8q0 -54 -144 -760q-76 -448 -76 -720v-56l28 -24v-16l-28 -24v-8q71 0 84 -44q0 -33 -64 -40q-41 -19 -196 -52q-440 -176 -608 -176q-24 9 -24 32l8 24h-16q-52 -73 -60 -100q-21 -16 -44 -16l-16 20v12q8 16 20 16l-24 116h-4q-18 -16 -28 -16
l-20 8l-68 -16q-25 0 -28 32q0 29 104 64l4 28v68l-12 260v48q0 423 28 1000h-4q-116 0 -116 28v12q0 28 124 28l4 16h-4l-120 12h-48q-16 7 -16 28q0 31 104 40l88 8v8q0 53 28 68h16q16 -5 16 -36v-28l4 -4v-4q40 2 40 16q0 60 40 60q26 0 32 -36v-24h4q94 0 656 84l96 4
q14 44 44 44h8q24 -2 24 -12v-12l-8 -12v-72h40l-4 40q12 28 36 28l20 -8l12 56l-4 32q0 25 32 28zM532 1645v-4h12l192 28v4h-12zM1072 1637l-28 -340v-8h4l68 372q-38 0 -44 -24zM316 1525q-76 -504 -76 -1068l8 -292h4q371 60 652 120q12 92 32 668l64 668h-4
q-408 -64 -680 -92v-4zM144 1589v-4h8v4h-8zM140 1497v-32h4l4 32h-8zM172 929q-32 -363 -32 -472l4 -272l-4 -48h4l36 8l-12 552l8 224v8h-4zM252 85v-12h4q55 0 308 60v4h-4z" />
    <glyph glyph-name="P" unicode="P" horiz-adv-x="1366" 
d="M144 1928q32 -17 32 -36l-4 -20v-48q95 12 204 12h140q117 0 524 28h8q83 0 112 -36h32q25 0 48 -36l12 -12v-12q0 -82 -516 -572q-55 -60 -264 -236l-280 -248l-24 -4q-20 -274 -64 -640l4 -36q0 -26 -36 -32q-39 0 -64 108q36 715 56 912q14 0 16 184v284l8 212h-4
l-56 -12q-24 0 -28 32v12q28 27 36 56q13 13 60 24q0 116 48 116zM1128 1712h-36q0 -17 -20 -64l96 92h-16zM1008 1716q0 -11 -64 -104l-32 -48v-4q136 110 136 156h-40zM164 1704q-8 -75 -8 -200v-12h4q20 64 32 156l-8 48v8h-20zM360 1592q0 -26 -152 -656l-8 -44h4
q175 129 348 360q273 301 332 408l12 12v4h-128l-296 -68zM244 1440l-44 -184v-8h4l44 188v4h-4zM196 1244v-16h4v16h-4zM192 1224v-12h4v12h-4zM188 1204v-8h4v8h-4z" />
    <glyph glyph-name="Q" unicode="Q" horiz-adv-x="1593" 
d="M1094 1969q48 0 48 -84v-36l24 -56q156 -6 156 -48v-8q-5 -36 -36 -36h-12v-4q24 -25 24 -48q0 -160 -192 -672q-96 -268 -96 -464l-20 -136q16 0 28 -20v-8q0 -19 -28 -72h4l32 8q36 -5 36 -36v-4q0 -31 -52 -48l4 -32q0 -44 -220 -92l264 -256l4 -20v-8q-5 -36 -36 -36
q-10 0 -128 72q-155 53 -372 164q-94 -28 -296 -52q-195 -40 -256 -40h-16q-48 0 -48 36q0 22 60 60q64 16 64 36v8h4l-16 100l12 80q0 61 -16 120q20 270 20 568q68 448 68 528q0 119 8 184h-88q-32 0 -32 32q0 70 56 84q80 9 80 24q0 60 32 60q28 -12 28 -40l100 -4h40
q0 43 68 64h16q24 -14 24 -36v-4l-4 -4v-4h4q148 16 400 64q89 12 164 12l52 -4l-12 60q0 48 52 48zM858 1641q20 -21 20 -36q-9 -32 -32 -32q-25 0 -240 48l-92 12l-80 -8v-8q0 -126 -120 -428q-76 -205 -128 -516q-52 -449 -84 -640h4l272 60v4q-73 68 -128 132
q-57 30 -60 56v4q0 33 44 44q20 0 80 -52h4l-12 24q0 36 56 36l36 -16v4q-25 32 -108 80l-4 20v16q14 24 36 24h4q57 0 352 -288q51 11 128 44l-4 60v44q36 198 60 396l104 540q36 116 76 404h-4zM178 1621v-4l-4 -88l24 4l20 -8v4l16 92h-56zM358 1593q-152 -410 -152 -504
l-4 -4v-4h4l148 440l8 64v8h-4zM186 1397v-8h4v8h-4zM182 1385v-12h4v12h-4zM402 325v-4h8v4h-8z" />
    <glyph glyph-name="R" unicode="R" horiz-adv-x="1479" 
d="M217 1938h4q36 -5 36 -36v-12q0 -120 20 -128h64l416 84l136 12h128l16 -4l16 4h20q20 0 32 -24q84 0 84 -36l32 8h8q44 -7 44 -44q0 -83 -216 -316q-417 -497 -636 -732q326 -210 488 -352q126 -111 232 -184q65 -63 136 -100l8 -20q-5 -16 -20 -24h-20q-156 96 -172 96
q-83 36 -156 56q-80 56 -316 144l-356 140q20 -72 20 -168v-12q0 -79 -48 -288q0 -92 -16 -92h-20q-56 58 -56 72l4 32q-19 0 -60 400q0 120 -24 164v8l12 12l-12 232v60q0 195 28 496v128h-44q-41 0 -52 96q-60 0 -60 56q0 28 36 48h8q12 0 12 -24l76 8v4q-60 0 -60 36v12
q11 24 48 24l52 -4q0 53 36 76h20q12 0 12 -32h4q23 120 40 120zM1109 1758l-4 -24q12 4 12 24h-8zM941 1626q65 76 88 120v4q-30 0 -88 -124zM213 1174l8 -44l-28 -296l8 -92h4l92 108q406 506 588 840l20 36h-4q-148 -36 -476 -144q-152 -36 -152 -48zM277 1658v-4h4
l64 20v4q-68 -11 -68 -20zM57 1606v-12h16l4 24h-8zM369 654q70 -106 236 -160l-232 160h-4z" />
    <glyph glyph-name="S" unicode="S" horiz-adv-x="1366" 
d="M1064 1868q104 -44 104 -76v-8q0 -52 -124 -72q-190 -61 -512 -232q-204 -120 -204 -132l36 -316q24 0 688 292l-4 28q5 36 36 36h4q36 -6 36 -32h24q27 0 76 -240q160 -442 160 -572l4 -72q-2 -72 -20 -72h-16q-9 0 -28 56q-40 -14 -48 -24l4 -4v-12q0 -21 -16 -28h-20
q-16 8 -16 20q-24 -2 -24 -12l4 -36q-5 -16 -20 -24h-24q-20 12 -20 28q-91 -40 -700 -356q-122 -68 -184 -68q-26 0 -32 36q0 29 104 60q44 15 56 52l144 128q79 42 348 300q196 185 196 200q-41 336 -64 336l-24 44q-200 -127 -552 -236l-72 -8q-12 0 -24 24l-64 -16
q-48 13 -48 44v12q-28 0 -28 20l24 28v4q0 30 -156 352v16l-24 -4q-32 0 -36 40q6 26 44 56v8q0 13 -12 28v8q0 75 396 264q498 132 628 132zM216 1536v-4h8l240 132h-4zM320 1496v-12l344 176v4h-8q-116 -48 -336 -168zM144 1492v-4h12l40 32h-4zM188 1420v-20h4l12 12v12
h-4zM1100 1164v-4q0 -108 44 -224h4v8q-16 126 -44 220h-4zM1252 780v-8h4v8h-4zM1256 768v-4l28 -236q12 8 32 8q-8 59 -56 232h-4zM1180 520l4 -28v-12h4l8 8l-8 32h-8zM804 288v-4h4l316 160v12l-4 20q-202 -134 -316 -188z" />
    <glyph glyph-name="T" unicode="T" horiz-adv-x="1251" 
d="M1400 1932h4q36 -5 36 -36v-4q0 -54 -180 -96q-355 -142 -356 -148q-80 -337 -148 -812q-44 -368 -60 -652q0 -23 -52 -60q-10 -20 -32 -20v-56q-11 -48 -44 -48q-52 19 -52 76v36l16 56l-8 192v284q0 214 68 832l4 24l4 28h-4q-386 -164 -428 -164q-32 15 -32 40
q0 13 16 32q-40 5 -40 36q0 14 20 36h-4q-44 -12 -100 -16q-13 0 -28 28q0 41 168 76l244 68v4h-4l-268 -64q-24 0 -44 28v20q0 28 228 72q663 172 812 172l68 4l64 -4q45 7 132 36zM804 1612l-16 -88v-8h4l16 92v4h-4zM188 1452v-4h4l56 20v4h-4zM684 924
q-64 -302 -64 -516v-48l4 -68h4q27 434 60 628v4h-4z" />
    <glyph glyph-name="U" unicode="U" horiz-adv-x="1479" 
d="M1188 1980q36 -9 36 -56v-28h4l20 4l4 -4q8 30 28 40h28q24 -14 24 -36l-12 -56l8 -40q0 -68 -140 -576q-100 -396 -100 -660l4 -40q-10 -28 -96 -84q-8 -116 -48 -116h-8q-21 0 -24 12l-20 -4q-25 0 -52 44q-478 -225 -664 -292h-8q-13 0 -28 12h-8v-16q0 -31 -28 -36
v-8q0 -31 -20 -40h-24q-16 0 -28 60q-12 0 -24 20v28l4 4v4q-16 7 -16 28v8q0 20 28 52l-8 28q7 4 24 280l140 1096q32 193 36 268q16 24 36 24q36 -12 36 -68v-16l-44 -328v-8h4q52 195 72 304l-8 8q9 76 44 76q32 0 32 32q30 52 56 52h8q44 -7 44 -44v-28q0 -20 -48 -156
l-8 -52l4 -96v-60q0 -113 -136 -540l-156 -652l-12 -40l632 260q136 41 136 84q32 416 128 1028q15 58 28 232q16 20 36 20q32 0 36 -44v-64h4q0 180 32 180h12zM1220 1792v-12h4l12 56q-16 0 -16 -44zM364 1600q-88 -341 -88 -460v-12h4q92 325 92 400v72h-8zM136 200v-8h4
l16 12h-8z" />
    <glyph glyph-name="V" unicode="V" horiz-adv-x="1366" 
d="M81 2001q40 0 40 -104q32 -54 32 -296h12v4q9 212 52 212h16q40 0 40 -72l-4 -420q0 -187 148 -928q28 -112 36 -112q68 208 124 448l-4 40q32 85 96 384q56 189 164 432q60 204 116 204h8q36 -5 36 -36v-12l-4 -4v-4q56 0 56 -32l4 -36q0 -53 -32 -148v-4h4
q0 20 132 204l32 4q32 -15 32 -40l-36 -68q-101 -254 -240 -476q-141 -244 -176 -376q-149 -422 -196 -640q-74 -260 -156 -260h-4q-48 0 -56 60q8 72 20 72q-89 170 -176 428q-48 166 -160 908l-44 456q10 32 36 32h16v44q-24 34 -24 48v20q17 68 60 68zM953 1653
q-53 -99 -76 -216v-8h4q71 146 76 220v4h-4z" />
    <glyph glyph-name="W" unicode="W" horiz-adv-x="1933" 
d="M148 1868q40 0 68 -112l32 12q36 0 36 -48v-44q0 -95 -88 -788l-4 -48v-4h4l356 628q156 284 156 352q13 40 44 40q32 -5 32 -24l12 8h4q36 -29 36 -52v-16q0 -19 -24 -72q20 -72 20 -108q0 -138 -44 -792l-4 -112q168 254 352 860q6 60 40 100q7 60 24 60h20
q20 -12 20 -28h12q32 0 32 -32v-4q0 -29 -32 -148q0 -79 -108 -292q-63 -176 -168 -676q-76 -279 -164 -436l-4 -12v-36l4 -196q-12 -28 -40 -28q-40 0 -40 104v32l-76 -20q-26 0 -32 36q0 19 32 64l-28 48l-4 68q4 16 16 16v40l4 4v4q-32 11 -32 20v12q0 20 36 48v36
q-36 0 -36 44q0 14 44 88l36 984v4h-4q-186 -352 -292 -640q-164 -594 -164 -696q-17 -132 -52 -132q0 -8 -20 -8h-4q-78 33 -100 92v32q0 45 24 104l-68 508l-12 452q0 187 40 576l20 16h20q24 0 24 -84h4l8 100l-8 64q15 32 40 32zM812 572l-24 -56v-16h4l24 68v4h-4z" />
    <glyph glyph-name="X" unicode="X" horiz-adv-x="1366" 
d="M944 1852h20q24 -14 24 -36v-20q-22 -174 -72 -236q-48 -72 -64 -152q-13 -44 -220 -468q117 -253 192 -312q105 -133 268 -304l108 -88v-12l-16 -12q-17 0 -100 56h-4q91 -119 164 -200v-20l-16 -16h-20q-101 93 -176 176q-90 54 -204 208q-103 64 -196 204l-80 140
l-288 -636l-12 -28q12 0 20 -16q-13 -44 -40 -44h-4q-40 0 -40 68h-4q-37 -104 -72 -104h-8q-24 14 -24 36q0 17 28 80l-28 8q-23 -84 -56 -84q-24 0 -24 28v8q0 60 144 436q115 272 244 508l-288 456q-32 23 -32 48v12l20 20h8q16 0 60 -40q-36 61 -36 88q3 32 32 32h8
q27 0 72 -96l48 -80l16 8l-56 128v20l16 16h28q59 -46 216 -408l336 504l52 100h16l8 -8v-52h4l8 36l-8 8v24q7 16 28 16zM788 1520l-160 -244q11 0 168 240v4h-8zM584 1212v-8h4v8h-4zM572 1192v-8h4v8h-4z" />
    <glyph glyph-name="Y" unicode="Y" horiz-adv-x="1366" 
d="M147 1848h8q35 -33 208 -280q162 -163 372 -316q13 -18 68 -60l136 420q68 177 120 200q30 28 44 28h8q36 -5 36 -36l-12 -48v-4h4q0 15 44 52h24q16 -6 16 -28l-24 -84q12 0 20 -16v-20q0 -18 -96 -212l-128 -308q0 -147 -48 -172q-24 0 -24 -40q-68 -571 -68 -656
l4 -244l-4 -56l4 -28l-24 -92l-24 -12q-36 0 -36 140l-4 76h-4q0 -56 -32 -56q-44 0 -44 88v208l-16 432l4 156l-184 228q-128 97 -212 216q-80 120 -128 228q-140 171 -140 236q17 36 48 36q24 -8 60 -36v4l-8 24q0 32 32 32zM1127 1732v-8h4v8h-4zM1119 1708v-8h4v8h-4z
M603 1268v-4q58 -52 152 -168h4l16 36q-118 101 -172 136zM639 872v-4l-28 -28v-4l60 -48l-4 -4v-4q-51 26 -68 56q17 36 40 36z" />
    <glyph glyph-name="Z" unicode="Z" horiz-adv-x="1251" 
d="M1464 1848q24 -8 24 -32q0 -35 -108 -56q0 -10 -80 -36l-24 -52q10 0 16 -32q0 -45 -164 -280v-4h4q151 223 268 372l24 8h4q36 -5 36 -36v-8q-23 -91 -140 -228q-244 -287 -472 -672l-132 -200l-132 -184h4l740 204q48 0 220 80h12l16 -16v-8q0 -34 -144 -108
q-149 -57 -160 -68q12 0 12 -12q0 -38 -188 -104l-564 -220q-307 -156 -380 -156q-16 17 -16 32q10 26 20 28l-4 32q42 60 84 60l80 196q85 123 192 320q0 55 124 244q95 207 308 636h-8q-658 -224 -716 -224q-32 0 -32 32q0 42 168 80v4h-4l-324 -100h-4q-16 6 -24 20v28
q6 16 92 56q0 48 72 48q139 52 396 120v4h-8q-425 -44 -512 -80q-15 0 -32 24v16q0 39 212 80q532 56 984 140q0 6 40 12q42 36 56 36h8l28 -8l36 8h8q24 -2 24 -12q38 16 60 16zM1028 1540v-4h4l44 64h-8q-14 0 -40 -60zM384 1452v-4h8v4h-8zM360 1444v-4h4l16 4v4h-8z
M616 692v-4h4q312 467 312 508q-222 -318 -244 -360zM512 268l224 92v4h-4q-205 -53 -208 -60z" />
    <glyph glyph-name="bracketleft" unicode="[" horiz-adv-x="929" 
d="M544 1812q36 -5 36 -36q0 -15 -20 -36q23 0 40 -16h48q20 0 44 -32h40l44 4q19 -3 36 -36q36 -5 36 -36v-4q-6 -36 -32 -36l-108 4q-177 0 -468 -60q0 -199 36 -316q73 -402 96 -892l4 -4v-4h48l260 -8q28 -12 28 -36v-4l-4 -20q92 0 92 -44l-8 -28q108 -25 108 -64v-16
q-15 -24 -44 -32l-96 8l4 -12q0 -36 -80 -36h-120q-80 0 -372 32q-24 -52 -60 -52q-26 0 -52 52q-48 8 -48 40q0 44 96 44h12l-8 24q24 47 24 88l-12 68l20 76q-40 298 -40 392v216q0 136 -80 520q-44 11 -44 44l24 44l8 36l-8 92v12q10 20 32 20q32 0 40 -80v-8h4l48 12
l-4 24q0 26 36 32h4q19 0 40 -28q162 65 320 92zM264 716q0 -194 -28 -464v-4h4q0 27 64 44l-36 424h-4z" />
    <glyph glyph-name="backslash" unicode="\" horiz-adv-x="569" 
d="M88 1840q16 -16 56 -16q29 -24 52 -120l4 -28h8l-8 60q6 28 28 28q57 0 96 -348q51 -270 136 -568l200 -608q12 -55 12 -100v-68l-16 -16h-16q-19 0 -28 116h-4v-4q0 -72 24 -136q-5 -32 -16 -32h-20q-56 46 -56 172q-26 76 -32 76q0 -17 -16 -24h-16q-15 12 -52 132
q-156 313 -332 1036l-92 344v12l20 20h12l20 -4v32q0 44 36 44zM576 280v-8l8 -20h4v4l-8 24h-4zM588 248v-8h4v8h-4zM592 236v-8h4v8h-4zM596 224v-8h4v8h-4zM600 208v-8h4v8h-4zM604 192v-8h4v8h-4zM88 1840q16 -16 56 -16q29 -24 52 -120l4 -28h8l-8 60q6 28 28 28
q57 0 96 -348q51 -270 136 -568l200 -608q12 -55 12 -100v-68l-16 -16h-16q-19 0 -28 116h-4v-4q0 -72 24 -136q-5 -32 -16 -32h-20q-56 46 -56 172q-26 76 -32 76q0 -17 -16 -24h-16q-15 12 -52 132q-156 313 -332 1036l-92 344v12l20 20h12l20 -4v32q0 44 36 44zM576 280
v-8l8 -20h4v4l-8 24h-4zM588 248v-8h4v8h-4zM592 236v-8h4v8h-4zM596 224v-8h4v8h-4zM600 208v-8h4v8h-4zM604 192v-8h4v8h-4z" />
    <glyph glyph-name="bracketright" unicode="]" horiz-adv-x="569" 
d="M412 1867h8q36 -14 60 -88v-12q62 0 256 40h8l20 -20v-12q0 -32 -84 -44l4 -4v-16q0 -36 -72 -36l-112 -20v-16h36q24 -14 24 -36v-12q-5 -19 -52 -36q0 -200 88 -1156v-92l-4 -28h16q60 -6 60 -44q0 -40 -92 -48l-20 12q-104 -9 -104 -60v-20h76q26 0 40 24l16 8
q76 -7 76 -60q0 -52 -224 -52q-143 0 -500 -52q-168 -76 -196 -76q-32 16 -32 40q0 28 84 60l16 44q0 46 188 92q171 59 368 96l4 4q16 0 16 36l8 388l-8 328q-48 275 -84 560h-4q-107 0 -384 48q0 -16 -52 -24q-51 0 -68 52q0 24 52 56l-8 24q0 22 36 32l92 -4l408 12
l-16 52v4q0 56 56 56zM384 1755h16v16h-4zM472 271l12 -4q52 0 52 12v40l-12 156q-18 -26 -40 -160q-11 -21 -12 -44zM180 103v-4h4l192 16v40q-73 0 -196 -52z" />
    <glyph glyph-name="asciicircum" unicode="^" horiz-adv-x="961" 
d="M523 1836q44 0 44 -64q122 -296 224 -408q29 -21 44 -84l-40 -8q-56 0 -184 224h-4v-4q34 -109 172 -280q48 -15 48 -36l-12 -20q60 -27 60 -48q0 -26 -36 -32q-47 7 -144 108q-168 211 -168 252h-8q-157 -131 -400 -280l-72 -84h-24l-16 16v16l20 44l-8 24q0 18 44 52
q54 54 352 460q0 44 36 52q40 100 72 100zM527 1652l20 -44h4v4l-16 40h-8zM367 1416l120 96l-16 44q-15 -10 -104 -140z" />
    <glyph glyph-name="underscore" unicode="_" 
d="M436 208h512q224 0 224 -32l4 -4v-8q0 -24 -28 -36l-68 8l-56 -4h-116v-4q192 -35 192 -80q-9 -40 -40 -40q-75 29 -184 48q-73 0 -792 -56q-64 0 -64 40l16 32v16q-36 0 -36 28v4q0 64 304 84z" />
    <glyph glyph-name="grave" unicode="`" horiz-adv-x="682" 
d="M220 1844h12q100 -13 280 -376q12 0 20 -36q0 -15 -24 -36q0 -40 -36 -40h-4q-28 0 -88 80l-276 200q-44 45 -44 56q0 20 24 36h16q11 0 96 -64v4l-84 100v12q6 36 36 36q29 0 148 -144l28 -28q-18 42 -128 152v16q0 22 24 32z" />
    <glyph glyph-name="a" unicode="a" 
d="M576 1608q43 0 76 -136h4q16 40 48 40t32 -32q0 -34 -52 -112q48 -164 108 -268l84 -208l48 4h4q32 0 32 -36l-4 -4q36 0 36 -32v-4q0 -36 -76 -36v-4q31 -112 48 -112q10 0 16 -32l-8 -24q7 -88 204 -352q59 -76 68 -128q0 -44 -60 -44q-4 -12 -24 -12q-62 6 -168 140
h-4q0 -21 -36 -28q-52 32 -52 68q-54 267 -84 312q-444 -96 -512 -120q-66 -248 -120 -336l4 -20q-8 -40 -40 -40h-12q-20 8 -20 40h-4q-38 -92 -52 -92h-20q-12 3 -20 28l32 88q-14 0 -24 44v36l36 156v4h-4l-12 -8h-24q-13 0 -24 40q7 31 44 60q-25 8 -28 20v12
q0 28 96 72q18 0 36 64q101 196 176 484q87 248 120 296q12 0 12 8l-4 24q12 28 36 28l64 -28q12 -15 12 -28v-24l-4 -28l12 -8h4l12 36q-44 151 -44 208q8 24 32 24zM620 1232q-64 -143 -88 -248q0 -31 -88 -264h4q122 62 268 120v4q-64 244 -92 388h-4zM548 652v-4h8
l208 44l-16 36zM924 332v-8l20 -72h4v16q0 17 -20 64h-4z" />
    <glyph glyph-name="b" unicode="b" 
d="M364 1552h20q24 -13 24 -44v-28q15 12 28 12q19 0 32 -28q294 28 400 28h176l136 12h36q51 0 92 -16l24 8q36 0 36 -68q0 -11 -44 -36q-15 -12 -28 -52q-359 -344 -576 -496v-4h8q180 30 312 72l200 24h4q22 0 40 -28l88 12q18 -8 20 -16v-24q0 -19 -132 -40
q-27 -55 -152 -176q-60 -118 -440 -536q-52 -32 -52 -80l-52 -16l-20 4q-20 -36 -44 -36q-33 0 -40 44l-32 -8q-28 8 -28 36l20 28l-8 24l-32 -12q-36 13 -36 40l32 48l8 20q-64 157 -64 312v56h-16q-20 0 -20 8q-37 -24 -52 -24h-24l-16 16v20l32 32v4q-24 0 -56 28
q0 76 56 76q34 16 88 28l-16 272v152l-56 -8l-16 16v20l12 16h-4l-148 -32q-24 8 -24 32q0 36 100 48q130 34 144 44l4 32h-4l-276 -44q-13 0 -28 28q0 45 160 64q8 9 152 28v12l-4 56q0 28 40 28zM1092 1432v-4h12l96 12v4h-20zM1068 1428v-4h20v4h-20zM500 1392l12 -24
l140 32v4h-8zM532 1256l-24 -360h4l588 448v4h-8q-387 -36 -520 -84zM404 1228v-164h4l4 80v84h-8zM408 1032l-4 -24l4 -60h4v84h-4zM524 600l36 -152h4q153 159 272 264h-4q-81 -6 -308 -112zM580 376v-12h4q116 93 340 344h-4q-130 -102 -340 -332zM480 188l-12 -16v-20h4
q16 7 16 28z" />
    <glyph glyph-name="c" unicode="c" horiz-adv-x="1024" 
d="M552 1700q12 0 96 -72l12 8h12l24 -24l28 28h4q24 -17 88 -112l224 -92l16 -20v-4q0 -10 -36 -12v-4l140 -72q56 -16 56 -44v-8q0 -32 -32 -32q-24 4 -252 112v-4q10 -35 52 -64q67 -63 80 -92v-4q-54 7 -212 108l-152 56q-44 0 -44 -28l8 -24q-86 -105 -160 -352
l-188 -528q271 170 680 328q177 51 208 84h20l16 -16v-12q-44 -108 -88 -108q-567 -319 -800 -468q-82 -61 -132 -116h4q420 300 780 488l32 8q32 -11 32 -40q0 -28 -140 -88q-282 -170 -732 -468l-44 -12h-8q-32 2 -32 32l20 28q-52 5 -52 52v28l4 20h-16l-40 16
q-21 0 -28 16v20q4 9 56 36q56 40 56 52v80q0 107 156 616q64 182 296 476q-60 61 -60 84l4 12l-112 28l-12 16q0 37 64 44l96 -24l-20 28v20q12 20 28 20zM752 1560v-4h4l8 8v4h-4zM368 1032l-4 -12v-4h4l4 12v4h-4zM376 824l-32 -96v-4h4l32 96v4h-4z" />
    <glyph glyph-name="d" unicode="d" 
d="M364 1528q14 0 36 -28q28 0 44 -32q150 20 236 20l404 -8q24 -8 24 -32l-16 -28q108 -29 108 -108l20 -40l28 -60v-8q0 -113 -116 -252q-177 -219 -288 -380q-114 -154 -128 -228q-69 -208 -84 -208l-16 -4h-4q-13 0 -28 12q-13 -14 -48 -124q-21 -20 -36 -20
q-22 0 -36 24v16l8 32l-16 -12h-8q-32 0 -32 32l12 48q-33 0 -44 124q-100 458 -100 704l4 320l-24 20q0 -14 -44 -20q-15 0 -40 24q-105 -20 -148 -20q-32 0 -32 32q0 19 40 36q0 42 124 56l148 32q17 80 52 80zM500 1288v-4l-4 -284q0 -281 32 -572q66 88 304 468l180 244
v4q-17 0 -96 56q-316 86 -416 88zM420 804v-28h4v28h-4zM496 260v-12h4v12h-4z" />
    <glyph glyph-name="e" unicode="e" 
d="M428 1583h16l16 -16v-4q0 -24 -36 -100h4q164 0 636 68h32q31 0 48 -20q-27 -32 -44 -32v-4q57 0 68 -20l68 4q20 -8 20 -24q0 -30 -168 -44q-133 -28 -184 -28h-16q-286 0 -452 -64q-40 -103 -40 -124q28 -9 28 -48v-4q0 -59 -76 -328h4q291 100 364 100h4q32 -3 32 -28
h60q16 -6 16 -28q0 -19 -56 -32q16 -17 16 -32v-4q0 -40 -88 -48q-207 -48 -360 -112q-52 -17 -52 -40l-92 -360q36 0 36 -28q45 0 204 60q182 64 444 64l48 20q17 -5 24 -20l20 4h4l16 -16v-20q0 -15 -64 -32v-4q81 -4 88 -28v-32q-36 -52 -148 -52q-357 -32 -504 -96
q-394 -116 -464 -128h-12q-68 0 -68 44q0 32 96 32l152 48v8h-4q-25 0 -156 -52h-4q-24 0 -28 32v12l4 4v4q-12 0 -12 8q151 76 204 76l-8 56l20 232v88l-48 -8q-32 3 -32 32q0 26 80 56l-4 4v16q0 11 20 40q0 119 168 620v4h-24l-12 12v12q2 14 64 60v12l-88 -20v4
q25 22 84 40v4l-108 -4h-140l-36 -4q-40 25 -40 44q0 40 92 40l284 4q77 120 84 120zM332 1211v-4h4l16 56q-13 0 -20 -52zM288 823v-8h4v8h-4zM284 807v-8h4v8h-4zM280 791v-8h4v8h-4zM276 779v-8h4v8h-4z" />
    <glyph glyph-name="f" unicode="f" horiz-adv-x="1056" 
d="M22 1718h12q30 0 68 -68v-8q24 32 44 32q40 -9 40 -72h112q522 27 604 64l68 4h152q48 0 48 -16l52 12h12l20 -20v-20q0 -23 -160 -56q-291 -100 -856 -208l-4 -12l-4 4h-12l64 -396q251 76 308 76l24 -16l36 8l20 -8q51 26 80 32q32 -5 32 -32v-16q-3 -16 -148 -76
q0 -44 -104 -64q-205 -73 -216 -84q44 -221 96 -360l76 -164v-12l-20 -20h-4q-30 0 -44 48h-4v-4q20 -124 56 -264v-24h-16q-22 0 -72 128q-10 36 -16 36q0 -20 -12 -20h-8q-9 0 -12 20h-4q0 -92 -20 -92h-4q-18 0 -36 168l-104 504l-208 -84q-16 6 -24 20v8q0 33 108 80
l-8 24q0 35 112 64v4q-43 0 -52 24v12q0 32 40 36l-76 468h-24l-16 16v28h-20q-21 0 -32 20v4q0 33 72 48v12l-8 8l-156 -12q-16 17 -16 32v12q0 30 148 44l-8 92q0 21 24 36zM172 1616h16l-4 20q-7 0 -12 -20zM340 1548v-4h8v4h-8z" />
    <glyph glyph-name="g" unicode="g" 
d="M851 1558q20 0 28 -32q-5 -21 -20 -32l-8 -28q90 0 276 48h12q20 -10 20 -32t-140 -56q-458 -144 -844 -280v-4q0 -129 56 -852q62 36 236 92l388 180v8q-9 0 -168 124q-140 44 -180 120q-92 41 -92 76v4q5 36 36 36l92 -12q-44 64 -44 84q12 40 44 40q52 0 420 -256
q131 -100 152 -100l80 -80q0 -38 80 -64l8 -12v-24q-24 -23 -24 -56q-15 -12 -28 -12q-19 0 -28 12q-79 -29 -148 -96q-71 -75 -504 -252l-212 -112h-4q-26 0 -32 36v12h-4l-60 -12h-8l-28 8v-24q-5 -56 -48 -56q0 -44 -36 -44q-32 11 -32 20v12l16 12l-8 48l-80 -28h-8
q-24 0 -36 28l-40 -4h-4q-20 10 -20 32q0 32 144 80q0 29 20 40q-40 240 -40 384v452q0 69 -8 108l-40 -4h-4l-16 16q0 30 60 52v36l-80 -4h-16q-100 3 -100 20v12q0 15 148 28l-4 4v12q0 14 16 32q-16 6 -24 20v4l12 12l24 -4q66 24 472 128q302 100 380 100zM671 1430v-4
h8v4h-8zM195 1294v-4h4q223 56 468 132v4h-8q-67 0 -464 -132zM183 1290v-4h8v4h-8zM111 1206v-12l12 12h-12zM1115 502l16 -12l4 4v4l-4 4h-16z" />
    <glyph glyph-name="h" unicode="h" 
d="M251 1666h16l8 -8v-8q-128 -379 -128 -436q-44 -266 -44 -396v-96h4l8 8q0 168 116 728l68 144l20 4q20 0 20 -24q22 32 40 32q33 0 40 -44q-196 -514 -196 -696q-5 0 -16 -128q264 48 520 152l76 532l-12 36q0 76 44 76q44 -7 44 -84h4q0 100 44 124q12 0 32 20h8
q36 0 36 -48l-64 -668l44 -24q40 -3 40 -36q0 -34 -96 -60q-20 -344 -28 -716q-10 -88 -28 -88h-12q-16 9 -16 20l12 100l-4 60v48l-4 20h-4q-26 -200 -92 -200h-12l-12 12v16q48 36 48 132q16 107 16 548q-18 0 -28 -108q-88 -364 -88 -544l-16 -20q-44 10 -44 88v40
q0 120 80 512l-332 -88q-30 -19 -160 -64l36 -444q-9 -102 -36 -112h-24q-14 8 -20 24l4 44v16q-21 -32 -36 -32q-40 0 -40 60v8q0 159 -48 408q-28 12 -28 36l4 20l-20 -4q-18 7 -28 24v8l8 28q-101 -40 -152 -48q-25 0 -32 36q0 41 236 96q0 405 112 644q77 262 112 320z
M107 594v-8l8 8v8zM155 146v-52h8v32l-4 20h-4z" />
    <glyph glyph-name="i" unicode="i" horiz-adv-x="455" 
d="M764 1752q17 -5 24 -20v-36l-16 -28q16 -6 16 -28q0 -13 -20 -40l48 8l16 -16v-20q0 -7 -100 -44l-232 -112h-8l-4 4q-83 -68 -96 -68q-32 0 -32 32l8 28h-4q-28 25 -28 44q21 39 132 124q269 172 284 172h12zM384 1256q64 -11 64 -52h4q0 31 32 52h8q36 0 36 -56
q8 0 8 -20q-288 -898 -288 -1040q-22 -112 -32 -124l-24 -8q-32 0 -32 72l12 112l-12 8h-4l-8 -56l8 -112q0 -25 -36 -32q-40 0 -40 92h-4q-18 -40 -44 -40q-32 10 -32 32q44 104 88 384q48 270 112 432q142 356 184 356z" />
    <glyph glyph-name="j" unicode="j" horiz-adv-x="1199" 
d="M1108 1996q36 0 44 -68l4 -4h4l24 4q28 -12 28 -36q0 -37 -108 -60l-188 -68q-29 0 -40 72v16q73 75 232 144zM960 1664h28q24 -14 24 -36l-36 -196l4 -4h8q28 123 36 204q18 16 36 16q36 0 36 -44v-4l-76 -424q0 -49 -56 -364l-64 -640q-11 -172 -68 -172h-4
q-27 0 -56 40q-126 86 -424 128q-97 7 -216 68q0 7 -20 8q-14 -24 -36 -24q-26 0 -32 36l8 24h-12q-33 0 -40 48q0 13 60 64q79 138 320 316q97 65 188 144h16l16 -16v-16l-72 -72q12 -4 12 -24q0 -24 -176 -208l-104 -116v-4h4q86 0 380 -60q130 332 136 472l160 840z
M208 288v-4l24 -8v12h-24zM800 164q0 -19 -32 -24l-16 4h-4v-4l60 -24h8l4 40l-8 8h-12z" />
    <glyph glyph-name="k" unicode="k" horiz-adv-x="1024" 
d="M40 1848q32 0 32 -76l4 -168h4l4 80l-4 88v4q5 36 36 36l24 -4l28 4q44 -14 44 -76l-4 -508l8 -364l440 456q110 103 168 116q41 36 64 36q22 28 44 28q27 0 32 -40l-44 -56h4q26 24 44 24q26 0 32 -36q0 -22 -92 -104q-444 -436 -592 -540v-4q275 -110 556 -308
q91 -51 204 -132q48 -27 48 -72q16 -18 16 -36v-8l-16 -16h-8q-24 0 -24 16h-8l4 -4v-8q-5 -36 -36 -36q-11 0 -104 96q-150 117 -368 196q-158 52 -336 96l4 -100v-36q-24 -240 -48 -240l16 -128q-8 -24 -32 -24q-40 0 -68 128q-9 0 -16 48v8q0 11 20 12
q-116 839 -116 1204l-4 84v164q0 196 20 196zM836 1332l-140 -136h4q140 128 140 136h-4zM116 812v-4l16 -136h8v4l-20 136h-4zM224 672v-8q0 -13 228 -80h4v4q-84 41 -232 84z" />
    <glyph glyph-name="l" unicode="l" horiz-adv-x="831" 
d="M292 1568q13 0 28 -28l-16 -252v-4h4q36 98 36 180v40q0 40 40 40q40 -11 40 -40q22 25 40 28q44 -11 44 -40l-28 -112q0 -44 -72 -216q-48 -194 -48 -656l-12 -148v-16q231 125 452 184h12q40 -5 40 -40t-96 -64l-184 -88v-4h4l196 56q32 -10 32 -36v-8q0 -54 -204 -124
q-162 -64 -436 -216l-20 -4q-23 0 -44 32q-6 -16 -28 -16q-35 0 -44 76q-21 0 -28 36v16q0 10 56 52q0 96 96 396l24 208q44 253 64 652q0 116 52 116zM276 540q-20 -236 -44 -236l-4 -20h4q36 11 36 36l12 204v16h-4zM116 88l-4 -24l24 20v4h-20z" />
    <glyph glyph-name="m" unicode="m" horiz-adv-x="1706" 
d="M1036 1504h16q24 -9 24 -56v-220q-28 -255 -40 -876q0 -239 -36 -284q-27 -27 -48 -64l-20 -4l-20 20l4 12q-64 548 -64 668l4 336l4 44l-188 -252q-56 -72 -80 -72l-48 12l-24 -24h-16q-32 0 -32 36l12 24q0 8 -184 156l-68 56l-4 -12q0 -107 -40 -368q40 -177 40 -216
v-44q-5 -36 -36 -36q-15 0 -44 36q0 -48 -12 -48h-4l-16 4l-4 -4h-4q-40 0 -40 156l-4 288v368q0 16 -28 44q-8 5 -8 48l-12 12v28q9 20 40 20v72q0 6 -52 36l-4 20v20l16 16h16l32 -12l32 12q30 0 48 -56l20 -12h4v28q0 32 40 36q32 -10 32 -64v-52q0 -20 96 -104
q152 -164 224 -260h4q174 203 256 352q27 40 48 40h4l28 -8v4q0 104 24 104h24l24 -28q0 16 28 32q8 36 36 36zM140 1264v-12q2 -8 20 -16v4zM940 1156v-20h4v20h-4zM936 1124v-20h4v20h-4zM952 248l12 -116h4l4 80v32z" />
    <glyph glyph-name="n" unicode="n" 
d="M60 1504q28 0 40 -56q37 0 68 -120q79 -183 300 -488q110 -166 240 -388h4l-20 312q8 344 16 396l-4 164v48q0 23 36 44q0 44 40 44q56 0 56 -120v-20q0 -97 -12 -224q44 -868 60 -960v-8q-7 -14 -24 -20q-34 0 -48 48h-4l-8 -16l52 -72v-24q-11 -20 -36 -20
q0 -24 -28 -24h-8q-24 0 -100 188q-294 382 -508 732h-4v-76q0 -329 32 -712l-24 -84l-20 -4h-8q-21 0 -40 124l-4 12h-4q0 -31 -16 -36h-8q-48 0 -56 188q-13 0 -20 608l28 376v32l-4 124q0 26 36 32zM164 1068v-16l24 -28v4l-20 40h-4zM88 1020l-4 -48v-200
q0 -133 20 -324h4v16q-12 266 -12 528l-4 28h-4zM712 304v-4l12 -40h4v8l-12 36h-4z" />
    <glyph glyph-name="o" unicode="o" 
d="M1056 1472q9 0 32 -28q38 0 56 -68l28 -28v-4h-4l-48 32q-104 -551 -228 -1040h4q121 27 180 52q16 0 28 -20v-12q0 -40 -156 -72l-76 -24q-44 -220 -116 -220q-20 0 -36 36h-4q-15 -12 -36 -12h-12l-8 8v48q-32 6 -32 12q-230 -60 -408 -128l-20 -4q-116 0 -116 28
l-4 20q0 21 32 32l36 -4h4q9 0 12 64q-8 0 -16 -36l-4 -4h-4l-12 12l4 20q-61 0 -80 -28h-12q-39 24 -40 32v8q0 39 132 60l-4 60q16 376 48 596l44 216h-4l-28 -8q-28 8 -28 32v12h-16q-32 0 -32 32q0 30 52 40v4h-8q-18 0 -36 -16l-8 40q0 33 224 88q7 18 24 28h20l20 -16
l612 152zM800 320h4q32 0 32 68l212 984q-31 0 -40 -80q-128 -672 -208 -972zM252 240q170 40 416 68q120 596 212 980q8 0 8 40h-4q-341 -116 -392 -140q-20 -102 -184 -720q-56 -208 -56 -228zM372 1068v-4h4l36 92h-4q-26 0 -36 -88zM300 1080q-40 -79 -68 -292l-8 -68
v-8h4l76 364v4h-4zM224 92l372 128v4q-320 -45 -364 -72zM748 124q10 -28 16 -28q24 56 24 76v4q-40 0 -40 -52z" />
    <glyph glyph-name="p" unicode="p" 
d="M512 1504h32q57 0 276 -40l44 -4q108 9 108 20q120 0 120 -44l4 -20q0 -32 -56 -56q0 -36 -48 -36q-81 -87 -268 -240q-299 -277 -512 -496q0 -125 -28 -212l-4 -64v-100l4 -140q-17 -10 -28 -60l-16 -12h-28q-17 10 -24 28l-4 -4h-4q-12 4 -12 24v4q0 22 20 32l-4 20
l24 392l-4 4h-8q-20 -376 -48 -376h-24q-24 0 -24 84v24q44 789 104 964l24 128h-20q-60 12 -60 52q0 30 100 44v16q0 35 28 52h16q24 -14 24 -44h4q173 60 292 60zM372 1408v-4h4l220 16v4l-68 4q-55 0 -156 -20zM328 1308v-4q0 -37 -44 -256l-12 -152h4l360 316
q160 112 188 112l24 -12q36 29 36 40l-32 4l-500 -48h-24zM140 984l-8 -64l12 12v52h-4zM116 792v-16h4v16h-4zM108 688v-32l-4 -44v-4h4l8 48v32h-8z" />
    <glyph glyph-name="q" unicode="q" 
d="M259 1602h8q36 0 36 -40l52 36h32l20 -16h116l36 -8l440 20q0 7 48 8h8q36 -5 36 -36q0 -21 -12 -36l28 4h12q40 -5 40 -40q0 -30 -72 -56q-16 0 -16 8l-32 -12q40 -126 40 -232v-68q0 -224 -240 -700l-8 -24q67 -71 164 -196q143 -90 264 -192v-24q-12 -20 -28 -20
l-88 44l-4 -4q0 -18 -40 -48h-8q-32 1 -324 296h-4q-28 -96 -152 -184q-32 -1 -32 -16l4 -32q-9 -36 -68 -36q-99 -80 -224 -80h-32q-50 0 -56 44q0 42 68 56v4q-123 49 -164 120q-100 234 -100 532q31 540 76 628l12 40l-12 32v4q0 21 40 48q89 176 136 176zM1007 1514v-4
h16v4h-16zM711 1454v-4h12q50 0 208 36l-8 12zM439 1486v-8l44 8v4h-32zM695 1450v-4h8v4h-8zM203 850v-4q0 -295 132 -568q56 -114 96 -144q123 107 148 196l32 56v4q-17 18 -152 100h-4l4 -28l-12 -8q-67 17 -96 68q-16 24 -16 44v8q0 31 40 36l20 -4q-20 30 -20 44
q7 40 64 40q47 -23 112 -72v4q-76 80 -76 104q8 36 36 36h4q28 0 156 -160l28 -28q75 161 120 380l8 200l-8 76v24q0 41 32 136h-4q-102 -19 -500 -56q-114 -189 -124 -316q-20 -62 -20 -168zM923 1370l16 -88h4v12l-16 76h-4zM943 1278v-12h4v12h-4zM191 1238v-8h4v8h-4z
M187 1226l-16 -48v-4h4l16 48v4h-4zM427 598q0 -7 56 -32h4v4l-44 28h-16zM127 330v-4q57 -204 100 -204l16 -12h4q-59 93 -116 220h-4z" />
    <glyph glyph-name="r" unicode="r" horiz-adv-x="1019" 
d="M697 1541h28q72 0 152 -48q24 0 52 -20q12 20 28 20q23 0 48 -40q46 0 56 -48q0 -93 -228 -248l-464 -380q348 -336 424 -336q118 -48 228 -160l60 -60v-24l-12 -16q52 -55 52 -72v-8l-12 -12h-4q-42 0 -268 188q-268 183 -432 244q-204 108 -224 108l4 -28
q0 -249 52 -528l4 -36q-12 -52 -44 -52q-38 0 -60 60h-4l4 -20v-12l-12 -12h-4q-33 0 -48 92q-48 192 -48 428v60q0 8 -36 8l-16 20v12q0 24 24 32l-4 28v8q1 9 32 32q0 84 44 612q-12 4 -12 24v16l4 4v4h-84q-44 0 -44 36v4q0 40 84 40q22 11 68 16q0 36 44 36l36 16h16
q24 -13 40 -60q76 0 392 60zM273 1317h-12l-40 4l-28 -504q39 41 68 56q304 296 332 356l116 160h-4q-303 -72 -432 -72zM793 1389q-27 -57 -104 -164v-4l184 148v4q0 14 -80 16zM129 1125v-20h4v20h-4zM125 1089l-20 -316v-24h4l20 312v28h-4zM293 725q10 -15 64 -48v4
l-52 48zM101 613l-4 -244l4 -4v-4l-4 -4l4 -20v-148q0 -52 28 -140h4q0 40 24 40q-52 259 -52 524h-4z" />
    <glyph glyph-name="s" unicode="s" horiz-adv-x="1024" 
d="M1126 1547h12q15 -7 20 -24q0 -37 -92 -44l-40 -12l4 -12l80 12q32 -15 32 -40q0 -46 -132 -68l-648 -172l-36 -8q222 -130 352 -236q79 -52 128 -68l172 4q56 -5 56 -48q0 -41 -96 -52h-56l-80 12l100 -88l44 8q56 -5 56 -56q100 -34 100 -52v-12l-16 -28l8 -12v-16
q0 -28 -28 -28h-20l-28 8q-156 -112 -488 -292l-352 -216q-41 -37 -96 -52l-44 8q-112 -52 -156 -52q-32 11 -32 36v20q0 56 88 68q108 0 124 40l56 48v4l-8 24q0 32 152 164q237 204 428 320v4q-97 65 -288 216q-88 47 -88 76q-324 139 -324 196v16q15 28 52 28v4l-8 12v16
q0 58 152 88l120 36v4h-12l-224 -24q-32 15 -32 40q0 33 112 44q378 44 724 116zM822 563h4l8 8h-4zM922 543h4l8 8h-4z" />
    <glyph glyph-name="t" unicode="t" horiz-adv-x="569" 
d="M1370 1714h4q36 -5 36 -36v-4q0 -54 -180 -96q-355 -142 -356 -148q-80 -337 -148 -812q-44 -368 -60 -652q0 -23 -52 -60q-10 -20 -32 -20v-56q-11 -48 -44 -48q-52 20 -52 76v36l16 56l-8 192v284q0 214 68 832l4 24l4 28h-4q-386 -164 -428 -164q-32 15 -32 40
q0 13 16 32q-40 5 -40 36q0 14 20 36h-4q-44 -12 -100 -16q-12 0 -28 28q0 41 168 76l244 68v4h-4l-268 -64q-24 0 -44 28v20q0 28 228 72q663 172 812 172l68 4l64 -4q45 7 132 36zM774 1394l-16 -88v-8h4l16 92v4h-4zM158 1234v-4h4l56 20v4h-4zM654 706
q-64 -302 -64 -516v-48l4 -68h4q27 434 60 628v4h-4z" />
    <glyph glyph-name="u" unicode="u" 
d="M1172 1600l20 -12l24 8h8q44 0 44 -64q0 -31 -48 -192q0 -71 -156 -580q-32 -85 -60 -280q32 -8 32 -32h12q44 0 44 -36q0 -35 -92 -48q16 -65 16 -120l-36 -28q0 -132 -56 -132q-36 5 -36 36l8 36h-4q-22 0 -32 20v20q0 12 32 72l-8 48v12q-393 -86 -596 -184
q-74 -28 -112 -64h-8l-16 4q-28 0 -28 -68l-20 -16h-24q-16 5 -16 36v28l-8 12v12q0 14 16 32v24h-36q-36 0 -36 44v12q5 17 80 64q52 752 120 1116q34 204 56 204l16 4q26 0 32 -36v-4q-52 -285 -100 -700v-20h4q36 388 124 736q2 16 12 16h12q19 0 36 -28q20 36 44 36h4
q36 -5 36 -36v-8q0 -15 -16 -36v-84q-28 -210 -124 -640l-80 -428h4q560 216 632 216v64q0 280 144 716q20 73 36 176q21 16 36 16h4l4 -4h4q0 60 52 60zM360 1356l-20 -132v-4h4l20 120v16h-4zM200 824v-36h4v36h-4zM196 784v-32h4v32h-4zM192 744v-32h4v32h-4zM188 700
v-20h4v20h-4zM780 432v-4h8v4h-8zM420 320v-4h4q145 56 352 108v4h-8q-67 0 -348 -108zM408 316v-4h8v4h-8z" />
    <glyph glyph-name="v" unicode="v" horiz-adv-x="1024" 
d="M112 1520h12q27 0 36 -32q44 0 44 -64v-60q0 -63 -28 -344q0 -177 108 -696h4l196 444q194 360 260 580q15 12 28 12h4q13 0 28 -12q24 78 32 80l12 12h12q22 0 32 -24v-16q0 -23 -16 -52l12 -36l-4 -28v-8h4q35 100 64 100q14 0 24 -32q0 -57 -100 -248
q-150 -354 -256 -568q-204 -343 -248 -392q-17 0 -60 -76l8 -40l-12 -8h-8l-4 4h-4q-8 -16 -24 -16q-21 0 -60 100q-23 0 -36 24v28l16 24q-121 359 -176 956q-12 61 -12 172v136l16 16h20q32 0 32 -232l24 -224h4l4 20q-12 144 -12 268v196q0 22 24 36z" />
    <glyph glyph-name="w" unicode="w" horiz-adv-x="1479" 
d="M1104 1636q40 -7 40 -36q0 -42 -100 -292q-84 -196 -188 -692q-84 -342 -132 -440l16 -104v-16q0 -28 -28 -28h-8l-12 8h-4q0 -30 -36 -36q-22 0 -60 52v12l8 32l-20 -4q-16 0 -28 20l-8 216v4q-20 21 -20 36l20 48l-8 140v28l-4 32l4 20l-8 248q-218 -390 -316 -532
l12 -52q0 -29 -84 -44q0 -26 -28 -44h-24q-56 47 -56 132q-32 153 -32 248v40q0 538 108 948q17 28 24 28h20q24 -14 24 -40h12l44 -20q22 0 32 -24v-8l-48 -220l-52 -304l-16 -304l-4 -20q151 176 196 304l132 252l20 4q28 -13 28 -32h4q0 38 56 56h4q20 -10 20 -32v-80
q16 -19 16 -32l-8 -44q13 0 24 -304l24 -184q77 110 188 456l188 476q31 128 68 128zM164 488v-8h4v8h-4zM692 380q4 -36 12 -36l32 116z" />
    <glyph glyph-name="x" unicode="x" horiz-adv-x="1024" 
d="M128 1388h8q48 0 160 -200l268 -280q240 272 336 404q0 48 40 48l4 4h4q23 0 44 -40q17 0 28 -48q0 -109 -320 -528l456 -552q28 -18 28 -40q0 -28 -20 -28v-8q100 -60 100 -92q0 -25 -32 -28l-104 72l-44 28q-15 -12 -36 -12h-20q-31 56 -108 56q-66 22 -244 236
l-120 180q-320 -368 -352 -424l-20 -4l-24 12q-89 -128 -124 -128q-28 12 -28 36q0 15 28 52l-8 32v16l4 20q-16 0 -32 24v28q0 17 340 408l76 96q-195 248 -324 296q-64 40 -64 68q8 36 36 36h4q93 -25 232 -156h4v4q-28 77 -144 164l-40 32h-4l8 -36l-12 -8h-8
q-52 61 -52 116v16q14 24 36 24h12v4q-16 18 -16 56q8 44 44 44zM756 964l-112 -148l4 -4h4l108 152h-4zM648 684v-8l28 -24v4z" />
    <glyph glyph-name="y" unicode="y" horiz-adv-x="1024" 
d="M880 1488h24q35 0 40 -52q0 -47 -148 -364q-156 -343 -156 -368v-4q24 -24 24 -40v-8l-8 -12l8 -24v-12l-20 -20h-12q-13 0 -28 12h-4l-120 -452q-16 -24 -36 -24h-16l-24 8q-51 -128 -108 -128q-68 11 -68 56q0 29 96 196q88 184 136 320l-8 24v8q2 44 12 52
q-157 191 -212 328q-99 159 -204 284q-48 19 -48 48v8l20 20h12l40 -16v4q-68 93 -68 112q0 32 32 32h12q28 -23 40 -48l20 4h8q44 -13 132 -140q30 -46 188 -372q73 -99 104 -124q208 499 208 528l4 48v4q14 24 36 24l32 -8q39 85 60 96z" />
    <glyph glyph-name="z" unicode="z" horiz-adv-x="1024" 
d="M1384 1572q24 0 28 -32q0 -37 -116 -48q-64 -14 -64 -36q-43 -75 -348 -516q-178 -254 -492 -668l-28 -40v-4l668 212q134 40 296 72q18 -8 20 -16l4 4h12q32 0 32 -32q0 -35 -108 -60q-788 -356 -864 -356q-56 -20 -204 -52q-18 5 -32 36q-28 0 -40 40l-24 -8
q-32 3 -32 28q0 59 32 80q0 11 44 52q365 553 540 772l292 412h-8q-33 0 -300 -84q-124 -48 -540 -112l-24 12l-88 -12q-40 0 -40 32v16q0 23 268 72l68 16v4h-8l-252 -28h-12q-32 3 -32 28q0 44 328 76q99 28 704 96q239 20 320 44zM932 1160q-127 -159 -324 -464v-4
q98 126 328 464v4h-4zM824 292v-4h8v4h-8zM232 76v-4h4q247 68 584 212v4h-4l-540 -172z" />
    <glyph glyph-name="braceleft" unicode="{" horiz-adv-x="1064" 
d="M276 1952q176 -19 612 -340q118 -61 132 -76v-32l-24 -24h-16q-215 56 -436 56q-145 32 -280 44q-72 23 -72 68q0 26 28 40h12l152 -36q26 -12 56 -12h72l48 -4q-111 60 -408 188q-12 15 -12 28v4q5 36 36 36l36 -8v24q0 37 64 44zM156 1216h4q22 0 192 -60l472 -80
q92 -31 92 -64q-19 -36 -44 -36h-60l4 -20v-16q0 -52 -160 -52q-63 0 -268 -48l-92 -4q-56 5 -56 52q-60 0 -60 40v4q0 41 60 48q0 8 -112 20l-12 -4v-4q0 -6 60 -40v-16l-8 -8q-120 24 -120 68l4 28q-28 12 -28 36l4 4l-4 12q-24 14 -24 36q0 36 124 100zM92 1116
q39 -56 224 -56l12 -4l64 8v4q-43 0 -232 72h-4q-16 0 -64 -24zM972 784q36 -5 36 -36v-12q-64 -91 -112 -184q-291 -337 -368 -404l-184 -148h-8q-28 0 -28 28v12q0 46 196 188l12 16h-4q-245 -192 -288 -192h-12q-32 3 -32 32v12q0 6 84 60q152 104 392 308h-4l-412 -276
q-39 -20 -56 -20q-18 7 -28 24v24q22 26 344 240q328 212 364 248l20 20h28q0 27 56 60h4z" />
    <glyph glyph-name="bar" unicode="|" horiz-adv-x="532" 
d="M66 1881q40 0 40 -84h4q0 64 44 64h8q36 -6 36 -36l4 4q92 0 92 -404v-244l8 -480l-8 -348q60 -274 84 -464q-8 -24 -32 -24q-42 0 -64 36v16l24 24l-28 152h-4v-64q-3 -32 -28 -32l-20 4q-4 -12 -24 -12h-20q-64 21 -64 36v12l16 12l36 -20l4 12q-52 236 -52 544
q-76 667 -76 936q-16 169 -16 340q21 20 36 20zM106 1789l8 -152h4v108l-8 44h-4zM194 1377v-28q5 -762 12 -844h4v256l4 284q-12 126 -16 332h-4z" />
    <glyph glyph-name="braceright" unicode="}" horiz-adv-x="1154" 
d="M792 1936h8l12 -12v-4q-24 -69 -252 -252l-20 -12l-24 -16v-4h8q170 103 216 140q0 48 60 48q40 -19 40 -48l-4 -24l36 12h12l12 -12v-32q-8 -28 -108 -80q-11 -25 -128 -68q-328 -169 -556 -312l-28 -8h-4l-20 20v20l28 36h-4q-15 -12 -28 -12h-12q-20 10 -20 32
q30 84 64 84q197 121 488 336q32 30 188 128zM920 1196h24q36 -5 36 -36q0 -96 -264 -132q-47 -16 -200 -44v-4h12q187 37 328 48q29 0 60 -20h44q72 -4 72 -28v-28q-11 -32 -96 -32q16 -17 16 -32q0 -30 -48 -44q-291 4 -480 20q-195 -19 -312 -48h-16l-20 20v20l16 20
q-84 0 -84 40v8q0 20 68 28l4 -4h4q40 0 372 100q371 80 448 108v24zM36 648h4l164 -84l32 8l4 -4q14 24 36 24q15 0 92 -52q64 0 592 -212q16 -19 16 -32q0 -9 -24 -36q134 -47 140 -68v-20q0 -35 -52 -40h-48q-44 0 -188 56q12 -15 12 -28v-16l-28 -28q92 -54 92 -88
q0 -16 -20 -28h-16q-118 44 -360 212q-399 216 -448 216q-28 12 -28 44q12 28 36 28h4l20 -4l-32 44v32q-36 14 -36 40q6 36 36 36z" />
    <glyph glyph-name="asciitilde" unicode="~" horiz-adv-x="1196" 
d="M1123 1564h8l12 -12v-4l-20 -48h4q54 24 104 36q32 24 64 24q13 0 28 -28q0 -80 -44 -80q-48 -19 -48 -36q-20 -36 -92 -84q-20 -11 -20 -52q-18 -31 -108 -100l-124 -172q26 0 32 -36q-7 -18 -24 -28h-4q-25 0 -116 56l-16 -4q-113 13 -280 164q0 7 -112 76l-48 52
q-114 -78 -228 -168h-20l-32 8q-48 -60 -68 -60q-16 6 -16 12v16q70 78 84 140q206 217 292 240q14 24 52 36q37 -3 84 -44l300 -132l44 12q22 28 44 28q20 -1 20 -8q96 56 248 196zM667 1296v-4h8v4h-8z" />
    <glyph glyph-name="Adieresis" unicode="&#xc4;" horiz-adv-x="1366" 
 />
    <glyph glyph-name="Aring" unicode="&#xc5;" horiz-adv-x="1366" 
 />
    <glyph glyph-name="Ccedilla" unicode="&#xc7;" horiz-adv-x="1479" 
 />
    <glyph glyph-name="Eacute" unicode="&#xc9;" horiz-adv-x="1366" 
 />
    <glyph glyph-name="Ntilde" unicode="&#xd1;" horiz-adv-x="1479" 
 />
    <glyph glyph-name="Odieresis" unicode="&#xd6;" horiz-adv-x="1593" 
 />
    <glyph glyph-name="Udieresis" unicode="&#xdc;" horiz-adv-x="1479" 
 />
    <glyph glyph-name="aacute" unicode="&#xe1;" 
 />
    <glyph glyph-name="agrave" unicode="&#xe0;" 
 />
    <glyph glyph-name="acircumflex" unicode="&#xe2;" 
 />
    <glyph glyph-name="adieresis" unicode="&#xe4;" 
 />
    <glyph glyph-name="atilde" unicode="&#xe3;" 
 />
    <glyph glyph-name="aring" unicode="&#xe5;" 
 />
    <glyph glyph-name="ccedilla" unicode="&#xe7;" horiz-adv-x="1024" 
 />
    <glyph glyph-name="eacute" unicode="&#xe9;" 
 />
    <glyph glyph-name="egrave" unicode="&#xe8;" 
 />
    <glyph glyph-name="ecircumflex" unicode="&#xea;" 
 />
    <glyph glyph-name="edieresis" unicode="&#xeb;" 
 />
    <glyph glyph-name="iacute" unicode="&#xed;" horiz-adv-x="569" 
 />
    <glyph glyph-name="igrave" unicode="&#xec;" horiz-adv-x="569" 
 />
    <glyph glyph-name="icircumflex" unicode="&#xee;" horiz-adv-x="569" 
 />
    <glyph glyph-name="idieresis" unicode="&#xef;" horiz-adv-x="569" 
 />
    <glyph glyph-name="ntilde" unicode="&#xf1;" 
 />
    <glyph glyph-name="oacute" unicode="&#xf3;" 
 />
    <glyph glyph-name="ograve" unicode="&#xf2;" 
 />
    <glyph glyph-name="ocircumflex" unicode="&#xf4;" 
 />
    <glyph glyph-name="odieresis" unicode="&#xf6;" 
 />
    <glyph glyph-name="otilde" unicode="&#xf5;" 
 />
    <glyph glyph-name="uacute" unicode="&#xfa;" 
 />
    <glyph glyph-name="ugrave" unicode="&#xf9;" 
 />
    <glyph glyph-name="ucircumflex" unicode="&#xfb;" 
 />
    <glyph glyph-name="udieresis" unicode="&#xfc;" 
 />
    <glyph glyph-name="dagger" unicode="&#x2020;" 
 />
    <glyph glyph-name="degree" unicode="&#xb0;" horiz-adv-x="819" 
 />
    <glyph glyph-name="cent" unicode="&#xa2;" 
d="M287 1140q55 0 80 -284h4q175 124 272 124h8q40 -5 40 -36q-11 -32 -36 -32l8 -24v-8q0 -34 -120 -88l-152 -100l40 -248q43 28 84 28q148 80 184 80q18 -7 28 -24v-4q0 -27 -56 -52q0 -17 -100 -64l-112 -72q28 -104 68 -196l12 -68v-8l-4 -4l8 -24q-8 -25 -20 -28h-12
q-35 0 -72 136q-32 67 -44 128l-4 4q0 12 -8 12q-160 -98 -260 -104q-108 15 -108 108v8q7 118 132 332q46 62 116 132v4q-72 220 -108 296q10 36 36 36q30 0 64 -64l4 -16h4v4q-8 13 -16 76q11 40 40 40zM263 1016v-8h4v8h-4zM167 432v-4q0 -16 112 -16h8q60 4 60 16
l-40 196q-101 -92 -124 -168zM147 356l-12 -16v-12h4l60 16v4z" />
    <glyph glyph-name="sterling" unicode="&#xa3;" horiz-adv-x="696" 
d="M-324 1243l27 -6l41 3q102 0 177 -86q42 -33 42 -44v-6q0 -23 -45 -29q-3 -9 -17 -9h-12l3 -15v-12q0 -23 -24 -23q-18 0 -29 38l-107 62l-26 24h-24q-106 0 -139 -101q-26 -52 -26 -115v-18q35 -81 59 -174q12 -17 29 -109q56 21 201 41q19 0 21 -23v-6q0 -8 -15 -30
q0 -26 -74 -26l-121 -36v-35l15 -18v-15q0 -39 -118 -189l-18 -29v-3q13 6 47 6h21q172 -20 263 -65l68 -27q224 35 224 77l11 9h12q15 0 15 -30q21 21 33 21q26 -6 26 -29q0 -12 -35 -57q0 -14 -45 -59q-43 -43 -221 -82l-38 -3q-41 4 -41 38q-26 38 -183 103l-83 9
l-263 -138q-23 -27 -41 -27h-3q-36 3 -36 30q0 8 42 47q0 17 50 79q0 26 65 71q110 210 130 284h-3l-112 -33h-6q-33 31 -33 45q0 39 148 70l6 6q0 45 -53 234h-3v-6l6 -33l-9 -6h-9q-32 41 -32 107l8 56l-3 29q17 17 45 89q66 98 100 121q58 40 112 53z" />
    <glyph glyph-name="section" unicode="&#xa7;" 
 />
    <glyph glyph-name="bullet" unicode="&#x2022;" horiz-adv-x="717" 
 />
    <glyph glyph-name="paragraph" unicode="&#xb6;" horiz-adv-x="1100" 
 />
    <glyph glyph-name="germandbls" unicode="&#xdf;" horiz-adv-x="1251" 
 />
    <glyph glyph-name="registered" unicode="&#xae;" horiz-adv-x="1509" 
d="M1060 1912h44q163 0 268 -144q59 -55 64 -88v-4l-20 -20h-4q-14 0 -32 16h-4q118 -93 268 -272q116 -232 116 -252q60 -270 60 -304q0 -93 -68 -256l-64 -48q-67 -260 -136 -352q-87 -128 -180 -128q-256 -17 -256 -32q-50 -28 -72 -28h-44q-417 0 -736 232
q-77 58 -144 168q-120 177 -120 284q11 406 48 444q49 167 300 464q160 177 200 184q204 128 384 128q0 7 128 8zM1056 1836v-4q56 0 236 -92v4q-71 92 -224 92h-12zM884 1748l-12 -20h40v8zM960 1744l4 -12h16q183 -17 228 -48h4v4q-111 60 -164 60h-80l-4 -4h-4zM200 876
v-44q0 -178 108 -336l72 -76l32 12q22 0 32 -20v-4l-12 -16v-8q98 -89 256 -132q120 -60 340 -60l32 -4q316 55 316 92q13 0 100 92q76 56 144 340q20 53 20 100q-23 304 -64 384l-24 52h-20q-20 9 -20 40v24q-133 192 -312 292q-121 48 -228 52q-162 0 -480 -120
q-74 -51 -132 -144q-75 -131 -124 -304q-36 -113 -36 -212zM988 1436h20q46 0 136 -36l24 8q22 0 36 -36l-8 -28l4 -20q-10 -62 -144 -212q0 -12 -156 -200v-8l400 -252l144 -8l28 8q18 0 36 -32v-8q0 -22 -20 -32h-32l-28 -4v-4q64 -15 64 -56q-13 -36 -40 -36l-88 20
l-12 -12h-12l-624 236l36 -228v-12q-14 -24 -36 -24h-12l-4 4h-4l8 -80q-8 -36 -36 -36h-4q-67 0 -112 408h-12q-30 0 -36 40q20 45 20 64l16 8v72l12 208q-20 -12 -40 -12q-32 10 -32 36v8q0 22 16 28l-4 20q0 33 72 60q17 64 48 64h4l64 -12q162 96 308 96zM684 1204v-212
h4q128 116 260 296l32 48v4q-252 -97 -296 -136zM832 840l196 -112h4v4l-188 116h-4zM100 748v-12l16 -140l-16 -32q81 -149 176 -256q78 -58 128 -84v4q-204 202 -212 264q-88 216 -88 256h-4zM1248 140v-8h16q201 0 240 152h-4q-102 -104 -172 -120q-80 -16 -80 -24z
M1192 136v-4h8v4h-8zM1172 132v-4h8v4h-8z" />
    <glyph glyph-name="copyright" unicode="&#xa9;" horiz-adv-x="1509" 
d="M1060 1912h44q163 0 268 -144q59 -55 64 -88v-4l-20 -20h-4q-14 0 -32 16h-4q118 -93 268 -272q116 -232 116 -252q60 -270 60 -304q0 -93 -68 -256l-64 -48q-67 -260 -136 -352q-87 -128 -180 -128q-256 -17 -256 -32q-50 -28 -72 -28h-44q-417 0 -736 232
q-77 58 -144 168q-120 177 -120 284q11 406 48 444q49 167 300 464q160 177 200 184q204 128 384 128q0 7 128 8zM1056 1836v-4q56 0 236 -92v4q-71 92 -224 92h-12zM884 1748l-12 -20h40v8zM960 1744l4 -12h16q183 -17 228 -48h4v4q-111 60 -164 60h-80l-4 -4h-4zM200 876
v-44q0 -178 108 -336l72 -76l32 12q22 0 32 -20v-4l-12 -16v-8q98 -89 256 -132q120 -60 340 -60l32 -4q316 55 316 92q13 0 100 92q76 56 144 340q20 53 20 100q-23 304 -64 384l-24 52h-20q-20 9 -20 40v24q-133 192 -312 292q-121 48 -228 52q-162 0 -480 -120
q-74 -51 -132 -144q-75 -131 -124 -304q-36 -113 -36 -212zM1008 1500h48q44 -7 44 -44v-12l-36 -32q0 -14 -88 -76q0 -8 -156 -120l-80 -68q19 -11 24 -84v-64q0 -150 48 -280q106 24 340 44h24q107 0 120 -56q0 -49 -144 -60q0 -24 -68 -24h-20q0 -56 -72 -56l-272 -68
q-16 -44 -44 -44h-4l-68 36q-58 0 -76 52q-40 12 -40 44q0 17 32 44v8l-144 244l-12 48v4q0 36 44 36v4q-16 24 -16 56q0 66 76 140q20 46 48 56l108 104q239 168 384 168zM576 980l12 -96h4v8l-4 92v16q-7 0 -12 -20zM700 824v-56l16 -4v4l-12 56h-4zM100 748v-12l16 -140
l-16 -32q81 -149 176 -256q78 -58 128 -84v4q-204 202 -212 264q-88 216 -88 256h-4zM1248 140v-8h16q201 0 240 152h-4q-102 -104 -172 -120q-80 -16 -80 -24zM1192 136v-4h8v4h-8zM1172 132v-4h8v4h-8z" />
    <glyph glyph-name="trademark" unicode="&#x2122;" horiz-adv-x="2048" 
d="M840 1893q36 0 36 -56v-52q0 -51 -36 -394v-13q0 -42 20 -119q-9 -52 -17 -52l-20 -7q-40 0 -49 128l-6 66v16l26 283q-102 -124 -102 -145q0 -20 -33 -26q-39 0 -49 105l-16 40h-7v-4q-52 -289 -52 -420q-11 -33 -33 -33q-26 0 -26 109q3 81 39 393h-3q-78 -26 -217 -39
q-33 0 -33 -26q-52 -213 -52 -256l6 -26q0 -27 -33 -30q-30 0 -36 85q0 20 50 233v4q-99 -20 -165 -20h-3q-31 0 -36 30v3q0 15 23 29l-13 23q7 33 33 33h13q103 0 361 26h56l16 -16l3 3h4l16 -3l-3 3v7q0 23 33 33q18 32 42 32h4q53 0 88 -187l3 -3h4l118 220q10 0 29 23
h17z" />
    <glyph glyph-name="acute" unicode="&#xb4;" horiz-adv-x="682" 
d="M421 1893q16 0 28 -20v-16q0 -23 -20 -60v-4h4q60 92 84 92h8q18 -7 28 -24v-24h4q34 36 68 36q41 0 52 -60q-1 -33 -200 -188q-207 -171 -348 -300q-30 -44 -60 -44q-26 0 -32 36l168 232q38 49 196 340z" />
    <glyph glyph-name="dieresis" unicode="&#xa8;" horiz-adv-x="682" 
 />
    <glyph glyph-name="notequal" unicode="&#x2260;" horiz-adv-x="1124" 
 />
    <glyph glyph-name="AE" unicode="&#xc6;" horiz-adv-x="2048" 
 />
    <glyph glyph-name="Oslash" unicode="&#xd8;" horiz-adv-x="1593" 
 />
    <glyph glyph-name="infinity" unicode="&#x221e;" horiz-adv-x="1460" 
 />
    <glyph glyph-name="plusminus" unicode="&#xb1;" horiz-adv-x="1124" 
 />
    <glyph glyph-name="lessequal" unicode="&#x2264;" horiz-adv-x="1124" 
 />
    <glyph glyph-name="greaterequal" unicode="&#x2265;" horiz-adv-x="1124" 
 />
    <glyph glyph-name="yen" unicode="&#xa5;" 
 />
    <glyph glyph-name="mu" unicode="&#xb5;" horiz-adv-x="1180" 
 />
    <glyph glyph-name="partialdiff" unicode="&#x2202;" horiz-adv-x="1012" 
 />
    <glyph glyph-name="summation" unicode="&#x2211;" horiz-adv-x="1460" 
 />
    <glyph glyph-name="product" unicode="&#x220f;" horiz-adv-x="1686" 
 />
    <glyph glyph-name="glyph155" horiz-adv-x="1124" 
 />
    <glyph glyph-name="integral" unicode="&#x222b;" horiz-adv-x="561" 
 />
    <glyph glyph-name="ordfeminine" unicode="&#xaa;" horiz-adv-x="758" 
 />
    <glyph glyph-name="ordmasculine" unicode="&#xba;" horiz-adv-x="748" 
 />
    <glyph glyph-name="Omega" unicode="&#x2126;" horiz-adv-x="1573" 
 />
    <glyph glyph-name="ae" unicode="&#xe6;" horiz-adv-x="1821" 
 />
    <glyph glyph-name="oslash" unicode="&#xf8;" horiz-adv-x="1251" 
 />
    <glyph glyph-name="questiondown" unicode="&#xbf;" horiz-adv-x="1251" 
 />
    <glyph glyph-name="exclamdown" unicode="&#xa1;" horiz-adv-x="682" 
 />
    <glyph glyph-name="logicalnot" unicode="&#xac;" horiz-adv-x="1196" 
 />
    <glyph glyph-name="radical" unicode="&#x221a;" horiz-adv-x="1124" 
 />
    <glyph glyph-name="florin" unicode="&#x192;" 
 />
    <glyph glyph-name="approxequal" unicode="&#x2248;" horiz-adv-x="1124" 
 />
    <glyph glyph-name="Delta" unicode="&#x2206;" horiz-adv-x="1253" 
 />
    <glyph glyph-name="guillemotleft" unicode="&#xab;" 
 />
    <glyph glyph-name="guillemotright" unicode="&#xbb;" 
 />
    <glyph glyph-name="ellipsis" unicode="&#x2026;" horiz-adv-x="2048" 
 />
    <glyph glyph-name="Agrave" unicode="&#xc0;" horiz-adv-x="1366" 
 />
    <glyph glyph-name="Atilde" unicode="&#xc3;" horiz-adv-x="1366" 
 />
    <glyph glyph-name="Otilde" unicode="&#xd5;" horiz-adv-x="1593" 
 />
    <glyph glyph-name="OE" unicode="&#x152;" horiz-adv-x="2048" 
 />
    <glyph glyph-name="oe" unicode="&#x153;" horiz-adv-x="1933" 
 />
    <glyph glyph-name="endash" unicode="&#x2013;" 
 />
    <glyph glyph-name="emdash" unicode="&#x2014;" horiz-adv-x="2048" 
 />
    <glyph glyph-name="quotedblleft" unicode="&#x201c;" horiz-adv-x="682" 
d="M505 1829q34 0 52 -72q0 -12 -24 -12q-20 -75 -28 -160q0 -95 28 -228q8 0 8 -20v-8l-24 -24h-12q-60 0 -112 184q-16 65 -16 116v72q0 97 52 112h8l28 -8v12q0 31 40 36zM137 1801h4q40 -5 40 -36q-20 -91 -20 -220q0 -172 48 -208q16 -6 16 -28t-24 -36h-28
q-20 7 -64 68q-80 54 -80 232v48q5 140 40 140h32q3 40 36 40z" />
    <glyph glyph-name="quotedblright" unicode="&#x201d;" horiz-adv-x="682" 
d="M601 1870q26 0 40 -52q21 0 24 -40q0 -92 -112 -332q-71 -111 -124 -124q-20 -36 -52 -36t-32 76q96 104 96 116q76 151 76 320q-10 0 -16 32q0 16 24 32h20q20 -1 20 -8q24 16 36 16zM77 1822h12q28 -13 28 -44h4q8 40 40 40q48 0 48 -132v-172q0 -201 -84 -240h-4
q-28 0 -28 28h-32q-24 14 -24 36q44 101 44 224l-44 224q13 36 40 36z" />
    <glyph glyph-name="quoteleft" unicode="&#x2018;" horiz-adv-x="455" 
d="M85 1832l24 -4l36 4q28 -10 28 -40l20 4q26 0 32 -36q-72 -149 -72 -164q55 -195 184 -280q12 -15 12 -28q0 -26 -28 -40h-28l-40 -12q-162 0 -204 236l-4 96v120l4 24l-4 20v28q0 64 40 72z" />
    <glyph glyph-name="quoteright" unicode="&#x2019;" horiz-adv-x="455" 
d="M231 1802q17 0 44 -24h4q15 12 28 12q31 0 88 -88l8 -28v-40q0 -158 -224 -352q-98 -76 -120 -76q-36 5 -36 36v8q0 16 28 44q102 115 156 420v4l-8 44q0 28 32 40zM311 1586l-32 -72v-4h4l32 72v4h-4z" />
    <glyph glyph-name="divide" unicode="&#xf7;" horiz-adv-x="1124" 
 />
    <glyph glyph-name="lozenge" unicode="&#x25ca;" horiz-adv-x="1012" 
 />
    <glyph glyph-name="ydieresis" unicode="&#xff;" horiz-adv-x="1024" 
 />
    <glyph glyph-name="Ydieresis" unicode="&#x178;" horiz-adv-x="1366" 
 />
    <glyph glyph-name="fraction" unicode="&#x2044;" horiz-adv-x="1041" 
d="M980 1904h24q7 0 16 -24l-4 -20q12 -19 12 -72v-12q-28 -92 -124 -252q28 -10 28 -40q-42 -190 -180 -440l-520 -888q-90 -128 -128 -128l-28 8q0 -29 -40 -36q-32 0 -36 40q0 56 204 496q208 404 304 568q96 230 296 572q55 97 160 220zM672 1076l-8 -16v-4h4l8 16v4h-4
zM652 1044l-4 -12v-4h4l4 12v4h-4zM384 616l-220 -376l-48 -108q127 181 280 468v4l-4 12h-8z" />
    <glyph glyph-name="fraction" unicode="&#x2215;" horiz-adv-x="1041" 
d="M980 1904h24q7 0 16 -24l-4 -20q12 -19 12 -72v-12q-28 -92 -124 -252q28 -10 28 -40q-42 -190 -180 -440l-520 -888q-90 -128 -128 -128l-28 8q0 -29 -40 -36q-32 0 -36 40q0 56 204 496q208 404 304 568q96 230 296 572q55 97 160 220zM672 1076l-8 -16v-4h4l8 16v4h-4
zM652 1044l-4 -12v-4h4l4 12v4h-4zM384 616l-220 -376l-48 -108q127 181 280 468v4l-4 12h-8z" />
    <glyph glyph-name="Euro" unicode="&#x20ac;" 
 />
    <glyph glyph-name="guilsinglleft" unicode="&#x2039;" horiz-adv-x="682" 
 />
    <glyph glyph-name="guilsinglright" unicode="&#x203a;" horiz-adv-x="682" 
 />
    <glyph glyph-name="uniF001" unicode="&#xf001;" horiz-adv-x="1024" 
 />
    <glyph glyph-name="uniF001" unicode="&#xfb01;" horiz-adv-x="1024" 
 />
    <glyph glyph-name="uniF002" unicode="&#xf002;" horiz-adv-x="1024" 
 />
    <glyph glyph-name="uniF002" unicode="&#xfb02;" horiz-adv-x="1024" 
 />
    <glyph glyph-name="daggerdbl" unicode="&#x2021;" 
 />
    <glyph glyph-name="periodcentered" unicode="&#xb7;" horiz-adv-x="569" 
 />
    <glyph glyph-name="periodcentered" unicode="&#x2219;" horiz-adv-x="569" 
 />
    <glyph glyph-name="quotesinglbase" unicode="&#x201a;" horiz-adv-x="455" 
 />
    <glyph glyph-name="quotedblbase" unicode="&#x201e;" horiz-adv-x="682" 
 />
    <glyph glyph-name="perthousand" unicode="&#x2030;" horiz-adv-x="2048" 
 />
    <glyph glyph-name="Acircumflex" unicode="&#xc2;" horiz-adv-x="1366" 
 />
    <glyph glyph-name="Ecircumflex" unicode="&#xca;" horiz-adv-x="1366" 
 />
    <glyph glyph-name="Aacute" unicode="&#xc1;" horiz-adv-x="1366" 
 />
    <glyph glyph-name="Edieresis" unicode="&#xcb;" horiz-adv-x="1366" 
 />
    <glyph glyph-name="Egrave" unicode="&#xc8;" horiz-adv-x="1366" 
 />
    <glyph glyph-name="Iacute" unicode="&#xcd;" horiz-adv-x="569" 
 />
    <glyph glyph-name="Icircumflex" unicode="&#xce;" horiz-adv-x="569" 
 />
    <glyph glyph-name="Idieresis" unicode="&#xcf;" horiz-adv-x="569" 
 />
    <glyph glyph-name="Igrave" unicode="&#xcc;" horiz-adv-x="569" 
 />
    <glyph glyph-name="Oacute" unicode="&#xd3;" horiz-adv-x="1593" 
 />
    <glyph glyph-name="Ocircumflex" unicode="&#xd4;" horiz-adv-x="1593" 
 />
    <glyph glyph-name="Ograve" unicode="&#xd2;" horiz-adv-x="1593" 
 />
    <glyph glyph-name="Uacute" unicode="&#xda;" horiz-adv-x="1479" 
 />
    <glyph glyph-name="Ucircumflex" unicode="&#xdb;" horiz-adv-x="1479" 
 />
    <glyph glyph-name="Ugrave" unicode="&#xd9;" horiz-adv-x="1479" 
 />
    <glyph glyph-name="dotlessi" unicode="&#x131;" horiz-adv-x="569" 
 />
    <glyph glyph-name="circumflex" unicode="&#x2c6;" horiz-adv-x="682" 
 />
    <glyph glyph-name="tilde" unicode="&#x2dc;" horiz-adv-x="682" 
 />
    <glyph glyph-name="uni02C9" unicode="&#x2c9;" horiz-adv-x="682" 
 />
    <glyph glyph-name="breve" unicode="&#x2d8;" horiz-adv-x="682" 
 />
    <glyph glyph-name="dotaccent" unicode="&#x2d9;" horiz-adv-x="682" 
 />
    <glyph glyph-name="ring" unicode="&#x2da;" horiz-adv-x="682" 
 />
    <glyph glyph-name="cedilla" unicode="&#xb8;" horiz-adv-x="682" 
 />
    <glyph glyph-name="hungarumlaut" unicode="&#x2dd;" horiz-adv-x="682" 
 />
    <glyph glyph-name="ogonek" unicode="&#x2db;" horiz-adv-x="682" 
 />
    <glyph glyph-name="caron" unicode="&#x2c7;" horiz-adv-x="682" 
 />
    <glyph glyph-name="Lslash" unicode="&#x141;" 
 />
    <glyph glyph-name="lslash" unicode="&#x142;" horiz-adv-x="455" 
 />
    <glyph glyph-name="Scaron" unicode="&#x160;" horiz-adv-x="1366" 
 />
    <glyph glyph-name="scaron" unicode="&#x161;" horiz-adv-x="1024" 
 />
    <glyph glyph-name="Zcaron" unicode="&#x17d;" horiz-adv-x="1251" 
 />
    <glyph glyph-name="zcaron" unicode="&#x17e;" horiz-adv-x="1024" 
 />
    <glyph glyph-name="brokenbar" unicode="&#xa6;" horiz-adv-x="532" 
 />
    <glyph glyph-name="Eth" unicode="&#xd0;" horiz-adv-x="1479" 
 />
    <glyph glyph-name="eth" unicode="&#xf0;" 
 />
    <glyph glyph-name="Yacute" unicode="&#xdd;" horiz-adv-x="1366" 
 />
    <glyph glyph-name="yacute" unicode="&#xfd;" horiz-adv-x="1024" 
 />
    <glyph glyph-name="Thorn" unicode="&#xde;" horiz-adv-x="1366" 
 />
    <glyph glyph-name="thorn" unicode="&#xfe;" 
 />
    <glyph glyph-name="minus" unicode="&#x2212;" horiz-adv-x="1196" 
 />
    <glyph glyph-name="multiply" unicode="&#xd7;" horiz-adv-x="1196" 
 />
    <glyph glyph-name="uni00B9" unicode="&#xb9;" horiz-adv-x="682" 
 />
    <glyph glyph-name="uni00B2" unicode="&#xb2;" horiz-adv-x="682" 
 />
    <glyph glyph-name="uni00B3" unicode="&#xb3;" horiz-adv-x="682" 
 />
    <glyph glyph-name="onehalf" unicode="&#xbd;" horiz-adv-x="1708" 
 />
    <glyph glyph-name="onequarter" unicode="&#xbc;" horiz-adv-x="1708" 
 />
    <glyph glyph-name="threequarters" unicode="&#xbe;" horiz-adv-x="1708" 
 />
    <glyph glyph-name="franc" unicode="&#x20a3;" 
 />
    <glyph glyph-name="Gbreve" unicode="&#x11e;" horiz-adv-x="1593" 
 />
    <glyph glyph-name="gbreve" unicode="&#x11f;" 
 />
    <glyph glyph-name="Idotaccent" unicode="&#x130;" horiz-adv-x="569" 
 />
    <glyph glyph-name="Scedilla" unicode="&#x15e;" horiz-adv-x="1366" 
 />
    <glyph glyph-name="scedilla" unicode="&#x15f;" horiz-adv-x="1024" 
 />
    <glyph glyph-name="Cacute" unicode="&#x106;" horiz-adv-x="1479" 
 />
    <glyph glyph-name="cacute" unicode="&#x107;" horiz-adv-x="1024" 
 />
    <glyph glyph-name="Ccaron" unicode="&#x10c;" horiz-adv-x="1479" 
 />
    <glyph glyph-name="ccaron" unicode="&#x10d;" horiz-adv-x="1024" 
 />
    <glyph glyph-name="dcroat" unicode="&#x111;" 
 />
    <glyph glyph-name="currency" unicode="&#xa4;" 
 />
    <glyph glyph-name="macron" unicode="&#xaf;" horiz-adv-x="1131" 
 />
    <glyph glyph-name="Amacron" unicode="&#x100;" horiz-adv-x="1366" 
 />
    <glyph glyph-name="amacron" unicode="&#x101;" 
 />
    <glyph glyph-name="Abreve" unicode="&#x102;" horiz-adv-x="1366" 
 />
    <glyph glyph-name="abreve" unicode="&#x103;" 
 />
    <glyph glyph-name="Aogonek" unicode="&#x104;" horiz-adv-x="1366" 
 />
    <glyph glyph-name="aogonek" unicode="&#x105;" 
 />
    <glyph glyph-name="Ccircumflex" unicode="&#x108;" horiz-adv-x="1479" 
 />
    <glyph glyph-name="ccircumflex" unicode="&#x109;" horiz-adv-x="1024" 
 />
    <glyph glyph-name="Cdotaccent" unicode="&#x10a;" horiz-adv-x="1479" 
 />
    <glyph glyph-name="cdotaccent" unicode="&#x10b;" horiz-adv-x="1024" 
 />
    <glyph glyph-name="Dcaron" unicode="&#x10e;" horiz-adv-x="1479" 
 />
    <glyph glyph-name="dcaron" unicode="&#x10f;" horiz-adv-x="1259" 
 />
    <glyph glyph-name="Dcroat" unicode="&#x110;" horiz-adv-x="1479" 
 />
    <glyph glyph-name="Emacron" unicode="&#x112;" horiz-adv-x="1366" 
 />
    <glyph glyph-name="emacron" unicode="&#x113;" 
 />
    <glyph glyph-name="Ebreve" unicode="&#x114;" horiz-adv-x="1366" 
 />
    <glyph glyph-name="ebreve" unicode="&#x115;" 
 />
    <glyph glyph-name="Edotaccent" unicode="&#x116;" horiz-adv-x="1366" 
 />
    <glyph glyph-name="edotaccent" unicode="&#x117;" 
 />
    <glyph glyph-name="Eogonek" unicode="&#x118;" horiz-adv-x="1366" 
 />
    <glyph glyph-name="eogonek" unicode="&#x119;" 
 />
    <glyph glyph-name="Ecaron" unicode="&#x11a;" horiz-adv-x="1366" 
 />
    <glyph glyph-name="ecaron" unicode="&#x11b;" 
 />
    <glyph glyph-name="Gcircumflex" unicode="&#x11c;" horiz-adv-x="1593" 
 />
    <glyph glyph-name="gcircumflex" unicode="&#x11d;" 
 />
    <glyph glyph-name="Gdotaccent" unicode="&#x120;" horiz-adv-x="1593" 
 />
    <glyph glyph-name="gdotaccent" unicode="&#x121;" 
 />
    <glyph glyph-name="Gcommaaccent" unicode="&#x122;" horiz-adv-x="1593" 
 />
    <glyph glyph-name="gcommaaccent" unicode="&#x123;" 
 />
    <glyph glyph-name="Hcircumflex" unicode="&#x124;" horiz-adv-x="1479" 
 />
    <glyph glyph-name="hcircumflex" unicode="&#x125;" 
 />
    <glyph glyph-name="Hbar" unicode="&#x126;" horiz-adv-x="1479" 
 />
    <glyph glyph-name="hbar" unicode="&#x127;" 
 />
    <glyph glyph-name="Itilde" unicode="&#x128;" horiz-adv-x="569" 
 />
    <glyph glyph-name="itilde" unicode="&#x129;" horiz-adv-x="569" 
 />
    <glyph glyph-name="Imacron" unicode="&#x12a;" horiz-adv-x="569" 
 />
    <glyph glyph-name="imacron" unicode="&#x12b;" horiz-adv-x="569" 
 />
    <glyph glyph-name="Ibreve" unicode="&#x12c;" horiz-adv-x="569" 
 />
    <glyph glyph-name="ibreve" unicode="&#x12d;" horiz-adv-x="569" 
 />
    <glyph glyph-name="Iogonek" unicode="&#x12e;" horiz-adv-x="569" 
 />
    <glyph glyph-name="iogonek" unicode="&#x12f;" horiz-adv-x="455" 
 />
    <glyph glyph-name="IJ" unicode="&#x132;" horiz-adv-x="1505" 
 />
    <glyph glyph-name="ij" unicode="&#x133;" horiz-adv-x="909" 
 />
    <glyph glyph-name="Jcircumflex" unicode="&#x134;" horiz-adv-x="1024" 
 />
    <glyph glyph-name="jcircumflex" unicode="&#x135;" horiz-adv-x="455" 
 />
    <glyph glyph-name="Kcommaaccent" unicode="&#x136;" horiz-adv-x="1366" 
 />
    <glyph glyph-name="kcommaaccent" unicode="&#x137;" horiz-adv-x="1024" 
 />
    <glyph glyph-name="kgreenlandic" unicode="&#x138;" horiz-adv-x="1024" 
 />
    <glyph glyph-name="Lacute" unicode="&#x139;" 
 />
    <glyph glyph-name="lacute" unicode="&#x13a;" horiz-adv-x="455" 
 />
    <glyph glyph-name="Lcommaaccent" unicode="&#x13b;" 
 />
    <glyph glyph-name="lcommaaccent" unicode="&#x13c;" horiz-adv-x="455" 
 />
    <glyph glyph-name="Lcaron" unicode="&#x13d;" 
 />
    <glyph glyph-name="lcaron" unicode="&#x13e;" horiz-adv-x="597" 
 />
    <glyph glyph-name="Ldot" unicode="&#x13f;" 
 />
    <glyph glyph-name="ldot" unicode="&#x140;" horiz-adv-x="684" 
 />
    <glyph glyph-name="Nacute" unicode="&#x143;" horiz-adv-x="1479" 
 />
    <glyph glyph-name="nacute" unicode="&#x144;" 
 />
    <glyph glyph-name="Ncommaaccent" unicode="&#x145;" horiz-adv-x="1479" 
 />
    <glyph glyph-name="ncommaaccent" unicode="&#x146;" 
 />
    <glyph glyph-name="Ncaron" unicode="&#x147;" horiz-adv-x="1479" 
 />
    <glyph glyph-name="ncaron" unicode="&#x148;" 
 />
    <glyph glyph-name="napostrophe" unicode="&#x149;" horiz-adv-x="1237" 
 />
    <glyph glyph-name="Eng" unicode="&#x14a;" horiz-adv-x="1481" 
 />
    <glyph glyph-name="eng" unicode="&#x14b;" 
 />
    <glyph glyph-name="Omacron" unicode="&#x14c;" horiz-adv-x="1593" 
 />
    <glyph glyph-name="omacron" unicode="&#x14d;" 
 />
    <glyph glyph-name="Obreve" unicode="&#x14e;" horiz-adv-x="1593" 
 />
    <glyph glyph-name="obreve" unicode="&#x14f;" 
 />
    <glyph glyph-name="Ohungarumlaut" unicode="&#x150;" horiz-adv-x="1593" 
 />
    <glyph glyph-name="ohungarumlaut" unicode="&#x151;" 
 />
    <glyph glyph-name="Racute" unicode="&#x154;" horiz-adv-x="1479" 
 />
    <glyph glyph-name="racute" unicode="&#x155;" horiz-adv-x="682" 
 />
    <glyph glyph-name="Rcommaaccent" unicode="&#x156;" horiz-adv-x="1479" 
 />
    <glyph glyph-name="rcommaaccent" unicode="&#x157;" horiz-adv-x="682" 
 />
    <glyph glyph-name="Rcaron" unicode="&#x158;" horiz-adv-x="1479" 
 />
    <glyph glyph-name="rcaron" unicode="&#x159;" horiz-adv-x="682" 
 />
    <glyph glyph-name="Sacute" unicode="&#x15a;" horiz-adv-x="1366" 
 />
    <glyph glyph-name="sacute" unicode="&#x15b;" horiz-adv-x="1024" 
 />
    <glyph glyph-name="Scircumflex" unicode="&#x15c;" horiz-adv-x="1366" 
 />
    <glyph glyph-name="scircumflex" unicode="&#x15d;" horiz-adv-x="1024" 
 />
    <glyph glyph-name="Tcommaaccent" unicode="&#x162;" horiz-adv-x="1251" 
 />
    <glyph glyph-name="tcommaaccent" unicode="&#x163;" horiz-adv-x="569" 
 />
    <glyph glyph-name="Tcaron" unicode="&#x164;" horiz-adv-x="1251" 
 />
    <glyph glyph-name="tcaron" unicode="&#x165;" horiz-adv-x="768" 
 />
    <glyph glyph-name="Tbar" unicode="&#x166;" horiz-adv-x="1251" 
 />
    <glyph glyph-name="tbar" unicode="&#x167;" horiz-adv-x="569" 
 />
    <glyph glyph-name="Utilde" unicode="&#x168;" horiz-adv-x="1479" 
 />
    <glyph glyph-name="utilde" unicode="&#x169;" 
 />
    <glyph glyph-name="Umacron" unicode="&#x16a;" horiz-adv-x="1479" 
 />
    <glyph glyph-name="umacron" unicode="&#x16b;" 
 />
    <glyph glyph-name="Ubreve" unicode="&#x16c;" horiz-adv-x="1479" 
 />
    <glyph glyph-name="ubreve" unicode="&#x16d;" 
 />
    <glyph glyph-name="Uring" unicode="&#x16e;" horiz-adv-x="1479" 
 />
    <glyph glyph-name="uring" unicode="&#x16f;" 
 />
    <glyph glyph-name="Uhungarumlaut" unicode="&#x170;" horiz-adv-x="1479" 
 />
    <glyph glyph-name="uhungarumlaut" unicode="&#x171;" 
 />
    <glyph glyph-name="Uogonek" unicode="&#x172;" horiz-adv-x="1479" 
 />
    <glyph glyph-name="uogonek" unicode="&#x173;" 
 />
    <glyph glyph-name="Wcircumflex" unicode="&#x174;" horiz-adv-x="1933" 
 />
    <glyph glyph-name="wcircumflex" unicode="&#x175;" horiz-adv-x="1479" 
 />
    <glyph glyph-name="Ycircumflex" unicode="&#x176;" horiz-adv-x="1366" 
 />
    <glyph glyph-name="ycircumflex" unicode="&#x177;" horiz-adv-x="1024" 
 />
    <glyph glyph-name="Zacute" unicode="&#x179;" horiz-adv-x="1251" 
 />
    <glyph glyph-name="zacute" unicode="&#x17a;" horiz-adv-x="1024" 
 />
    <glyph glyph-name="Zdotaccent" unicode="&#x17b;" horiz-adv-x="1251" 
 />
    <glyph glyph-name="zdotaccent" unicode="&#x17c;" horiz-adv-x="1024" 
 />
    <glyph glyph-name="longs" unicode="&#x17f;" horiz-adv-x="455" 
 />
    <glyph glyph-name="Aringacute" unicode="&#x1fa;" horiz-adv-x="1366" 
 />
    <glyph glyph-name="aringacute" unicode="&#x1fb;" 
 />
    <glyph glyph-name="AEacute" unicode="&#x1fc;" horiz-adv-x="2048" 
 />
    <glyph glyph-name="aeacute" unicode="&#x1fd;" horiz-adv-x="1821" 
 />
    <glyph glyph-name="Oslashacute" unicode="&#x1fe;" horiz-adv-x="1593" 
 />
    <glyph glyph-name="oslashacute" unicode="&#x1ff;" horiz-adv-x="1251" 
 />
    <glyph glyph-name="tonos" unicode="&#x384;" horiz-adv-x="682" 
 />
    <glyph glyph-name="dieresistonos" unicode="&#x385;" horiz-adv-x="682" 
 />
    <glyph glyph-name="Alphatonos" unicode="&#x386;" horiz-adv-x="1367" 
 />
    <glyph glyph-name="anoteleia" unicode="&#x387;" horiz-adv-x="569" 
 />
    <glyph glyph-name="Epsilontonos" unicode="&#x388;" horiz-adv-x="1606" 
 />
    <glyph glyph-name="Etatonos" unicode="&#x389;" horiz-adv-x="1716" 
 />
    <glyph glyph-name="Iotatonos" unicode="&#x38a;" horiz-adv-x="786" 
 />
    <glyph glyph-name="Omicrontonos" unicode="&#x38c;" horiz-adv-x="1586" 
 />
    <glyph glyph-name="Upsilontonos" unicode="&#x38e;" horiz-adv-x="1752" 
 />
    <glyph glyph-name="Omegatonos" unicode="&#x38f;" horiz-adv-x="1541" 
 />
    <glyph glyph-name="iotadieresistonos" unicode="&#x390;" horiz-adv-x="455" 
 />
    <glyph glyph-name="Alpha" unicode="&#x391;" horiz-adv-x="1366" 
 />
    <glyph glyph-name="Beta" unicode="&#x392;" horiz-adv-x="1366" 
 />
    <glyph glyph-name="Gamma" unicode="&#x393;" horiz-adv-x="1128" 
 />
    <glyph glyph-name="uni0394" unicode="&#x394;" horiz-adv-x="1368" 
 />
    <glyph glyph-name="Epsilon" unicode="&#x395;" horiz-adv-x="1366" 
 />
    <glyph glyph-name="Zeta" unicode="&#x396;" horiz-adv-x="1251" 
 />
    <glyph glyph-name="Eta" unicode="&#x397;" horiz-adv-x="1479" 
 />
    <glyph glyph-name="Theta" unicode="&#x398;" horiz-adv-x="1593" 
 />
    <glyph glyph-name="Iota" unicode="&#x399;" horiz-adv-x="569" 
 />
    <glyph glyph-name="Kappa" unicode="&#x39a;" horiz-adv-x="1366" 
 />
    <glyph glyph-name="Lambda" unicode="&#x39b;" horiz-adv-x="1368" 
 />
    <glyph glyph-name="Mu" unicode="&#x39c;" horiz-adv-x="1706" 
 />
    <glyph glyph-name="Nu" unicode="&#x39d;" horiz-adv-x="1479" 
 />
    <glyph glyph-name="Xi" unicode="&#x39e;" horiz-adv-x="1331" 
 />
    <glyph glyph-name="Omicron" unicode="&#x39f;" horiz-adv-x="1593" 
 />
    <glyph glyph-name="Pi" unicode="&#x3a0;" horiz-adv-x="1479" 
 />
    <glyph glyph-name="Rho" unicode="&#x3a1;" horiz-adv-x="1366" 
 />
    <glyph glyph-name="Sigma" unicode="&#x3a3;" horiz-adv-x="1266" 
 />
    <glyph glyph-name="Tau" unicode="&#x3a4;" horiz-adv-x="1251" 
 />
    <glyph glyph-name="Upsilon" unicode="&#x3a5;" horiz-adv-x="1366" 
 />
    <glyph glyph-name="Phi" unicode="&#x3a6;" horiz-adv-x="1634" 
 />
    <glyph glyph-name="Chi" unicode="&#x3a7;" horiz-adv-x="1366" 
 />
    <glyph glyph-name="Psi" unicode="&#x3a8;" horiz-adv-x="1711" 
 />
    <glyph glyph-name="uni03A9" unicode="&#x3a9;" horiz-adv-x="1531" 
 />
    <glyph glyph-name="Iotadieresis" unicode="&#x3aa;" horiz-adv-x="569" 
 />
    <glyph glyph-name="Upsilondieresis" unicode="&#x3ab;" horiz-adv-x="1366" 
 />
    <glyph glyph-name="alphatonos" unicode="&#x3ac;" horiz-adv-x="1184" 
 />
    <glyph glyph-name="epsilontonos" unicode="&#x3ad;" horiz-adv-x="913" 
 />
    <glyph glyph-name="etatonos" unicode="&#x3ae;" 
 />
    <glyph glyph-name="iotatonos" unicode="&#x3af;" horiz-adv-x="455" 
 />
    <glyph glyph-name="upsilondieresistonos" unicode="&#x3b0;" horiz-adv-x="1120" 
 />
    <glyph glyph-name="alpha" unicode="&#x3b1;" horiz-adv-x="1184" 
 />
    <glyph glyph-name="beta" unicode="&#x3b2;" horiz-adv-x="1178" 
 />
    <glyph glyph-name="gamma" unicode="&#x3b3;" horiz-adv-x="1024" 
 />
    <glyph glyph-name="delta" unicode="&#x3b4;" horiz-adv-x="1140" 
 />
    <glyph glyph-name="epsilon" unicode="&#x3b5;" horiz-adv-x="913" 
 />
    <glyph glyph-name="zeta" unicode="&#x3b6;" horiz-adv-x="903" 
 />
    <glyph glyph-name="eta" unicode="&#x3b7;" 
 />
    <glyph glyph-name="theta" unicode="&#x3b8;" 
 />
    <glyph glyph-name="iota" unicode="&#x3b9;" horiz-adv-x="455" 
 />
    <glyph glyph-name="kappa" unicode="&#x3ba;" horiz-adv-x="1024" 
 />
    <glyph glyph-name="lambda" unicode="&#x3bb;" horiz-adv-x="1024" 
 />
    <glyph glyph-name="uni03BC" unicode="&#x3bc;" horiz-adv-x="1180" 
 />
    <glyph glyph-name="nu" unicode="&#x3bd;" horiz-adv-x="1024" 
 />
    <glyph glyph-name="xi" unicode="&#x3be;" horiz-adv-x="917" 
 />
    <glyph glyph-name="omicron" unicode="&#x3bf;" 
 />
    <glyph glyph-name="pi" unicode="&#x3c0;" horiz-adv-x="1413" 
 />
    <glyph glyph-name="rho" unicode="&#x3c1;" horiz-adv-x="1165" 
 />
    <glyph glyph-name="sigma1" unicode="&#x3c2;" horiz-adv-x="987" 
 />
    <glyph glyph-name="sigma" unicode="&#x3c3;" horiz-adv-x="1264" 
 />
    <glyph glyph-name="tau" unicode="&#x3c4;" horiz-adv-x="809" 
 />
    <glyph glyph-name="upsilon" unicode="&#x3c5;" horiz-adv-x="1120" 
 />
    <glyph glyph-name="phi" unicode="&#x3c6;" horiz-adv-x="1328" 
 />
    <glyph glyph-name="chi" unicode="&#x3c7;" horiz-adv-x="1075" 
 />
    <glyph glyph-name="psi" unicode="&#x3c8;" horiz-adv-x="1460" 
 />
    <glyph glyph-name="omega" unicode="&#x3c9;" horiz-adv-x="1599" 
 />
    <glyph glyph-name="iotadieresis" unicode="&#x3ca;" horiz-adv-x="455" 
 />
    <glyph glyph-name="upsilondieresis" unicode="&#x3cb;" horiz-adv-x="1120" 
 />
    <glyph glyph-name="omicrontonos" unicode="&#x3cc;" 
 />
    <glyph glyph-name="upsilontonos" unicode="&#x3cd;" horiz-adv-x="1120" 
 />
    <glyph glyph-name="omegatonos" unicode="&#x3ce;" horiz-adv-x="1599" 
 />
    <glyph glyph-name="afii10023" unicode="&#x401;" horiz-adv-x="1367" 
 />
    <glyph glyph-name="afii10051" unicode="&#x402;" horiz-adv-x="1771" 
 />
    <glyph glyph-name="afii10052" unicode="&#x403;" horiz-adv-x="1109" 
 />
    <glyph glyph-name="afii10053" unicode="&#x404;" horiz-adv-x="1472" 
 />
    <glyph glyph-name="afii10054" unicode="&#x405;" horiz-adv-x="1366" 
 />
    <glyph glyph-name="afii10055" unicode="&#x406;" horiz-adv-x="569" 
 />
    <glyph glyph-name="afii10056" unicode="&#x407;" horiz-adv-x="569" 
 />
    <glyph glyph-name="afii10057" unicode="&#x408;" horiz-adv-x="1024" 
 />
    <glyph glyph-name="afii10058" unicode="&#x409;" horiz-adv-x="2165" 
 />
    <glyph glyph-name="afii10059" unicode="&#x40a;" horiz-adv-x="2069" 
 />
    <glyph glyph-name="afii10060" unicode="&#x40b;" horiz-adv-x="1749" 
 />
    <glyph glyph-name="afii10061" unicode="&#x40c;" horiz-adv-x="1193" 
 />
    <glyph glyph-name="afii10062" unicode="&#x40e;" horiz-adv-x="1301" 
 />
    <glyph glyph-name="afii10145" unicode="&#x40f;" horiz-adv-x="1472" 
 />
    <glyph glyph-name="afii10017" unicode="&#x410;" horiz-adv-x="1366" 
 />
    <glyph glyph-name="afii10018" unicode="&#x411;" horiz-adv-x="1344" 
 />
    <glyph glyph-name="afii10019" unicode="&#x412;" horiz-adv-x="1366" 
 />
    <glyph glyph-name="afii10020" unicode="&#x413;" horiz-adv-x="1109" 
 />
    <glyph glyph-name="afii10021" unicode="&#x414;" horiz-adv-x="1387" 
 />
    <glyph glyph-name="afii10022" unicode="&#x415;" horiz-adv-x="1366" 
 />
    <glyph glyph-name="afii10024" unicode="&#x416;" horiz-adv-x="1891" 
 />
    <glyph glyph-name="afii10025" unicode="&#x417;" horiz-adv-x="1237" 
 />
    <glyph glyph-name="afii10026" unicode="&#x418;" horiz-adv-x="1472" 
 />
    <glyph glyph-name="afii10027" unicode="&#x419;" horiz-adv-x="1472" 
 />
    <glyph glyph-name="afii10028" unicode="&#x41a;" horiz-adv-x="1193" 
 />
    <glyph glyph-name="afii10029" unicode="&#x41b;" horiz-adv-x="1344" 
 />
    <glyph glyph-name="afii10030" unicode="&#x41c;" horiz-adv-x="1706" 
 />
    <glyph glyph-name="afii10031" unicode="&#x41d;" horiz-adv-x="1479" 
 />
    <glyph glyph-name="afii10032" unicode="&#x41e;" horiz-adv-x="1593" 
 />
    <glyph glyph-name="afii10033" unicode="&#x41f;" horiz-adv-x="1472" 
 />
    <glyph glyph-name="afii10034" unicode="&#x420;" horiz-adv-x="1366" 
 />
    <glyph glyph-name="afii10035" unicode="&#x421;" horiz-adv-x="1479" 
 />
    <glyph glyph-name="afii10036" unicode="&#x422;" horiz-adv-x="1251" 
 />
    <glyph glyph-name="afii10037" unicode="&#x423;" horiz-adv-x="1301" 
 />
    <glyph glyph-name="afii10038" unicode="&#x424;" horiz-adv-x="1557" 
 />
    <glyph glyph-name="afii10039" unicode="&#x425;" horiz-adv-x="1366" 
 />
    <glyph glyph-name="afii10040" unicode="&#x426;" horiz-adv-x="1515" 
 />
    <glyph glyph-name="afii10041" unicode="&#x427;" horiz-adv-x="1365" 
 />
    <glyph glyph-name="afii10042" unicode="&#x428;" horiz-adv-x="1877" 
 />
    <glyph glyph-name="afii10043" unicode="&#x429;" horiz-adv-x="1920" 
 />
    <glyph glyph-name="afii10044" unicode="&#x42a;" horiz-adv-x="1621" 
 />
    <glyph glyph-name="afii10045" unicode="&#x42b;" horiz-adv-x="1813" 
 />
    <glyph glyph-name="afii10046" unicode="&#x42c;" horiz-adv-x="1344" 
 />
    <glyph glyph-name="afii10047" unicode="&#x42d;" horiz-adv-x="1472" 
 />
    <glyph glyph-name="afii10048" unicode="&#x42e;" horiz-adv-x="2069" 
 />
    <glyph glyph-name="afii10049" unicode="&#x42f;" horiz-adv-x="1479" 
 />
    <glyph glyph-name="afii10065" unicode="&#x430;" 
 />
    <glyph glyph-name="afii10066" unicode="&#x431;" horiz-adv-x="1173" 
 />
    <glyph glyph-name="afii10067" unicode="&#x432;" horiz-adv-x="1088" 
 />
    <glyph glyph-name="afii10068" unicode="&#x433;" horiz-adv-x="747" 
 />
    <glyph glyph-name="afii10069" unicode="&#x434;" horiz-adv-x="1195" 
 />
    <glyph glyph-name="afii10070" unicode="&#x435;" 
 />
    <glyph glyph-name="afii10072" unicode="&#x436;" horiz-adv-x="1370" 
 />
    <glyph glyph-name="afii10073" unicode="&#x437;" horiz-adv-x="939" 
 />
    <glyph glyph-name="afii10074" unicode="&#x438;" horiz-adv-x="1144" 
 />
    <glyph glyph-name="afii10075" unicode="&#x439;" horiz-adv-x="1144" 
 />
    <glyph glyph-name="afii10076" unicode="&#x43a;" horiz-adv-x="896" 
 />
    <glyph glyph-name="afii10077" unicode="&#x43b;" horiz-adv-x="1195" 
 />
    <glyph glyph-name="afii10078" unicode="&#x43c;" horiz-adv-x="1408" 
 />
    <glyph glyph-name="afii10079" unicode="&#x43d;" horiz-adv-x="1131" 
 />
    <glyph glyph-name="afii10080" unicode="&#x43e;" 
 />
    <glyph glyph-name="afii10081" unicode="&#x43f;" horiz-adv-x="1109" 
 />
    <glyph glyph-name="afii10082" unicode="&#x440;" 
 />
    <glyph glyph-name="afii10083" unicode="&#x441;" horiz-adv-x="1024" 
 />
    <glyph glyph-name="afii10084" unicode="&#x442;" horiz-adv-x="938" 
 />
    <glyph glyph-name="afii10085" unicode="&#x443;" horiz-adv-x="1024" 
 />
    <glyph glyph-name="afii10086" unicode="&#x444;" horiz-adv-x="1685" 
 />
    <glyph glyph-name="afii10087" unicode="&#x445;" horiz-adv-x="1024" 
 />
    <glyph glyph-name="afii10088" unicode="&#x446;" horiz-adv-x="1173" 
 />
    <glyph glyph-name="afii10089" unicode="&#x447;" horiz-adv-x="1067" 
 />
    <glyph glyph-name="afii10090" unicode="&#x448;" horiz-adv-x="1643" 
 />
    <glyph glyph-name="afii10091" unicode="&#x449;" horiz-adv-x="1685" 
 />
    <glyph glyph-name="afii10092" unicode="&#x44a;" horiz-adv-x="1280" 
 />
    <glyph glyph-name="afii10093" unicode="&#x44b;" horiz-adv-x="1472" 
 />
    <glyph glyph-name="afii10094" unicode="&#x44c;" horiz-adv-x="1067" 
 />
    <glyph glyph-name="afii10095" unicode="&#x44d;" horiz-adv-x="1045" 
 />
    <glyph glyph-name="afii10096" unicode="&#x44e;" horiz-adv-x="1536" 
 />
    <glyph glyph-name="afii10097" unicode="&#x44f;" horiz-adv-x="1109" 
 />
    <glyph glyph-name="afii10071" unicode="&#x451;" 
 />
    <glyph glyph-name="afii10099" unicode="&#x452;" 
 />
    <glyph glyph-name="afii10100" unicode="&#x453;" horiz-adv-x="747" 
 />
    <glyph glyph-name="afii10101" unicode="&#x454;" horiz-adv-x="1045" 
 />
    <glyph glyph-name="afii10102" unicode="&#x455;" horiz-adv-x="1024" 
 />
    <glyph glyph-name="afii10103" unicode="&#x456;" horiz-adv-x="455" 
 />
    <glyph glyph-name="afii10104" unicode="&#x457;" horiz-adv-x="569" 
 />
    <glyph glyph-name="afii10105" unicode="&#x458;" horiz-adv-x="455" 
 />
    <glyph glyph-name="afii10106" unicode="&#x459;" horiz-adv-x="1856" 
 />
    <glyph glyph-name="afii10107" unicode="&#x45a;" horiz-adv-x="1664" 
 />
    <glyph glyph-name="afii10108" unicode="&#x45b;" 
 />
    <glyph glyph-name="afii10109" unicode="&#x45c;" horiz-adv-x="896" 
 />
    <glyph glyph-name="afii10110" unicode="&#x45e;" horiz-adv-x="1024" 
 />
    <glyph glyph-name="afii10193" unicode="&#x45f;" horiz-adv-x="1131" 
 />
    <glyph glyph-name="afii10050" unicode="&#x490;" horiz-adv-x="1001" 
 />
    <glyph glyph-name="afii10098" unicode="&#x491;" horiz-adv-x="842" 
 />
    <glyph glyph-name="Wgrave" unicode="&#x1e80;" horiz-adv-x="1933" 
 />
    <glyph glyph-name="wgrave" unicode="&#x1e81;" horiz-adv-x="1479" 
 />
    <glyph glyph-name="Wacute" unicode="&#x1e82;" horiz-adv-x="1933" 
 />
    <glyph glyph-name="wacute" unicode="&#x1e83;" horiz-adv-x="1479" 
 />
    <glyph glyph-name="Wdieresis" unicode="&#x1e84;" horiz-adv-x="1933" 
 />
    <glyph glyph-name="wdieresis" unicode="&#x1e85;" horiz-adv-x="1479" 
 />
    <glyph glyph-name="Ygrave" unicode="&#x1ef2;" horiz-adv-x="1366" 
 />
    <glyph glyph-name="ygrave" unicode="&#x1ef3;" horiz-adv-x="1024" 
 />
    <glyph glyph-name="afii00208" unicode="&#x2015;" horiz-adv-x="2048" 
 />
    <glyph glyph-name="underscoredbl" unicode="&#x2017;" horiz-adv-x="1131" 
 />
    <glyph glyph-name="quotereversed" unicode="&#x201b;" horiz-adv-x="455" 
 />
    <glyph glyph-name="minute" unicode="&#x2032;" horiz-adv-x="384" 
 />
    <glyph glyph-name="second" unicode="&#x2033;" horiz-adv-x="725" 
 />
    <glyph glyph-name="exclamdbl" unicode="&#x203c;" horiz-adv-x="1024" 
 />
    <glyph glyph-name="uni203E" unicode="&#x203e;" horiz-adv-x="682" 
 />
    <glyph glyph-name="uni207F" unicode="&#x207f;" horiz-adv-x="747" 
 />
    <glyph glyph-name="lira" unicode="&#x20a4;" 
 />
    <glyph glyph-name="peseta" unicode="&#x20a7;" horiz-adv-x="2240" 
 />
    <glyph glyph-name="afii61248" unicode="&#x2105;" horiz-adv-x="1813" 
 />
    <glyph glyph-name="afii61289" unicode="&#x2113;" horiz-adv-x="662" 
 />
    <glyph glyph-name="afii61352" unicode="&#x2116;" horiz-adv-x="2197" 
 />
    <glyph glyph-name="estimated" unicode="&#x212e;" horiz-adv-x="1229" 
 />
    <glyph glyph-name="oneeighth" unicode="&#x215b;" horiz-adv-x="1708" 
 />
    <glyph glyph-name="threeeighths" unicode="&#x215c;" horiz-adv-x="1708" 
 />
    <glyph glyph-name="fiveeighths" unicode="&#x215d;" horiz-adv-x="1708" 
 />
    <glyph glyph-name="seveneighths" unicode="&#x215e;" horiz-adv-x="1708" 
 />
    <glyph glyph-name="arrowleft" unicode="&#x2190;" horiz-adv-x="2048" 
 />
    <glyph glyph-name="arrowup" unicode="&#x2191;" horiz-adv-x="1024" 
 />
    <glyph glyph-name="arrowright" unicode="&#x2192;" horiz-adv-x="2048" 
 />
    <glyph glyph-name="arrowdown" unicode="&#x2193;" horiz-adv-x="1024" 
 />
    <glyph glyph-name="arrowboth" unicode="&#x2194;" horiz-adv-x="2048" 
 />
    <glyph glyph-name="arrowupdn" unicode="&#x2195;" horiz-adv-x="1024" 
 />
    <glyph glyph-name="arrowupdnbse" unicode="&#x21a8;" horiz-adv-x="1024" 
 />
    <glyph glyph-name="orthogonal" unicode="&#x221f;" horiz-adv-x="2005" 
 />
    <glyph glyph-name="intersection" unicode="&#x2229;" horiz-adv-x="1472" 
 />
    <glyph glyph-name="equivalence" unicode="&#x2261;" horiz-adv-x="1195" 
 />
    <glyph glyph-name="house" unicode="&#x2302;" horiz-adv-x="1237" 
 />
    <glyph glyph-name="revlogicalnot" unicode="&#x2310;" horiz-adv-x="1196" 
 />
    <glyph glyph-name="integraltp" unicode="&#x2320;" horiz-adv-x="1237" 
 />
    <glyph glyph-name="integralbt" unicode="&#x2321;" horiz-adv-x="1237" 
 />
    <glyph glyph-name="SF100000" unicode="&#x2500;" horiz-adv-x="1451" 
 />
    <glyph glyph-name="SF110000" unicode="&#x2502;" horiz-adv-x="1280" 
 />
    <glyph glyph-name="SF010000" unicode="&#x250c;" horiz-adv-x="1451" 
 />
    <glyph glyph-name="SF030000" unicode="&#x2510;" horiz-adv-x="1451" 
 />
    <glyph glyph-name="SF020000" unicode="&#x2514;" horiz-adv-x="1451" 
 />
    <glyph glyph-name="SF040000" unicode="&#x2518;" horiz-adv-x="1451" 
 />
    <glyph glyph-name="SF080000" unicode="&#x251c;" horiz-adv-x="1451" 
 />
    <glyph glyph-name="SF090000" unicode="&#x2524;" horiz-adv-x="1451" 
 />
    <glyph glyph-name="SF060000" unicode="&#x252c;" horiz-adv-x="1451" 
 />
    <glyph glyph-name="SF070000" unicode="&#x2534;" horiz-adv-x="1451" 
 />
    <glyph glyph-name="SF050000" unicode="&#x253c;" horiz-adv-x="1451" 
 />
    <glyph glyph-name="SF430000" unicode="&#x2550;" horiz-adv-x="1451" 
 />
    <glyph glyph-name="SF240000" unicode="&#x2551;" horiz-adv-x="1451" 
 />
    <glyph glyph-name="SF510000" unicode="&#x2552;" horiz-adv-x="1451" 
 />
    <glyph glyph-name="SF520000" unicode="&#x2553;" horiz-adv-x="1451" 
 />
    <glyph glyph-name="SF390000" unicode="&#x2554;" horiz-adv-x="1451" 
 />
    <glyph glyph-name="SF220000" unicode="&#x2555;" horiz-adv-x="1451" 
 />
    <glyph glyph-name="SF210000" unicode="&#x2556;" horiz-adv-x="1451" 
 />
    <glyph glyph-name="SF250000" unicode="&#x2557;" horiz-adv-x="1451" 
 />
    <glyph glyph-name="SF500000" unicode="&#x2558;" horiz-adv-x="1451" 
 />
    <glyph glyph-name="SF490000" unicode="&#x2559;" horiz-adv-x="1451" 
 />
    <glyph glyph-name="SF380000" unicode="&#x255a;" horiz-adv-x="1451" 
 />
    <glyph glyph-name="SF280000" unicode="&#x255b;" horiz-adv-x="1451" 
 />
    <glyph glyph-name="SF270000" unicode="&#x255c;" horiz-adv-x="1451" 
 />
    <glyph glyph-name="SF260000" unicode="&#x255d;" horiz-adv-x="1451" 
 />
    <glyph glyph-name="SF360000" unicode="&#x255e;" horiz-adv-x="1451" 
 />
    <glyph glyph-name="SF370000" unicode="&#x255f;" horiz-adv-x="1451" 
 />
    <glyph glyph-name="SF420000" unicode="&#x2560;" horiz-adv-x="1451" 
 />
    <glyph glyph-name="SF190000" unicode="&#x2561;" horiz-adv-x="1451" 
 />
    <glyph glyph-name="SF200000" unicode="&#x2562;" horiz-adv-x="1451" 
 />
    <glyph glyph-name="SF230000" unicode="&#x2563;" horiz-adv-x="1451" 
 />
    <glyph glyph-name="SF470000" unicode="&#x2564;" horiz-adv-x="1451" 
 />
    <glyph glyph-name="SF480000" unicode="&#x2565;" horiz-adv-x="1451" 
 />
    <glyph glyph-name="SF410000" unicode="&#x2566;" horiz-adv-x="1451" 
 />
    <glyph glyph-name="SF450000" unicode="&#x2567;" horiz-adv-x="1451" 
 />
    <glyph glyph-name="SF460000" unicode="&#x2568;" horiz-adv-x="1451" 
 />
    <glyph glyph-name="SF400000" unicode="&#x2569;" horiz-adv-x="1451" 
 />
    <glyph glyph-name="SF540000" unicode="&#x256a;" horiz-adv-x="1451" 
 />
    <glyph glyph-name="SF530000" unicode="&#x256b;" horiz-adv-x="1451" 
 />
    <glyph glyph-name="SF440000" unicode="&#x256c;" horiz-adv-x="1451" 
 />
    <glyph glyph-name="upblock" unicode="&#x2580;" horiz-adv-x="1451" 
 />
    <glyph glyph-name="dnblock" unicode="&#x2584;" horiz-adv-x="1451" 
 />
    <glyph glyph-name="block" unicode="&#x2588;" horiz-adv-x="1451" 
 />
    <glyph glyph-name="lfblock" unicode="&#x258c;" horiz-adv-x="1451" 
 />
    <glyph glyph-name="rtblock" unicode="&#x2590;" horiz-adv-x="1451" 
 />
    <glyph glyph-name="ltshade" unicode="&#x2591;" horiz-adv-x="1451" 
 />
    <glyph glyph-name="shade" unicode="&#x2592;" horiz-adv-x="1451" 
 />
    <glyph glyph-name="dkshade" unicode="&#x2593;" horiz-adv-x="1493" 
 />
    <glyph glyph-name="filledbox" unicode="&#x25a0;" horiz-adv-x="1237" 
 />
    <glyph glyph-name="H22073" unicode="&#x25a1;" horiz-adv-x="1237" 
 />
    <glyph glyph-name="H18543" unicode="&#x25aa;" horiz-adv-x="726" 
 />
    <glyph glyph-name="H18551" unicode="&#x25ab;" horiz-adv-x="726" 
 />
    <glyph glyph-name="filledrect" unicode="&#x25ac;" horiz-adv-x="2048" 
 />
    <glyph glyph-name="triagup" unicode="&#x25b2;" horiz-adv-x="2027" 
 />
    <glyph glyph-name="triagrt" unicode="&#x25ba;" horiz-adv-x="2027" 
 />
    <glyph glyph-name="triagdn" unicode="&#x25bc;" horiz-adv-x="2027" 
 />
    <glyph glyph-name="triaglf" unicode="&#x25c4;" horiz-adv-x="2027" 
 />
    <glyph glyph-name="circle" unicode="&#x25cb;" horiz-adv-x="1237" 
 />
    <glyph glyph-name="H18533" unicode="&#x25cf;" horiz-adv-x="1237" 
 />
    <glyph glyph-name="invbullet" unicode="&#x25d8;" horiz-adv-x="1237" 
 />
    <glyph glyph-name="invcircle" unicode="&#x25d9;" horiz-adv-x="1237" 
 />
    <glyph glyph-name="openbullet" unicode="&#x25e6;" horiz-adv-x="726" 
 />
    <glyph glyph-name="smileface" unicode="&#x263a;" horiz-adv-x="2091" 
 />
    <glyph glyph-name="invsmileface" unicode="&#x263b;" horiz-adv-x="2155" 
 />
    <glyph glyph-name="sun" unicode="&#x263c;" horiz-adv-x="1877" 
 />
    <glyph glyph-name="female" unicode="&#x2640;" horiz-adv-x="1536" 
 />
    <glyph glyph-name="male" unicode="&#x2642;" horiz-adv-x="1536" 
 />
    <glyph glyph-name="spade" unicode="&#x2660;" horiz-adv-x="1088" 
 />
    <glyph glyph-name="club" unicode="&#x2663;" horiz-adv-x="1344" 
 />
    <glyph glyph-name="heart" unicode="&#x2665;" horiz-adv-x="1216" 
 />
    <glyph glyph-name="diamond" unicode="&#x2666;" horiz-adv-x="1045" 
 />
    <glyph glyph-name="musicalnote" unicode="&#x266a;" horiz-adv-x="1024" 
 />
    <glyph glyph-name="musicalnotedbl" unicode="&#x266b;" horiz-adv-x="1536" 
 />
    <glyph glyph-name="uniF004" unicode="&#xf004;" horiz-adv-x="682" 
 />
    <glyph glyph-name="uniF005" unicode="&#xf005;" horiz-adv-x="682" 
 />
    </font>
</defs>
</svg>
