<?xml version="1.0" standalone="no"?>
<!DOCTYPE svg PUBLIC "-//W3C//DTD SVG 1.1//EN" "http://www.w3.org/Graphics/SVG/1.1/DTD/svg11.dtd" >
<svg>
<metadata>
Created by FontForge 20090914 at Fri Feb 24 02:07:22 2012
 By root
Typeface &#194;&#169; (Kirk Shelton). 2009. All Rights Reserved
</metadata>
<defs>
<font id="BrutalTooth" horiz-adv-x="1014" >
  <font-face 
    font-family="Brutal Tooth"
    font-weight="400"
    font-stretch="normal"
    units-per-em="2048"
    panose-1="2 0 5 0 0 0 0 0 0 0"
    ascent="1638"
    descent="-410"
    x-height="1571"
    cap-height="1843"
    bbox="-1271 -453 2351 1889"
    underline-thickness="150"
    underline-position="-142"
    unicode-range="U+0020-U+F002"
  />
<missing-glyph horiz-adv-x="1024" 
d="M100 0v1434h824v-1434h-824zM150 50h724v1334h-724v-1334zM325 1148q31 28 58 43q53 30 112 30q92 0 148 -47.5t56 -127.5q0 -49 -23 -98.5t-87 -129.5q-63 -80 -99 -132t-36 -99q0 -38 24 -133h-32q-35 97 -35 148q0 76 81.5 218t81.5 217q0 57 -33 90t-91 33
q-38 0 -69 -17q-26 -15 -56 -40v45zM389 334l57 58q11 10 20 10q10 0 22 -11l56 -60q9 -11 9 -20q0 -11 -10 -22l-56 -62q-14 -14 -21 -14q-11 0 -20 10l-61 71q-7 9 -7 18q0 10 11 22z" />
    <glyph glyph-name=".notdef" horiz-adv-x="1024" 
d="M100 0v1434h824v-1434h-824zM150 50h724v1334h-724v-1334zM325 1148q31 28 58 43q53 30 112 30q92 0 148 -47.5t56 -127.5q0 -49 -23 -98.5t-87 -129.5q-63 -80 -99 -132t-36 -99q0 -38 24 -133h-32q-35 97 -35 148q0 76 81.5 218t81.5 217q0 57 -33 90t-91 33
q-38 0 -69 -17q-26 -15 -56 -40v45zM389 334l57 58q11 10 20 10q10 0 22 -11l56 -60q9 -11 9 -20q0 -11 -10 -22l-56 -62q-14 -14 -21 -14q-11 0 -20 10l-61 71q-7 9 -7 18q0 10 11 22z" />
    <glyph glyph-name=".null" horiz-adv-x="0" 
 />
    <glyph glyph-name="nonmarkingreturn" horiz-adv-x="508" 
 />
    <glyph glyph-name="space" unicode=" " horiz-adv-x="508" 
 />
    <glyph glyph-name="space" unicode="&#xa0;" horiz-adv-x="508" 
 />
    <glyph glyph-name="exclam" unicode="!" horiz-adv-x="672" 
 />
    <glyph glyph-name="quotedbl" unicode="&#x22;" horiz-adv-x="672" 
 />
    <glyph glyph-name="numbersign" unicode="#" horiz-adv-x="1336" 
 />
    <glyph glyph-name="dollar" unicode="$" 
 />
    <glyph glyph-name="percent" unicode="%" horiz-adv-x="1610" 
 />
    <glyph glyph-name="ampersand" unicode="&#x26;" horiz-adv-x="1683" 
 />
    <glyph glyph-name="quotesingle" unicode="'" horiz-adv-x="346" 
 />
    <glyph glyph-name="parenleft" unicode="(" horiz-adv-x="758" 
 />
    <glyph glyph-name="parenright" unicode=")" horiz-adv-x="758" 
 />
    <glyph glyph-name="asterisk" unicode="*" horiz-adv-x="1024" 
 />
    <glyph glyph-name="plus" unicode="+" 
 />
    <glyph glyph-name="comma" unicode="," horiz-adv-x="557" 
 />
    <glyph glyph-name="hyphen" unicode="-" horiz-adv-x="670" 
 />
    <glyph glyph-name="hyphen" unicode="&#xad;" horiz-adv-x="670" 
 />
    <glyph glyph-name="period" unicode="." horiz-adv-x="557" 
 />
    <glyph glyph-name="slash" unicode="/" horiz-adv-x="569" 
 />
    <glyph glyph-name="zero" unicode="0" 
 />
    <glyph glyph-name="one" unicode="1" 
 />
    <glyph glyph-name="two" unicode="2" 
 />
    <glyph glyph-name="three" unicode="3" 
 />
    <glyph glyph-name="four" unicode="4" 
 />
    <glyph glyph-name="five" unicode="5" 
 />
    <glyph glyph-name="six" unicode="6" 
 />
    <glyph glyph-name="seven" unicode="7" 
 />
    <glyph glyph-name="eight" unicode="8" 
 />
    <glyph glyph-name="nine" unicode="9" 
 />
    <glyph glyph-name="colon" unicode=":" horiz-adv-x="557" 
 />
    <glyph glyph-name="semicolon" unicode=";" horiz-adv-x="557" 
 />
    <glyph glyph-name="semicolon" unicode="&#x37e;" horiz-adv-x="557" 
 />
    <glyph glyph-name="less" unicode="&#x3c;" 
 />
    <glyph glyph-name="equal" unicode="=" horiz-adv-x="845" 
d="M20 1833h153l9 -6h54q46 0 150 -32l81 -18h113q25 0 66 -29q9 0 9 -9q-25 -75 -50 -75q0 -5 -12 -9l-4 -4v-69q-10 -29 -18 -125q0 -37 18 -113v-31q-28 -72 -28 -100l-9 -72l3 -85q25 -66 25 -94l7 -229v-38l-7 -75v-72l-9 -41h6v-3l16 10h6q25 0 88 -25h44l-7 18
q46 16 119 69q57 27 123 47q56 25 93 50h4l6 -6v-59q-13 -49 -35 -82l-40 -81v-3q0 -28 78 -132q30 -46 63 -116q25 -13 81 -147h-3q-11 0 -132 85q-60 0 -153 103q0 -5 -13 -9q-18 50 -59 50l-38 12l-3 3h-12q-49 0 -157 -34h-47q-11 -3 -31 -35v-22l3 -3v-3l-3 -3h-44v-25
l56 -184q11 -15 31 -103q20 -55 41 -75q40 -60 132 -147q0 -8 25 -38q0 -13 -44 -16h-113l-75 -9l-185 69q-80 25 -128 25h-3q-10 0 -19 56q-13 14 -13 28v51q14 32 22 166q20 86 35 125l-22 -45v16l6 25v28l-6 25v106l3 3v4q-49 15 -72 15h-81q-97 -7 -97 -28
q-93 -49 -122 -72q0 -10 -32 -28q-24 -24 -44 -60l-97 -56q-6 0 -6 9l38 110l3 34v60q-18 42 -32 128q-90 171 -106 245l3 3h3q142 -60 191 -60l47 -12l19 9q5 -16 41 -16h25l50 7h19l31 -7l157 -3l18 -6h35q10 0 69 38q12 0 12 6v66l3 31q-10 0 -12 41q0 9 43 245l4 25v19
l-19 44q-22 19 -22 59v13q0 23 9 53v53l-44 110v31q16 23 16 38v100l-25 69v28l3 16q-16 0 -56 56q-9 27 -38 47q-30 22 -131 56q-30 26 -50 35v6z" />
    <glyph glyph-name="greater" unicode="&#x3e;" 
 />
    <glyph glyph-name="question" unicode="?" horiz-adv-x="748" 
 />
    <glyph glyph-name="at" unicode="@" horiz-adv-x="2019" 
 />
    <glyph glyph-name="A" unicode="A" horiz-adv-x="1124" 
d="M1418 1853l4 -4h4q-38 -96 -128 -132q-177 -104 -208 -104q-91 0 -128 -72q-52 -32 -52 -56q-36 -58 -36 -96q20 -44 32 -120q26 -39 84 -224q96 -115 96 -140q20 -35 20 -56v-116l48 -160q0 -32 12 -32q38 -36 60 -36h8q165 44 200 44q1 8 28 12h20l144 4q96 -30 96 -68
q16 -15 16 -28h-4l-68 16h-20q-32 0 -124 -76l-240 -116h-84l-68 -12h-56q-22 0 -64 48q-15 0 -88 56q21 20 36 20h16l28 -8l-16 40v36q-12 53 -12 96v136q-48 66 -48 84v116l-56 20h-12q-35 0 -104 -56l-44 -12h-32l-76 24h-20q-28 -68 -28 -84v-60q0 -55 -84 -136
q-16 -21 -16 -36v-16q24 -75 24 -100v-16q0 -35 -76 -76l-4 -4v-4q0 -46 68 -72q64 -44 80 -64q156 -36 156 -80l8 -40v-36l-8 -8h-40q-32 0 -144 40h-28q-56 0 -56 -28q0 -30 -124 -56q-58 0 -172 -48l-40 -12h-124q-10 8 -112 32q-79 43 -116 108q-104 62 -104 132
q-98 96 -164 100v8l76 24h24q42 0 192 -48q57 -37 100 -88l36 -24h24q52 0 164 36q13 0 48 24l12 -4q18 32 24 32l4 -4q0 36 24 56v84q0 63 96 88q40 48 40 88l-24 84v56q0 30 60 92l-4 108q0 56 60 112q16 25 36 104q16 29 16 52v36l68 156v8l-36 -24h-224l-92 36
q-50 0 -168 68q-101 15 -136 44l-8 8h-96q-25 0 -96 56h-8v8q35 17 120 24l12 4h76l132 -20h40l88 32h24l160 -36h28l44 16l56 -4l72 28h12l140 -4l68 36l4 -4h4l-36 -88h4l212 116q98 44 196 44q153 28 192 72q16 0 80 44zM706 1325q-48 -114 -48 -156v-88l-12 -40l4 -4h4
l168 32v52q-16 62 -40 116q-10 47 -52 80z" />
    <glyph glyph-name="B" unicode="B" horiz-adv-x="1005" 
d="M75 1775h7q187 -42 191 -70q45 -22 147 -92q46 0 74 -37h4l70 4l124 -4l109 -18q46 -19 132 -19q40 -14 70 -14q86 -53 120 -137q11 -4 27 -33v-132q-17 -76 -54 -107q-67 -94 -67 -114q183 -106 183 -192q8 0 7 -62v-33q0 -34 -27 -63q0 -33 -78 -144q-122 -71 -190 -92
q-43 -11 -90 -11h-39q-10 0 -58 33q-28 15 -77 15q-162 55 -202 55q-44 -52 -117 -88q-65 -49 -70 -88q-9 -48 -70 -118v-11q14 -16 190 -37q9 -12 62 -26l31 -18l-42 -11h-35q-126 -16 -148 -26q-75 -38 -101 -59q-55 -18 -55 -63l-78 -136l-11 -59l-1 -188l-7 -7
q-56 73 -82 155q-35 72 -34 224l-4 4v4h-8q-33 -39 -97 -67q0 -6 -51 -29q-4 -13 -89 -63h-8v52q68 165 140 228q79 77 94 77l128 100q6 0 47 63q33 34 74 62q31 185 74 273l19 51l-3 173q0 42 81 85v11q-10 56 -54 125q-65 70 -81 144v33l11 44v30q-13 29 -38 29h-4
l-31 -37h-4q-16 0 -105 48l-39 4h-66l-225 -37l-323 -81q0 55 70 55q47 14 124 52q146 92 199 99q86 52 178 52l284 -4q42 0 66 33q-96 62 -163 118q-10 0 -77 40l-20 4h-97l-117 22v8h47l54 11h168zM483 1376h-15l-4 4h-4l-8 -12v-11l4 -20q-30 -14 -74 -85v-39
q0 -159 19 -159l43 11h43q79 0 140 -11l54 39q0 15 23 31h12q41 -24 70 -24h39q82 31 82 70l50 113v12q-34 52 -124 73l-50 8h-105q-18 0 -62 51l-16 4h-51q-25 -12 -38 -32q0 -7 -20 -7zM475 898v-4q0 -44 15 -101q0 -32 43 -143h4q26 15 46 15h78q32 -7 86 -39h66l89 47
q34 0 70 70v15q-50 121 -93 121l-12 15v47l-7 8h-82l-54 -12h-31l-66 20h-32q-55 -7 -73 -35q-24 0 -39 -24h-8z" />
    <glyph glyph-name="C" unicode="C" horiz-adv-x="1042" 
d="M822 1736q39 -69 56 -236q112 -190 112 -264q0 -32 12 -72v-12h-8q0 21 -140 136q-40 28 -52 28h-12q-12 -4 -12 -24v-40q0 -132 -28 -132h-4q0 12 -84 48q0 16 -32 16q-8 18 -16 20h-92q-83 0 -120 12h-4q-64 -57 -164 -196q-75 -95 -104 -160l8 -32v-136q0 -59 68 -152
q20 -55 96 -164l68 -40h24l32 8h72l32 -8h36l80 12q51 -40 72 -40l48 -20q0 12 36 12q35 19 56 100q25 63 100 148q0 18 52 60h4q-20 -117 -48 -204q-24 -91 -36 -104v-36l68 -60q108 -59 224 -160q20 -24 20 -40v-4h-32q-70 24 -176 36q-62 23 -224 48h-16q-24 -13 -64 -60
q-6 1 -40 76h-48q-124 16 -124 24l-84 32l-228 48q-80 43 -112 76q-84 92 -84 116q-32 65 -32 100v16l8 32v4q-4 18 -64 120q-16 27 -16 48v8l36 132v36q6 58 56 148l12 4v96q0 31 52 76q97 152 164 152h20l92 -28l112 20q32 0 104 -44v20q-16 18 -24 52q17 16 172 48l4 4h4
q0 -12 44 -24q28 0 28 52q0 85 32 208v52z" />
    <glyph glyph-name="D" unicode="D" horiz-adv-x="1227" 
d="M-221 1847h80q87 0 192 -35q200 -31 200 -75q15 0 68 -44q9 0 68 -51l72 28l140 67h92l76 -8h44q39 0 92 -83q0 -49 88 -94q17 -40 92 -107q0 -19 36 -43q0 -70 76 -114q25 -21 56 -71l24 -24v-43q24 -32 24 -48v-51q24 -114 24 -149v-87q-96 -198 -96 -248
q-48 -120 -100 -209q-62 -7 -108 -40q-36 0 -88 -31l-68 -20q-17 -22 -84 -39l-60 12h-68q-56 -71 -68 -71l-52 -28q-60 0 -260 59l-24 4q-40 -15 -68 -71q-113 -71 -176 -71q-95 -41 -128 -94q0 -27 -116 -99q0 -8 -100 -90q0 -10 -64 -79q-87 -83 -176 -83
q-50 -19 -120 -19q-111 -20 -124 -28l-4 4q1 10 76 55q8 13 52 36l168 110q91 129 132 213q8 0 8 19q76 48 212 115q88 62 164 102q64 87 84 94l60 28l-4 4v4q9 24 32 24l16 27v20l-8 31v20q0 23 32 43q0 19 28 99v12q0 51 -36 145v71l-12 40v27l24 75v44l-12 78v59l-12 48
v86q39 142 64 142q32 31 32 44q-12 43 -28 43h-8q-14 0 -124 -91l-60 -39h-8v201h-144q-87 -76 -153 -159l-97 -330l-118 -292l9 285l31 115q62 389 140 408q56 92 56 178v27zM499 1496q0 -69 -32 -102l-24 -47q-8 -16 -8 -44v-114l8 -43v-103q0 -32 -32 -138v-15l12 -75
v-32l8 -31v-59q0 -44 24 -115l4 -122v-19l12 -48h56q42 0 68 20q41 5 112 59q69 37 204 87q83 68 132 165q44 67 44 119v19l-48 130l-20 150q-64 177 -100 177q-19 45 -124 107q-40 33 -164 63l-80 11h-52z" />
    <glyph glyph-name="E" unicode="E" horiz-adv-x="1190" 
d="M1631 1722q-136 -21 -203 -97l-68 -80q-50 -12 -78 -21t-166 -252q-19 -96 -22 -146q-17 -46 -35 -46l-20 -50h-7q-15 36 -36 205l-3 177q-9 0 -18 18h-7l-131 1l3 -4l4 -213q-22 -167 -21 -238l5 -259q-9 -88 -43 -182h-4q-8 10 -22 74q-32 68 -57 230q-2 87 -73 102
l-181 -3q-18 -29 -15 -182l2 -127q-7 -5 -9 -61q20 -78 118 -76l93 2q27 0 178 -54l39 -6h39v11l6 39l-3 209q5 13 116 66q52 35 52 55q41 74 41 85q22 16 31 58l35 64h3l2 -103q0 -14 -30 -92q-21 -182 -40 -182q-79 -166 -78 -200l1 -36q0 -34 56 -191q1 -27 30 -74l4 -46
l1 -32l-11 -10q-18 27 -193 78q-40 25 -72 55q-82 77 -132 76q-58 -1 -150 47l-50 10h-213q-25 -1 -74 -41q-42 -18 -78 -22q-100 -22 -120 -48q-10 -1 -63 -44q-33 -1 -106 -27l-92 -1l-71 -30l-64 -1q-24 -1 -143 65l-7 17l3 4l39 1l50 4q26 -14 39 -13q40 14 145 34
q108 84 137 84l148 81l60 26h11q-1 12 38 25q14 16 14 29q-22 33 -23 103q23 82 22 160l-2 128l-5 60l-189 60v8h10q28 0 144 77l-7 28l-1 50l25 167l-1 75l-29 24l4 11q-1 26 -137 79q-76 60 -158 104l-158 128l-290 127v7l50 1l245 -24q105 1 242 -39q39 -26 87 -84
q47 -31 68 -55q118 -7 118 -51q23 -57 40 -56l29 -11l56 23l120 37q36 22 177 42l89 2v28q13 75 30 75q18 -17 37 -84q5 0 11 -25l188 3q40 63 92 43q167 4 225 41t174 91l462 36q-83 -58 -279 -131zM385 1423q-20 -97 -22 -185q-6 0 -6 -25l1 -64q29 -23 78 -27h224
q38 55 37 104v7l-7 28l-2 103l17 54l-1 53h-25q-62 -1 -155 -46z" />
    <glyph glyph-name="F" unicode="F" horiz-adv-x="1181" 
d="M1023 1614l96 16h8l44 -8h84q72 28 140 68l139 91l-59 -103v-4q-22 -31 -84 -80l-76 -168q-51 -48 -92 -136q-12 -12 -56 -124q-33 -39 -40 -4l-4 4v188q-16 43 -16 68h-84v-296l370 -111l-319 -12q-59 -5 -59 -49l-8 -12l4 -204v-80h-8q-48 86 -48 104q-17 95 -44 172
q-72 18 -72 28l-192 -16l-24 4l-24 -36v-8l8 -12l-16 -116l4 -108v-4l8 -32v-44l8 -52l32 8l24 -4q17 11 64 16l4 -4v-32q0 -15 -16 -36v-68l-24 -88q-11 -46 -164 -156q0 -11 -44 -64q-124 -254 -124 -324v-72l20 -136q-92 154 -92 240q-16 86 -44 160v168q6 87 40 144l4 4
q0 12 20 12q10 55 24 72q8 29 32 40q44 58 44 152l4 140v172q0 12 -36 68q-14 48 -24 48h-184l-160 36q-103 52 -160 52l-244 84q-10 20 -32 20v8h64l396 -32q0 -5 28 -8l120 4h4q85 -36 124 -36l68 36l36 -12v84q0 10 32 56q12 21 12 40v100l-8 40l-92 -40q-86 54 -204 96
l-68 48v4q48 0 196 72l12 -4l112 8l56 -16v28l-68 76q-14 28 -20 28q8 18 16 20h128q59 0 116 -28q72 -15 72 -24q-19 -17 -56 -108h28l112 -20h148v36zM863 1406h-204l-8 -8v-200l8 -8h220l12 12v48q0 74 24 168q-19 -12 -52 -12z" />
    <glyph glyph-name="G" unicode="G" horiz-adv-x="1230" 
d="M1066 1845h4l8 -8l-68 -124q-20 -32 -60 -144q-28 -30 -68 -116v-16q0 -47 84 -76l44 -12h196l4 -4h4q0 -38 -68 -60q-4 -10 -40 -28q-17 -19 -156 -92q0 -14 -32 -20q-3 -11 -44 -32q0 -12 -12 -12q-100 67 -116 128q-10 0 -48 92q-21 18 -56 120l-20 20h-8
q-111 -13 -168 -44q-10 -9 -80 -24q-72 -45 -72 -112l-36 -52l4 -80v-200l-40 -112v-12q16 -57 72 -144q16 0 48 -40v-44l12 -36h8q109 56 188 80l16 8l4 -4v-4q0 -70 -68 -184v-8q59 -32 104 -40q1 -15 44 -24h4q175 77 180 108q24 0 60 132l4 4q12 44 32 60q0 29 20 64
h-60q-33 0 -180 36l-124 52l-44 12h-28l-12 12v4h8q85 28 172 44q4 9 72 28l256 4h96q66 0 192 -36q48 33 48 68h8v-12l12 -40v-24q12 0 12 -8v-140l-12 -12l-12 -96v-8h-4q-22 3 -96 124l-84 16v-48q0 -40 -40 -192l-28 -156l12 -40v-88l-4 -40q16 0 16 -100v-88l8 -76v-52
l16 -76q-26 -39 -60 -140v-24h-8l-72 160q-48 176 -48 204v100q0 32 20 92q-23 0 -84 36h-8q-31 -18 -60 -52q-8 0 -40 -36l-132 24h-4l-92 -36l-72 -20q-19 0 -132 84l-44 32q-60 -32 -156 -68l-112 -60h-4q0 11 56 100q0 8 80 104q20 50 20 68v4q-51 75 -56 120l-28 -4
q-32 23 -32 48v136q-18 0 -28 164q0 79 52 172v32q0 127 -40 172l-8 28v12q0 21 52 84l4 12q-12 47 -72 100q-8 81 -40 140q-35 71 -108 112q-9 21 -104 76v8h4q98 -46 168 -64q146 -71 208 -124l56 -12h8q71 36 188 80q21 -5 76 -48q28 16 72 16h60q52 0 156 -100v-8h4
q48 48 88 108q49 21 112 132q27 60 76 60zM22 101h4l-12 -12v4z" />
    <glyph glyph-name="H" unicode="H" horiz-adv-x="1224" 
d="M1531 1845h8l50 -146l8 -26v-58q0 -12 -124 -259l-73 -55q-34 20 -66 20q-54 0 -93 -23q-58 -9 -58 -36q-15 -25 -31 -90q-5 0 -15 -33q-11 0 -39 -22q-17 0 -77 -127v-200l-12 -46v-48q0 -19 66 -207q12 0 27 -81l23 -52l51 -81q29 -25 81 -110q9 -4 54 -68
q37 -39 100 -152q8 0 78 -91q49 -40 96 -107q35 -28 35 -45v-3h-4l-89 48l-120 94q0 19 -61 39q-60 37 -136 68l-85 87l-38 59h-12l-93 -46q-185 -82 -197 -100q0 -10 -15 -16l-4 3v3q16 56 93 181l4 17v71q0 35 -24 120v16q0 20 47 107q23 62 23 90l-62 123v42l-27 4h-54
q-16 -13 -31 -13q-21 0 -66 29q-38 3 -38 23h-4l-54 -23q-97 -9 -97 -16l-4 -4q0 -9 -7 -9h-16q-33 0 -69 -10l-8 -29v-133q11 -86 46 -158l31 -91q39 -89 170 -295q12 0 70 -87l-4 -3h-4l-139 84q-121 45 -151 45l-123 36h-12q-22 -33 -116 -91q0 -23 -77 -52
q-69 -22 -220 -107q-37 -27 -166 -87l-170 -49l-101 -29l-54 -16v3q0 30 62 88q67 33 259 100q0 8 100 55q15 47 131 120q119 50 163 120q40 33 139 81l19 45v133l-15 116v334q-2 39 -51 129l-7 20v22q38 40 38 55v29q-54 77 -54 140q-92 156 -208 194q-45 44 -112 91v3h31
q178 -49 247 -62q69 -11 131 -81q33 -43 70 -55l38 -9h58q22 0 128 71l4 -3v-65q-5 -40 -109 -149q-11 -17 -11 -39q9 -184 66 -184q23 -30 88 -30l82 59q24 -20 46 -78h50l31 19v81q15 78 31 114q62 80 62 100v23q-42 110 -62 110q-85 49 -162 81v6l77 3q95 0 147 -35
l77 -36h19q74 0 174 42q74 7 101 29q26 0 100 65q112 49 112 68q11 0 93 162v7z" />
    <glyph glyph-name="I" unicode="I" horiz-adv-x="1060" 
d="M-443 1843h4q47 -47 164 -192l68 -56q1 -7 76 -48q0 -23 212 -72q68 0 108 12h120q75 -13 116 -40h4l4 20v48q-32 34 -32 56v36q0 15 -80 40v4q0 11 60 20q44 0 100 -24h88l100 12q12 -15 12 -28v-72l-20 -64v-20h48q16 0 108 36q171 27 224 72q67 50 92 108q12 34 36 48
h44q176 0 176 24l52 28l4 -4v-4q-62 -79 -152 -132q-60 -31 -60 -64q-63 -132 -168 -172q-26 -23 -124 -36q-40 0 -160 -64q-132 -28 -132 -44v-164q0 -21 -8 -271v-80l16 -52l-19 -159l95 -145l88 -24h72l32 8h32q24 -24 56 -24l24 4l104 -88l48 8l47 2l2 80q34 18 89 26
q8 174 189 150q10 -14 76 -40v-8h-24q-144 9 -203 -343q-205 -45 -220 5l-48 44q-40 24 -52 24h-20q-76 -28 -132 -28l-12 -4h-116l-88 28q-23 -107 -96 -196q0 -22 -20 -32h-8q0 6 -48 40q-60 78 -60 120q-6 0 -8 40l-128 76l-112 -52q0 -15 -88 -20h-4l-112 16h-20l-32 8
h-8q-124 -60 -268 -100q-41 -8 -128 -8h-64l-8 8q97 104 112 104q100 56 160 136q43 36 60 36h236l108 -8h60l136 72h84q-48 101 -48 124v12l8 8h4q8 0 8 -12h24l28 76l8 32v96l-21 188l-23 103l-8 36v56q0 76 -112 104q0 6 -56 16h-8q-62 -12 -144 -44q-90 -60 -132 -64
h-16q-31 0 -76 60q0 26 -88 88q-53 40 -68 100l-68 128q-22 0 -72 124l-12 80v64z" />
    <glyph glyph-name="J" unicode="J" horiz-adv-x="1084" 
d="M640 1852q6 -27 96 -104q-14 -21 -76 -56q-21 -44 -36 -44v-8l36 8l208 4q22 -34 36 -76l12 -8h76q74 0 272 -24h48v-8h-28q-42 0 -256 -64h-96q0 -39 12 -56v-72q-8 -40 -16 -40q-1 10 -76 72q0 11 -44 48h-128q-24 -23 -24 -52v-12l16 -56l-36 -108v-48l20 -68v-12
q0 -21 -40 -64v-12q13 -27 72 -84v-72l-16 -48l-3 -412q0 -36 68 -116l20 -60l20 -68v-48q12 -39 12 -80q0 -50 -28 -108q0 -35 -68 -128q-161 -116 -248 -148h-20q-74 20 -100 20q-41 12 -197 84q-434 228 -498 293q-42 34 -56 64q-7 0 -56 56q-53 44 -68 44l-40 84
l-71 109q-12 124 82 190l35 28q59 148 240 100l90 -10l169 -334l-82 50q-226 263 -364 13l130 -171l112 -66l232 -140q165 -122 252 -111q-1 -36 36 -24l126 62q59 67 96 155l4 36v36q0 14 20 48v36l-24 84l-8 36v28q0 26 35 332v12q-11 11 -28 124l-56 96v4q0 20 24 36
l40 84q-20 0 -48 76l8 36v20l-8 12l-4 152q-3 14 -36 40v4h-44l-16 12h-152v-64l-16 -32v-64l-8 -8q-57 72 -104 164l-4 4h-80l-64 -8l-160 16l-68 20q-181 80 -196 80v8h4l36 -8h308q54 21 192 32l40 32q6 44 20 44l124 -44l64 -16h28l92 20h8q0 48 -36 48q-39 15 -40 24v4
q30 37 168 68q34 38 132 72z" />
    <glyph glyph-name="K" unicode="K" horiz-adv-x="1288" 
d="M-289 1851h24q68 0 88 -32l80 -76q99 0 444 -100q29 0 40 -20v-68l32 -88v-12q0 -39 -44 -92q60 -120 60 -136q24 -84 44 -84q0 12 96 16q124 31 124 52l88 60l24 84l44 80q0 64 40 64l-16 64v8q0 138 335 240q-100 -148 -119 -172l4 -20l-68 -40v-84l-48 -136l4 -120
q0 -145 -132 -176q0 -10 -40 -24v-8q56 -17 56 -28l-16 -20q48 -39 48 -92q0 -23 108 -112q38 -51 120 -104q32 -48 68 -136l32 -44q36 0 72 -92q84 -120 112 -120q180 -44 180 -72q89 -103 208 -211q239 -228 533 -377q-388 110 -660 348l-201 100l-56 12h-20
q-143 -36 -150 70q-76 64 -70 74l8 8q-13 23 -24 72q-13 13 -52 104q-106 29 -168 96q0 16 -16 16l-28 32q-44 49 -44 76v44q0 14 -48 80q0 10 -84 56l-80 92q-37 -15 -60 -36h-76q-25 0 -60 -40q27 -22 32 -60l-20 -60q-28 -51 -28 -68v-24q83 -60 96 -120q0 -15 -12 -32
v-56q19 -48 88 -48q0 -6 80 -12q12 -11 16 -64q44 -67 44 -96q-6 -13 -48 -36l-16 4q-113 -18 -144 -56q-105 -68 -128 -68l-44 28q-104 -31 -116 -64q-8 -25 -76 -52q-15 0 -56 -32q-26 -5 -132 -116q-35 -21 -60 -68q-69 -38 -176 -80q-79 -33 -180 -100h-4v12
q17 98 60 128q88 67 112 96q15 0 100 116l92 60q19 13 84 32q0 43 76 160q25 64 48 64q24 26 24 40q32 14 64 64q32 18 32 24l-24 104v24q0 20 28 52v8q-28 24 -28 124v180l-12 48q-24 0 -60 -44q-21 -19 -100 -44q-36 30 -92 56q-48 41 -48 76l12 8h4q21 0 44 -36h12
q132 93 132 144q21 25 60 132v84l-44 140q0 65 -68 88q-161 64 -184 120q-45 52 -56 52l-56 56v-4l4 -4v-4l-4 -4h-8l-52 60q-98 71 -100 84l12 4l44 -8z" />
    <glyph glyph-name="L" unicode="L" horiz-adv-x="1209" 
d="M-428 1833l132 -28q175 -24 216 -44l60 -24q83 -12 152 -56q84 -24 120 -60l16 -12l28 4q1 -8 56 -40q0 -8 76 -32h20l256 112l60 12h12l100 -24h180q28 0 84 -48v-8h-188q-34 0 -208 -76q-77 -4 -176 -96q-101 -162 -112 -228v-8q0 -18 32 -104v-28q-36 -65 -36 -88
l36 -112v-72q-24 -53 -24 -68v-128h88l112 48h64q35 0 148 -24v32l8 8q25 -28 56 -28h8v372l60 100q0 12 36 56h8v-4q-12 -32 -12 -140v-136q0 -81 76 -228q32 -50 32 -76v-80q1 -118 48 -176q79 -36 124 -36q74 -26 92 -64q21 -20 28 -76q20 -19 28 -72q16 0 36 -140
l20 -52v-4h-4q-87 73 -136 168q-83 116 -128 116l-144 40q-72 68 -92 132l-4 4q0 12 -8 12l-36 -12l-80 36h-264q-181 -36 -272 -116q-65 -43 -116 -52h-64q-54 5 -232 96q-105 64 -128 64v8q125 60 144 60h44q17 0 124 -72l44 -24h20l64 140v28q-16 77 -16 148v72
q-48 191 -48 216q0 32 40 148q0 33 44 132q16 27 16 48v100q0 16 -32 68q-47 144 -92 144q0 6 -68 28q-26 30 -192 72q-41 12 -76 64l-240 88q0 9 -20 12v8z" />
    <glyph glyph-name="M" unicode="M" horiz-adv-x="1202" 
d="M1450 1837q16 -7 15 -27l-3 -87q18 -1 24 -111q37 -90 83 -151l14 -46l-1 -27q-3 -79 58 -268l22 -54l-6 -174q-22 -56 -29 -136l-56 -116l-12 1l6 170l2 171q-10 1 -17 -30l-8 1q-22 66 -18 164q-32 31 -65 188l-40 104l-12 8h-8q-157 -13 -158 -40q-1 -28 -78 -66
l-4 -4l-10 -269l-14 -38l-3 -91q-30 -45 -30 -59l-1 -23q0 -14 15 -35l-8 -201q-1 -41 77 -215q22 -111 47 -131q19 -61 66 -63q106 -48 105 -79q19 -50 56 -101q54 -151 78 -264q36 -56 78 -162h-4q-82 51 -193 192q-40 2 -148 210l-179 33h-20l-125 -22l36 113
q43 69 45 112l2 80l-45 176l-18 164l1 30q-41 -62 -105 -125l-50 -60l-2 -56q-26 -57 -40 -109q-51 -73 -52 -97h-8l-16 88v15l-8 110l2 54h-12q-48 2 -96 102q-31 57 -81 75q-63 66 -101 87l-47 32h-20q-1 -22 -50 -59h-4l3 -19l-8 -208q0 -16 44 -112l20 -111
q6 -81 80 -223q44 -56 45 -81v-4l-8 -7l-148 5l-94 -46q-112 -44 -155 -75q-33 -9 -86 -47q-14 1 -45 -32q-24 -20 -93 -28l-81 -20l-28 1q-38 2 -200 109q-154 137 -208 228l-18 42h4q31 -32 257 -195l72 -2l83 -22q1 15 21 15q8 22 82 58q26 27 146 67l67 77q44 -1 45 18
l22 60l3 76l26 48l5 42q-8 34 -44 96l1 35q1 17 52 93l4 106l9 30l4 110l-22 61l14 49v19q-18 77 -43 112l-12 23l1 23q1 16 26 48v8q-19 31 -18 46l1 27q-18 38 -69 82l-34 54l1 27q2 45 -127 152q-55 37 -91 113l-103 163l1 4l8 -1l194 -147q24 -19 110 -60l242 -175
l74 -41q1 23 9 23l44 -2l90 47l4 -4l-2 -42q-23 -75 -102 -183q-17 -5 -17 -26q26 -55 22 -148q12 -14 11 -35q8 -42 50 -43l138 -54l28 -127q45 -1 60 -93q11 -14 63 -44q7 -14 58 -51q93 118 140 216q11 11 32 10q1 22 41 120q1 40 51 295v15q-11 7 -57 82q-67 52 -75 124
q-8 0 -11 38h4l118 -57l4 -4l12 -1q113 21 150 68q24 3 50 47l82 39q1 9 25 26q0 21 68 108q20 62 51 101z" />
    <glyph glyph-name="N" unicode="N" horiz-adv-x="1233" 
d="M440 1843l108 -4q0 -9 36 -12l264 -132l64 -56h44l88 32q27 0 188 72q81 27 168 68v-4q-17 -35 -84 -72q-46 -42 -80 -56l-128 -104v-56l-28 -24l4 -180v-20l12 -96q-42 -57 -60 -112v-52l32 -80l-84 -80q50 -104 84 -104l44 -36q102 -99 104 -124l-4 -4h-4
q-10 13 -156 44q0 6 -40 12v-16l8 -32v-44l28 -148h-4q21 -41 72 -100q20 -100 56 -100q9 -10 44 -20v-8q-16 0 -16 -8l108 -92q120 -119 120 -168q30 -76 100 -172v-4q-12 0 -104 56q-212 75 -212 124q0 25 -72 56q-80 92 -112 92q-4 11 -128 80l-120 92q104 84 104 116
l8 28q-20 34 -56 160q-25 30 -36 120v44q-155 65 -172 88q-20 44 -40 128q-113 77 -204 128l-28 24h-8q64 -87 64 -160q-16 -129 -28 -160v-128q0 -61 -48 -160l-32 -100v-8h44q123 21 188 68h16v-4q-17 -76 -48 -76q-63 -38 -96 -80q0 -49 -56 -96q-110 -102 -244 -176
q-107 -19 -148 -68q0 -9 -96 -112l-104 -216v-12h-8v84q0 21 36 112q32 175 124 280q104 55 120 104l8 8v40q0 16 40 68q28 50 28 92q68 75 68 132l8 24v100l-20 96v28q55 46 56 56v12q-24 84 -24 128v64l-20 128v124q0 7 -48 32l-12 36v44h-76q-25 0 -96 40l-20 4h-20
l-108 -24h-20q-15 0 -116 64l-36 12h-40v4q0 24 72 24q83 48 100 48h56l100 -20h152v32q0 16 -132 144l-8 12v8h4q28 -2 196 -132l84 -52h4l120 12h20l8 -8v-12q0 -62 -84 -104v-96q111 -51 164 -104q31 -7 168 -160q54 -41 56 -60l20 4h28q53 0 104 -48l28 -4l16 36
q-52 39 -52 180v24q0 52 72 88q3 9 36 16v108q0 56 12 56q-49 53 -72 92q-62 46 -152 80q-113 55 -244 152q-21 14 -28 32l4 4h4z" />
    <glyph glyph-name="O" unicode="O" horiz-adv-x="954" 
d="M573 1716h80l164 -48q85 -34 204 -148q46 -89 68 -224l4 -12v-56q0 -21 -16 -28q-15 0 -116 68l4 -68v-40l32 -128v-48q0 -19 112 -48l200 -44v-4q-31 -24 -104 -44h-152q-42 0 -72 -60l-20 -172q-7 0 -20 -64l-56 -136q-8 0 -12 -24q-44 -84 -88 -84q-80 -49 -208 -76
l-52 -16q-26 -13 -32 -40l-24 -24h-8q-28 24 -60 24q0 -9 80 -68q33 -32 72 -32h124l20 -4v-4q-12 -28 -80 -28q-56 -24 -140 -24h-104l-16 -12h-56q-69 0 -188 116q-25 45 -92 116l-184 224l-4 20v48l8 8q27 -84 84 -132l100 -44q-34 65 -36 140q-12 0 -12 68v80l-20 108
v64q0 16 -160 80l-52 16v4q0 11 200 52q27 14 48 64v20q0 41 -12 56v16l-24 108v28l92 172q0 25 32 60q0 18 68 48q0 13 104 32q18 16 36 16l84 -4q0 -6 32 -16q35 9 92 40h8l120 -44q64 0 92 -12q-137 130 -232 144v8zM181 1136q20 -27 20 -48q-24 -55 -24 -92v-24l28 -84
v-28q-30 -36 -48 -92v-52q44 -91 44 -108q0 -88 100 -204q43 -24 68 -24q42 73 56 136q0 38 20 48q76 -84 76 -92l32 -56h4q19 16 120 56q0 14 48 40q77 95 84 136v68q-16 60 -16 108v216q0 147 -72 340q-63 72 -148 72q0 7 -40 8h-36q-24 0 -144 -64q-36 0 -60 -100
q-7 0 -36 -68q-51 -92 -76 -92z" />
    <glyph glyph-name="P" unicode="P" horiz-adv-x="886" 
d="M172 1844h3q63 -14 105 -41q24 -3 78 -91q24 -29 44 -41h24q27 0 57 21h31l27 6h37q108 -37 214 -61q23 0 88 -30l23 -10q62 -25 95 -61q65 -112 65 -163v-34q0 -25 -11 -57l12 -122q0 -19 14 -37v-3q-12 -36 -78 -119q-64 -37 -88 -37l-24 -7l-217 -3h-88l-20 13
l-81 -78h37l3 -3h4l-4 -34l12 11l-3 -32l3 -112q43 -78 132 -122v-68l-17 -67l-125 -11h-37l-65 31h-7q-6 -36 -118 -112q-76 -65 -92 -125q-30 -52 -71 -170q-40 -71 -40 -166v-30q-8 -64 -31 -64v-7l24 -163v-78h-4q-29 0 -54 129q-10 95 -44 196l-17 55v71l17 95v20
q0 121 10 173q-27 18 -84 162q-6 0 -27 85l-17 65v54l6 6q26 -38 156 -172l34 -51q0 -9 75 -17h6q18 0 65 51q20 41 20 54l79 77l31 81v55l10 57v34q0 13 -41 75q-30 54 -30 101v34l23 44l-27 75l-7 30v24q24 35 24 58v40q0 7 21 14v3q-111 42 -117 42h-3q-20 -27 -37 -27
q-70 53 -136 71h-64q-34 -24 -102 -24q0 -7 -17 -7h-7l-34 10h-30q-131 -63 -210 -128q0 -9 -88 -72q0 -6 -48 -44l-3 4v3q51 95 54 112l68 88q5 27 105 95q159 60 200 68q35 37 132 37q95 13 149 37q14 7 102 10l3 11l-24 115l-27 84l-6 11v3zM443 1478v-13h3l10 6h7v-34
l-14 -47v-10q0 -36 21 -48q19 0 52 -175l-6 -34v-17q0 -14 67 -40h41q30 0 102 33q27 0 64 28q85 29 73 161v17q0 35 -27 105q-58 44 -163 78q-23 24 -91 24q-2 5 -75 20h-17q-27 -11 -27 -27z" />
    <glyph glyph-name="Q" unicode="Q" horiz-adv-x="1005" 
d="M438 1663h4q22 -32 44 -104l4 -4h56q176 -66 176 -108q104 -43 104 -76q79 -125 124 -264q13 -100 36 -100v-8h-36v-8q52 -71 52 -120v-32q0 -45 -124 -296q-32 -58 -32 -80q-29 -104 -56 -104l-32 -64l-24 -72h4l116 64h12l188 -84q104 -17 104 -64q65 -93 112 -116
q30 -6 164 -124l84 -52q20 0 180 -116q156 -88 224 -88h68v-8q-130 -48 -196 -48q-167 0 -252 36q-74 15 -232 132l-160 100q-249 122 -264 144l-32 12q-63 -40 -96 -40q-96 0 -168 64q-19 28 -84 60q-31 36 -156 36q-16 8 -44 8l-84 -20h-32l-8 8v24l16 116q-52 61 -68 112
q-61 113 -92 128q-75 85 -108 228q0 54 20 72q-72 9 -132 40v4q156 49 156 116q6 41 72 100l8 36v24l-12 40v80q0 52 72 192q0 21 64 92q224 15 224 44q0 16 36 84v4zM150 907q25 -25 28 -52v-36l-8 -32v-56q0 -40 44 -152q0 -58 100 -140q33 -35 96 -52v36q-12 82 -44 152
l-24 84v16q0 34 36 120l44 232l4 4h4q17 -65 72 -120q20 -25 20 -120v-80q34 -172 68 -172q12 -40 36 -40q0 8 72 68q35 56 60 220q4 37 24 84v52q-73 121 -80 200q-8 1 -12 28v20l24 32v12q-11 17 -120 80l-44 60h-36q-80 28 -120 28h-8q-23 0 -48 -68q-33 -65 -100 -156
q-48 -54 -48 -156z" />
    <glyph glyph-name="R" unicode="R" horiz-adv-x="1154" 
d="M-214 1840q17 -2 123 -78q48 -35 168 -80q94 -59 194 -91q40 -33 57 -35l15 -2q5 38 101 63l13 10q16 -20 36 -103l117 -26l24 -3l7 -9l-8 -70q122 14 183 49q85 41 105 38q34 -48 99 -87q20 -2 69 -57q30 -53 73 -68v-125l-34 -79l-9 -42l-3 -24q6 -69 36 -134l-3 -24
q-34 -39 -141 -69q-55 -20 -57 -33q34 -99 115 -215l8 -1q2 15 10 14q56 -36 53 -58l13 -29l-3 -23q-6 -50 86 -149q-1 -8 38 -56q8 -43 33 -55q26 -40 33 -123q-3 -26 124 -74l28 -4l24 1l160 -75q71 -16 68 -40q60 -54 80 -136q26 -87 23 -105l1 -28l-4 -3h-4
q-46 65 -94 94q-212 138 -342 169q1 6 -69 28l-24 3q-55 -16 -154 -76q-44 -6 -130 -43l-2 -16q16 -4 14 -13l-1 -8q-5 -44 -109 -70q-116 -41 -129 -67l-298 -25q105 92 213 154q1 11 141 66q104 50 245 159q42 43 47 81q5 47 -68 143q-43 66 -61 122q-77 29 -70 88
q-10 115 -74 186q-8 1 -75 108q-8 1 -29 28l-113 33l-79 10q-12 1 -22 -76q5 -41 30 -91l-9 -70l-23 -52l-5 -47q-5 -37 22 -113l-2 -48l-5 -38q27 -22 111 -50q106 -21 97 -98l-3 -28q-4 -30 -77 -34q-149 -30 -157 -95q-34 -33 -78 -49l-20 2l-89 66l-8 1q-66 -8 -129 -35
q-85 -6 -250 -100q-20 -20 -159 -83q-1 -6 -95 -48q-60 -40 -138 -74l-7 9v4q32 97 229 217q69 72 186 107q86 40 90 76q6 47 28 64q5 41 130 71l34 15l8 102q4 35 29 103l8 66l-15 77l3 19l50 113l5 39q3 32 -39 111l-4 1q-117 -45 -154 -41l-128 40l1 11q44 -5 106 78
l44 62q2 12 147 108l26 48l1 8q-49 101 -43 144q-9 31 -9 95q-21 45 -97 131l1 4l4 3q-141 160 -201 167q-152 62 -182 121l-33 63zM884 1243l-4 1l-116 46q-11 1 -46 -50q-32 4 -84 -25l-19 2l-3 16l-3 1l-1 -4l13 -89l-2 -15l-11 -30l-2 -16q-2 -13 29 -59q-4 -27 13 -53
q45 19 120 21h4l53 -27q26 21 78 14q33 5 39 55l-1 55q55 23 60 64q-16 83 -60 130h-4z" />
    <glyph glyph-name="S" unicode="S" horiz-adv-x="1005" 
d="M153 1852q244 -16 244 -32q70 -189 136 -229q86 -108 132 -151q12 -32 68 -92q85 -53 96 -53q20 27 32 64v28q-16 100 -52 134q-35 21 -88 109l4 4h16q88 -15 88 -50l76 -84l48 -64q17 -20 24 -53l-16 -77l12 -4l24 18l4 -4h4q22 67 44 67l36 4h68q46 0 92 28h24v-4
q-141 -92 -172 -102q-32 -55 -52 -109l8 -49q0 -11 -48 -43l-20 -52q0 -15 20 -43l-64 -31l-56 -4q-18 0 -84 67l-32 42l-108 155q0 40 -96 57q-96 60 -96 98h-4q0 -28 -8 -28l8 -74q-12 -53 -88 -123v-4l8 -63q0 -31 -48 -102v-7q57 -67 80 -67q9 0 72 -46l92 -25l44 4
q110 -18 120 -32q23 -20 52 -25q0 -12 96 -17l4 -4q25 -14 52 -14q0 -40 44 -56q32 -7 32 -21q0 -9 40 -43l-4 -42l52 -74q0 -33 48 -67q0 -13 32 -70q0 -48 24 -89q16 -22 16 -38q-28 -59 -28 -74v-95q-70 -160 -140 -282q-41 -27 -180 -67q-40 -16 -88 -67
q-215 -99 -272 -99h-8v4q21 25 104 70q24 42 96 134v3l-28 4v7q0 12 120 56l52 25q68 56 68 183v7l-4 43q-25 0 -96 -74q-126 -64 -180 -64l-68 -17q-93 0 -156 52q-2 14 -76 36q-29 16 -68 88l-24 28q-20 0 -64 -46h-148q-21 0 -56 78v14l8 28v7q-23 24 -28 49
q-26 36 -60 36q-232 112 -232 201v52l-44 117v63q6 50 76 127q13 0 56 67l16 28h8q0 -45 -76 -169v-4q10 0 24 -42v-21q0 -113 88 -144q71 -20 140 -131q72 -70 152 -70q100 0 120 -36q8 0 8 -17v-39l92 32l104 -4q16 0 52 25l4 -4v-63l-8 -53q28 -7 28 -14q23 13 92 28
q87 57 112 57l4 -18q64 31 64 116l4 32v42q0 46 -52 60l-116 78q-64 45 -156 45l-44 -24q-208 42 -208 84q-144 108 -144 219q3 56 12 56q-30 37 -64 120v85q11 53 24 53h4q2 -31 76 -113h4q12 30 24 130l-8 28q15 67 48 99q2 14 76 39q-20 43 -32 123q-26 40 -60 74v4
q-37 0 -116 -32q-13 34 -56 67q-9 30 -188 102q-37 14 -44 28v14l8 7q68 -38 224 -74h20q73 75 128 85z" />
    <glyph glyph-name="T" unicode="T" horiz-adv-x="702" 
d="M-928 1855l833 -80l27 20q11 23 135 -33l28 -2l138 31l52 -4l12 -9h4q50 38 327 -15q139 38 195 34l152 -10q229 -28 518 -91t858 -156l-306 -41q-853 6 -1118 67q-93 -26 -169 -21q-116 -40 -175 -35h-4q-19 -38 -31 -91l4 -90q-9 -90 -25 -134q54 -134 20 -161l-5 -72
l5 -44l-29 -495l-26 -22l-1 -12q26 15 23 -19l-1 -20l22 -145l5 -153l-8 1q-2 -17 78 -122q59 -29 97 -65l53 -44q106 -96 225 -164q116 -52 470 -77l-1 -8l-16 1q-101 -27 -494 11l-12 1l-70 25l-151 78q-204 -16 -223 -14l-131 81l-123 77q3 35 -187 189l134 83l76 210
l3 44q1 15 18 31l3 36l-32 -68l2 40l58 548l3 52q1 12 33 62q-41 72 -52 103l2 28l-3 24q-2 122 -1 139l6 91q2 24 -31 71q-25 5 -55 64l8 11l-36 3q-103 7 -702 100z" />
    <glyph glyph-name="U" unicode="U" horiz-adv-x="920" 
d="M-544 1630q68 0 68 -36h68q36 -11 132 -20q7 -13 112 -24q0 -8 28 -8l44 -16l52 -80h200q13 0 128 -56q30 0 40 -20q-21 -33 -48 -108v-44q-8 -59 -36 -92v-56q0 -11 36 -68q44 -87 44 -220q-44 -60 -44 -76v-20q0 -33 80 -164q33 -1 64 -28l68 36q33 -15 56 -56l4 -4h20
q92 52 92 92q9 0 16 48q-12 95 -68 200q-28 44 -28 60v84q-59 148 -88 148q0 12 -68 28v124q0 11 52 16q63 46 204 88q88 54 88 120l12 8h20q120 -62 120 -68v-4l-4 -164q16 -140 36 -220v-100l12 -44l-4 -4h-12q-39 15 -68 96q-20 27 -84 216q-8 0 -8 16l-4 4h-4
q-50 0 -64 -80q14 -45 48 -108q0 -87 112 -176l16 -28v-48q-44 -35 -44 -88q0 -15 40 -24h28q0 -20 -48 -92l-24 -60v-68q-84 -113 -84 -124q-12 -80 -76 -80h-56q-26 -13 -64 -124q-7 -1 -44 -72l-20 -24q-45 148 -68 148q-84 9 -84 36q-35 24 -88 104l-116 44
q-51 96 -80 244v48q12 14 24 80q-12 97 -44 140q-16 29 -16 60v12q40 90 40 112l-4 144q-34 62 -84 104q-58 72 -104 96h-112q-77 76 -116 76q0 14 -112 44q-23 23 -172 56q-13 8 -216 32h-8v8h100l48 12h12q57 0 108 -12q29 24 44 24z" />
    <glyph glyph-name="V" unicode="V" horiz-adv-x="911" 
d="M801 1831q19 -16 52 -81q64 -89 64 -115h12q29 0 100 35q101 -65 124 -65h124q8 -6 76 -158q8 -19 8 -69v-65l12 -77v-8l-8 -7q-55 48 -156 192l-56 38h-4q-26 -196 -48 -196q-41 51 -88 138l-12 8h-4q-152 -61 -152 -115v-8l8 -11v-58l24 -65v-23q0 -71 -48 -257
q0 -82 -36 -108q-48 -84 -48 -103q-15 -79 -56 -139l-56 -96q-68 -22 -68 -69v-11q0 -23 28 -23v-8l-48 -364l-4 -269l4 -27q-11 -17 -16 -92l-4 -4h-20q-8 0 -16 81q-19 58 -56 272q-7 0 -32 104q-36 68 -36 88q36 70 48 119v38q0 17 -80 127q-39 76 -68 169
q-100 124 -100 200q-16 33 -36 145q-28 94 -44 231q-48 11 -48 115v38l-8 8h-28q-104 28 -104 34v8q84 59 84 100v8q-9 54 -60 96q-43 9 -112 50q-15 0 -88 72q-99 70 -140 70l-32 19h-112l-8 7l132 69l4 4h104q78 -42 132 -42q71 -54 112 -54q0 -6 52 -11q34 -62 60 -62
q12 -13 112 -23l12 -3h88l20 -23v-16l-60 -92v-188q8 -76 72 -169q32 -19 48 -127v-61l36 -127q0 -37 60 -130q40 -63 60 -111l4 -24h4l84 192l76 135q0 11 16 23l68 161v15l-12 96v200q0 92 64 146v207q8 96 24 96z" />
    <glyph glyph-name="W" unicode="W" horiz-adv-x="1060" 
d="M-573 1856h4q47 -42 168 -179q47 -30 85 -88l13 -2q-1 8 11 9q50 -39 96 -34q218 -98 267 -93l20 -2l50 26q41 -45 42 -60q-9 -1 -15 -46l4 -36l40 -116q9 1 38 -57l9 -7l3 -28l-3 -237l5 -52q22 -208 70 -278l29 -49l12 1l89 266q9 31 89 102l-5 48l-2 137l-2 16h8
q72 -106 79 -176l119 -245q45 -84 104 -110l44 -44l4 1q15 58 67 128l-28 266q-3 29 -19 66l-12 120l4 32l-1 12l-74 129l-11 27l-2 20q0 6 58 26q22 15 42 97q124 62 220 124l27 15q118 -44 243 -59l23 -211l14 -63q5 -42 -97 -147q-18 -1 -52 -37q-31 21 -35 64l-9 8l7 8
l32 4l49 29l-5 44l-34 57q-3 32 4 76q-9 -1 -56 35l-19 -2q-94 -10 -120 -45q-97 -59 -123 -97q35 -68 39 -101l16 -42l28 -267q3 -21 69 -114v-7q10 -94 -84 -235l-30 -55q-38 -59 -60 -119l4 -36l6 -168l1 -12q-10 -27 0 -193l7 -68h-8q-49 161 -104 262q-18 18 -61 118
q-4 40 -61 90q-83 58 -131 172q-14 46 -25 45q-31 -71 -56 -74q-64 -7 -61 -38q-62 -170 -60 -192l-4 -77q45 -10 48 -39q-45 -32 -165 -70q-125 -67 -164 -129l-61 -67l-15 -6l-24 -2q-393 -19 -395 7q-26 -3 -186 44h-4l-1 12l60 6q48 5 299 -17l107 12q43 4 267 257
q36 4 55 90l-1 44q-3 26 -50 132l-75 181l-4 40l10 130l-56 110l-32 118l-10 135l-19 143q-70 162 -169 151q-116 34 -194 80q-24 -2 -141 195l-56 114z" />
    <glyph glyph-name="X" unicode="X" horiz-adv-x="772" 
d="M-290 1756q41 -64 132 -93q57 0 57 -18q32 -97 69 -110q38 -30 38 -36l8 -18l81 9q5 0 77 -78q24 0 78 -116q94 -74 94 -96q12 -54 35 -68q14 -6 60 -51q26 0 34 -9h6q0 9 55 51q100 61 143 152q7 0 12 24q7 17 94 72q95 87 112 128q70 63 124 63q45 0 92 -36
q33 -72 97 -72q69 0 69 -15l3 -24q-17 -76 -17 -116l3 -24l-3 -9l3 -18q0 -77 -23 -152q-29 -128 -58 -155q-17 0 -31 107l11 155l-3 18l3 12q-11 9 -46 21q-50 58 -106 90q-19 -8 -49 -60q-5 -10 -49 -15q-49 -18 -71 -57q-36 -74 -106 -104q-54 -40 -101 -125l-37 -66
q88 -8 94 -24q-9 -14 -51 -42q45 -103 115 -128q46 -12 46 -33q31 -22 60 -83q6 0 51 -63q6 0 55 -60l40 -27l72 -15q24 -47 120 -119l130 -81q74 -53 114 -53q6 -7 35 -15q15 -8 49 -51q41 -43 66 -54q24 -19 63 -38q0 -6 26 -15q0 -11 37 -33v-3q-81 26 -164 36
q-37 1 -103 38q-28 0 -120 75l-72 45h-32l-86 -15q-110 110 -143 110q-39 41 -170 84q-21 0 -46 48q-46 23 -92 27l-2 3q-9 0 -9 5q7 11 60 21q0 7 38 24v6q-24 45 -101 93q-57 31 -57 62q-34 112 -86 162l-69 17q-13 -12 -32 -59q-17 -10 -57 -69l-63 -101q-26 -30 -49 -75
q-15 0 -38 -72h3q38 -19 38 -35l3 -18l-3 -3q47 -70 89 -84q2 -9 91 -86v-3l-31 -78q-7 -27 -12 -27q-10 12 -23 78l-20 42q-20 33 -103 68q-50 15 -86 33q-70 0 -98 27h-20q-14 0 -57 -48q-59 -27 -132 -42q-24 -65 -52 -80q-43 -18 -126 -36q-68 -24 -149 -90l-26 -47h-6
v3l52 98q0 18 28 54l101 48q75 95 80 95q69 36 127 78q8 11 77 39q52 42 52 56q15 62 37 75q32 27 66 95q51 44 98 108q11 14 17 39l8 9q-38 40 -100 62q-9 0 -9 9q0 23 75 39l3 -3h3l112 18v3q0 5 -32 21q0 9 -20 27l-26 80q0 12 -57 60q-13 2 -43 71q-16 0 -38 72
q-21 27 -63 45l-8 30h-6l-60 -27q-12 12 -12 24v39q0 60 -77 92q-6 10 -49 18q-29 36 -101 92q-13 0 -25 60l-6 6q-11 0 -37 -45l-61 -24h-8l-3 3q0 -9 -115 -17l-9 -6l-14 3v3q15 13 98 53q36 24 66 75q54 56 80 60z" />
    <glyph glyph-name="Y" unicode="Y" horiz-adv-x="939" 
d="M1014 -231h8v-6h-8v6zM-116 1729h3q13 0 98 -41q76 -27 169 -48l4 -3l49 72h7l34 -48q0 -27 23 -38q0 -42 26 -139q4 -48 15 -79v-6l-4 -4v-3q35 0 64 -51l-15 -109q38 -46 38 -58q4 -49 79 -201q7 0 7 -14l16 -7q23 13 79 79q37 42 71 136q22 53 105 163v4
q-15 48 -34 48l-60 30q-11 18 -11 34v24l7 24l-3 27q0 21 49 24q210 -30 210 -48l109 -64l12 3l45 -7l15 4l3 -4l46 7v-3l3 3l245 -17h19l41 3l4 -3h4l165 14q98 -5 98 -11l4 4h3q57 -5 57 -14q-38 -39 -83 -54q-283 -75 -350 -75l-22 3l-4 -3h-4l-45 10l-30 -7h-38l-41 -3
l-4 3h-4l-94 -13h-67q-6 0 -19 -65q-71 -140 -109 -140l-53 -58q-52 -21 -162 -180l-22 -51h4l109 -7v-10q-11 0 -75 -45q-73 -22 -91 -68q-31 -26 -64 -143l-3 -3h-4l-19 3l-83 -150q0 -38 -49 -88l-64 -123l-45 -109q0 -63 -75 -95q-54 -38 -150 -72l-94 -129
q-121 -74 -121 -140l-3 -10l-4 -4q0 -10 -8 -10l-131 41h-38q-91 0 -162 61q-21 27 -71 133q-68 0 -293 92q-119 59 -192 170q-74 65 -166 259q-11 30 -11 68v31h4l52 -95q17 -40 203 -198l155 -123q104 -68 244 -68h45q90 -20 117 -54l15 -24q125 23 203 78q62 23 109 126
v28q8 22 98 81q131 104 131 137l34 27l-3 3v4q146 197 146 211l4 31l-15 58v6q0 13 68 103q0 8 -87 132q-34 62 -60 164q-13 0 -34 71l15 109l-4 62v37q1 17 8 17q-8 45 -45 109q-10 0 -79 82q-10 0 -53 38q-54 17 -113 136z" />
    <glyph glyph-name="Z" unicode="Z" horiz-adv-x="1124" 
d="M-227 1849q100 -112 160 -112q32 -16 160 -136q72 -63 72 -100q12 -24 96 -72q98 -104 112 -148q32 0 100 40l20 12h8q21 -19 84 -36l8 -8h252q240 -64 240 -88l4 12q0 45 -16 136q40 41 92 52q39 20 76 20l16 -12v-8q-20 -24 -20 -36l28 -100v-84l8 -32v-68l-12 -12
q0 -42 80 -152q32 -45 80 -204h-4q-76 69 -88 104q-12 0 -48 56q-144 72 -200 184q-9 -1 -72 -76q-6 0 -32 -56q-50 -91 -96 -148q-33 -41 -148 -108q-24 -50 -92 -128q-75 -82 -144 -124l-36 -36l4 -4h100q76 0 212 20h88q23 -16 56 -60l24 -4h36l248 8l116 -56
q115 -42 180 -100q60 -80 112 -80q96 -35 96 -72q23 -41 52 -72v-4h-12l-56 12h-124q-284 55 -284 88q-20 0 -148 108l-12 4l-220 -36h-352q0 -8 -160 -36q-41 0 -60 -52l-28 -60q-43 -57 -144 -80l-44 -8h-48q-66 0 -160 72q53 68 172 68h44q13 0 40 100v32q0 8 -32 16
q0 12 -8 12h-96q-23 0 -104 -28l-72 -8h-44q-78 26 -152 88q-131 75 -196 128q-93 85 -120 140q-8 1 -12 24h4l140 -84l188 -84q23 -12 52 -12l172 -48h48q13 0 144 72l16 4l20 -8v4q90 112 148 112q73 21 132 116q15 9 112 148q23 0 116 104q60 85 148 144l48 52
q-56 16 -84 16h-296q-15 0 -52 -28q-82 -40 -140 -80h-8q0 49 -36 92l-12 20v120q0 45 -132 140q-87 81 -120 172l-84 120q-10 5 -52 84q-10 0 -44 96l-16 28z" />
    <glyph glyph-name="bracketleft" unicode="[" horiz-adv-x="758" 
 />
    <glyph glyph-name="backslash" unicode="\" horiz-adv-x="569" 
 />
    <glyph glyph-name="bracketright" unicode="]" horiz-adv-x="758" 
 />
    <glyph glyph-name="asciicircum" unicode="^" 
 />
    <glyph glyph-name="underscore" unicode="_" horiz-adv-x="1024" 
 />
    <glyph glyph-name="grave" unicode="`" horiz-adv-x="1024" 
 />
    <glyph glyph-name="a" unicode="a" horiz-adv-x="1051" 
d="M606 1842q15 0 36 -132q58 -124 72 -124q61 0 164 -16h12q116 56 256 80h24l88 -32h40l132 20h76q25 -8 96 -12q0 -9 36 -16v-8q-11 0 -44 -24q0 -14 -60 -32h-96q-72 -52 -148 -52q-80 -53 -156 -68l-100 -36h-224l-36 24v-8l68 -156v-36l32 -108l12 -32
q-12 -42 -12 -84v-8q24 -97 68 -188q0 -53 36 -116l4 -40v-100q35 -72 104 -108l36 -40v-44q24 -20 24 -56l4 4h4q18 -32 24 -32l4 4h4q19 -20 112 -40q0 -15 156 -28q47 0 144 -68q35 0 176 -76q13 0 136 -60q20 -5 20 -12v-4h-4l-456 -48h-32q-113 12 -184 32
q-50 0 -144 44l-144 28q-72 20 -72 48q0 24 -56 24h-28q-111 -40 -144 -40h-40l-8 8v36q0 70 68 92l104 32q0 10 88 72q-50 70 -68 128l-48 104v28q20 29 20 48q-12 139 -40 184q0 28 -36 36l-32 44l-28 -4h-28q-34 0 -96 48q-24 20 -52 20h-12l-56 -20v-116q0 -18 -48 -84
v-136q0 -43 -12 -96l-57 -143l73 63l54 -1l12 31h20q38 42 74 58q16 18 32 92h4q32 -71 32 -88l-40 -140q-9 -56 -56 -56q-77 -60 -124 -60l-122 -43l-147 -114q-113 39 -693 -327l209 219v8l235 180l154 136q35 88 116 149v44q0 34 56 68q0 37 32 128q8 0 16 56v116
q21 79 52 116q76 88 76 120l76 200q8 62 24 92q-24 14 -24 48v32l-12 4l-44 -12h-112q-355 -43 -404 -80h-8q18 26 128 60q116 76 236 140v48q0 37 32 68h40q63 -16 112 -16q23 -40 100 -60h4q20 21 88 192zM506 1138v-52l172 -32l4 4v4l-12 36v88q0 42 -48 156h-8
q-64 -36 -64 -84q-28 -52 -44 -120z" />
    <glyph glyph-name="b" unicode="b" horiz-adv-x="1042" 
d="M-364 1842q144 -130 332 -166h8l123 19h35q13 0 27 12h7q15 -20 159 -46l15 -16l135 77q122 -85 143 -85q37 28 104 28h12q18 21 127 27q27 0 31 46q39 44 158 92v-23q0 -46 -35 -96h4q141 5 313 100l4 -4v-4q-24 -31 -147 -96q-19 -10 -54 -54q-112 -67 -197 -93
l-19 -15q92 -138 170 -232q15 -42 15 -69q-8 -22 -11 -89l3 -15q-155 -74 -200 -74v-3q165 -36 208 -54l116 -128v-4h4v27q0 26 -31 120l11 4q46 -24 66 -81q35 -66 35 -124q0 -69 -70 -196q0 -105 -58 -136l-57 -57v-89q36 27 77 27h58q97 -12 185 -70q101 -43 316 -239
q130 -69 147 -69v-8l-89 8h-19q-74 17 -212 92q-36 25 -162 77q-24 -15 -35 -15q-42 35 -147 54h-8q-25 -23 -42 -23h-4q-133 58 -154 58h-16l-119 -12l-81 50q-92 54 -182 54l-73 -7l-189 46l-69 12h-27q-71 0 -151 11q-63 -42 -100 -89q-68 -27 -97 -27h-61l-62 8h-8
q-80 0 -135 -38h-4l-8 7q64 81 112 81q70 58 166 58q53 73 89 73q74 62 216 62q0 96 50 178l4 11q-38 72 -38 166l7 128q-180 27 -328 73l-42 4h-16l-96 -12h-8q-28 0 -31 12v4q0 18 89 38q95 19 127 19h197q43 8 43 24q27 45 27 150q7 0 7 43h4q-39 87 -54 173l-15 12h-23
q-55 -27 -89 -27q0 -5 -27 -8q-193 82 -209 112l-96 89q-70 79 -81 127zM446 1448l-4 -84v-31l-3 -16q50 -59 50 -89q0 -15 96 -46l108 12h66q5 10 112 65q0 12 23 35l-4 4v4l4 4v4l-4 3v4l4 16q-45 73 -143 115q-40 56 -127 74l-31 4q-28 -31 -97 -51q-10 -27 -50 -27z
M500 924l12 -27v-51l4 -15l-43 -58l-34 -116q37 -76 111 -104q58 -15 116 -19l4 -4h4l35 4q0 -16 65 -27q14 0 85 62q23 42 104 42q45 14 47 23l4 93q0 64 -47 104q-33 77 -81 77q-22 0 -89 27q-29 12 -54 12h-46l-11 -8l-31 8l-23 -4q-32 15 -93 15q-22 0 -39 -34z" />
    <glyph glyph-name="c" unicode="c" horiz-adv-x="905" 
d="M1133 1766h22l178 -86l73 -9h36v-10q-44 -38 -65 -38q-27 0 -55 -14l-87 4q-57 -18 -138 -109q-26 0 -47 -162q-10 -23 -29 -143l-33 -67l4 -5v-5q0 -11 -33 -43q-81 34 -94 77l-48 24l-76 -5h-4q-78 27 -192 100h-11l-171 -5l-18 5l-29 -5h-36l-116 29q-21 0 -77 -124
v-57q0 -77 -50 -153q22 -38 29 -91q76 -59 178 -100l87 -71l51 -14q61 0 185 71q106 67 200 67q29 0 127 -62l25 -10l62 43l3 -5v-114q0 -72 29 -72l19 -14l-4 -71v-10q32 -114 65 -114q69 -56 95 -153q72 -170 101 -324q0 -42 131 -114v-10q-171 60 -225 119
q-20 21 -76 143q0 16 -62 119q-47 117 -73 153l-72 43l-26 14l4 48v14q-118 11 -156 38l-87 38h-8q-106 -52 -185 -52q-88 -62 -127 -62h-36l-26 14l-76 -4h-54q-29 0 -182 81q-90 78 -138 200q-36 117 -84 148q-76 57 -76 124l-47 109v5l11 5l25 -5h37q54 6 54 38
q33 105 91 138q15 18 163 110q22 0 87 76l80 86l153 119q22 10 105 15v-5q-67 -52 -80 -115l15 -19l94 24h66q42 0 83 -47l22 -5l11 5q173 -15 192 -62l37 -15h7q12 14 29 72q18 0 36 143q34 82 98 114z" />
    <glyph glyph-name="d" unicode="d" horiz-adv-x="1023" 
d="M-380 1762q0 -15 52 -28h104l64 -8h44q68 -17 216 -96q67 -80 104 -80h76q45 0 140 -48q15 -8 148 -16l64 8h20q81 -33 120 -108q51 -44 136 -176q102 -31 152 -88l64 -72q140 -28 172 -28h44l88 16q45 0 124 -32h188v-8l-244 -32q-323 -72 -392 -80h-16
q-86 -132 -140 -132q-4 -12 -24 -12h-40q-42 -2 -116 -64q-48 -8 -120 -8h-4q-62 -41 -104 -116q-57 -59 -100 -72q0 -8 -44 -8q-69 -94 -128 -112q-84 -64 -188 -64h-16q-53 20 -72 20q-59 -32 -116 -32h-72v8q26 2 104 100q64 22 64 128q15 57 68 164l8 132q-9 15 -16 60
q-7 0 -8 20v4l12 72l-4 232v108q-24 0 -24 12v8l4 28l-48 52q0 14 -64 40v12q13 0 72 28h32l40 -4q0 45 -108 108q0 20 -132 36q-25 15 -84 28q-89 51 -108 96l4 4h4zM292 1386v-8h-4q24 -43 36 -96l-4 -4l-112 40l20 -104v-12l-20 -240v-20q32 -94 32 -116v-16l-36 -124
l-12 -168q66 72 128 80q38 0 72 44q96 36 96 72q14 51 48 68q18 32 44 32h128q45 0 72 40q102 64 148 64q0 7 28 8q1 24 36 64q-207 96 -208 148q-11 20 -116 96q-135 57 -236 120l-52 -4q-57 16 -88 36z" />
    <glyph glyph-name="e" unicode="e" horiz-adv-x="799" 
d="M-148 1650q161 -121 254 -130l64 -28l-5 40l10 13l124 -25l137 37l23 7l52 6q88 -1 148 6l68 8q11 6 8 26l-4 39l-5 4v4l14 14q111 -84 123 -183l30 -77q7 -56 -1 -225q8 -120 -5 -154q-7 -1 -11 -42l16 -30q-2 -89 -9 -90q-12 -1 -45 136l-11 119q-11 44 -136 221
l-191 13q-73 7 -129 0q4 -27 -48 -34l-36 -4q-22 -39 -43 -42l12 -63q-50 -122 -43 -178v-32q7 0 54 -46q-2 15 29 31q65 -36 96 -32l69 -4q34 35 125 68v-4q-60 -109 -63 -161l54 -80l-135 42l-45 3l-36 -5q2 -12 -20 -31q-90 42 -114 39l-67 -8q-8 -1 -7 -13l3 -121l5 -44
q41 -216 67 -213q1 -10 42 -47q-2 12 54 22l35 5l196 -20l74 25l-1 4l-35 88q-22 181 27 277q59 -69 116 -223l19 -159q2 -13 98 -137q15 -67 36 -64q67 -54 70 -84l51 -119h-4q-227 81 -385 150q-45 -6 -95 57q-31 8 -171 11q-77 18 -207 15q-25 -52 -62 -56q1 -12 -26 -16
q-25 -64 -107 -113l-20 -7l-75 -9q-34 -4 -91 21q-188 48 -195 109q-11 -1 -26 49l8 1l178 -42l76 9q6 1 20 63q14 28 62 84q36 71 33 93l-9 39q51 178 47 207q33 65 28 100l-2 20q-5 40 -41 36l-118 13q-152 -88 -167 -121l-4 4q59 140 91 144q131 96 153 99l61 -1
q89 26 85 63l51 204l-3 24q-39 34 -60 65l-1 4l4 37q-8 -1 -19 26l3 4q-12 -1 -74 47q-45 -5 -200 52l-20 2l-117 -71l-107 -81l-4 3q71 157 150 192q130 108 202 125z" />
    <glyph glyph-name="f" unicode="f" horiz-adv-x="759" 
d="M437 1845h36l112 -22l40 -14v-7l-108 -22q-38 -18 -108 -33h-48l-12 -69q6 -14 12 -14h60q49 -7 148 -36l44 -8q93 0 192 44q20 0 68 25l88 -7l4 4h4q82 -55 116 -55l48 -79v-131q0 -23 20 -94v-54q-22 -81 -56 -156q-40 -116 -100 -217v-4h-8q24 80 24 177q0 65 -68 250
q0 29 -20 44h-72q-28 0 -40 58q0 27 -244 65h-24q-69 0 -120 -62q-16 -47 -16 -68v-116l-24 -127h80l48 -11h52q30 0 72 73v28l-12 124h4q7 -1 24 -47q60 -85 60 -109v-11l-28 -214v-32q0 -57 12 -91v-3q0 -8 -12 -8q40 -138 72 -181v-3q-63 0 -172 144q-12 26 -24 26v40
q0 130 -60 130l-116 7l-4 4q-20 -37 -20 -69v-80q32 -40 32 -72l-12 -36v-15q32 -87 44 -87l12 -11v-50l128 -142q45 -45 64 -47v-7l-108 4h-52q-73 0 -204 -116q-101 -58 -120 -58h-52q-45 0 -128 -51q-17 0 -124 -58q-30 0 -40 -7l-4 4v7q0 52 92 141q24 25 144 69
q77 37 108 109v7l-8 7h-28l-84 -29l-4 4v3q17 24 60 47q19 32 36 91l84 130v51l-8 29v4l20 54l-12 94q-5 0 -12 69l-20 25v29h-4l-100 -3q-35 -26 -52 -26h-4l-132 15v7q73 0 152 112q21 8 92 8h40l12 11v105l8 115v62q-5 65 -16 65h-28q-252 46 -252 65q-24 35 -24 48h8
q25 -19 48 -19h64q59 0 148 29q0 20 44 29v4q-44 90 -44 120v47l4 3v4h8v-4q181 0 300 22z" />
    <glyph glyph-name="g" unicode="g" horiz-adv-x="850" 
d="M665 1847h11l5 -38v-177l-48 -231l-6 -48q75 0 102 -59q114 -107 145 -107q54 27 54 102l16 10h306q34 0 75 17q-2 -34 -166 -167q-1 -23 -140 -59q-44 -35 -54 -70q-39 -70 -69 -70q-140 40 -140 54v22l5 5v5q-88 76 -182 86l5 -155q0 -30 75 -65q54 -54 124 -102l27 6
h21l183 -33l155 16l70 -16v-10q-134 -69 -290 -118l-69 -129v-97q-17 -43 -33 -204q-7 0 -10 -32l5 -193l27 -49q0 -162 -38 -295h-5q-13 0 -54 193q-20 106 -70 183q-59 -15 -85 -38q-47 0 -119 -107v-6h-10l-118 119q-84 51 -221 85q-77 119 -139 280q-22 47 -38 171
l-48 59q59 11 59 60v42l-38 49q0 28 81 145q16 51 48 107q38 111 97 188q24 75 64 75l54 43q0 9 145 59l81 22q42 0 42 32q81 215 81 354zM273 768v-156l-11 -43v-53q14 -59 75 -156q25 -70 70 -70q31 -24 150 -37q66 25 86 91q33 121 92 172l10 32v86q-64 83 -64 96h-11
q-12 0 -16 -69l-16 -16h-5l-43 42q-54 -9 -54 -75l-5 -53v-65q-11 -75 -22 -75q-37 22 -37 64v97q-10 48 -22 48l-43 -10l-5 5v5q0 172 43 226q32 76 32 139v145q-85 -30 -150 -182q-54 -157 -54 -188z" />
    <glyph glyph-name="h" unicode="h" horiz-adv-x="1224" 
d="M1531 1845h8l50 -146l8 -26v-58q0 -12 -124 -259l-73 -55q-34 20 -66 20q-54 0 -93 -23q-58 -9 -58 -36q-15 -25 -31 -90q-5 0 -15 -33q-11 0 -39 -22q-17 0 -77 -127v-200l-12 -46v-48q0 -19 66 -207q12 0 27 -81l23 -52l51 -81q29 -25 81 -110q9 -4 54 -68
q37 -39 100 -152q8 0 78 -91q49 -40 96 -107q35 -28 35 -45v-3h-4l-89 48l-120 94q0 19 -61 39q-60 37 -136 68l-85 87l-38 59h-12l-93 -46q-185 -82 -197 -100q0 -10 -15 -16l-4 3v3q16 56 93 181l4 17v71q0 35 -24 120v16q0 20 47 107q23 62 23 90l-62 123v42l-27 4h-54
q-16 -13 -31 -13q-21 0 -66 29q-38 3 -38 23h-4l-54 -23q-97 -9 -97 -16l-4 -4q0 -9 -7 -9h-16q-33 0 -69 -10l-8 -29v-133q11 -86 46 -158l31 -91q39 -89 170 -295q12 0 70 -87l-4 -3h-4l-139 84q-121 45 -151 45l-123 36h-12q-22 -33 -116 -91q0 -23 -77 -52
q-69 -22 -220 -107q-37 -27 -166 -87l-170 -49l-101 -29l-54 -16v3q0 30 62 88q67 33 259 100q0 8 100 55q15 47 131 120q119 50 163 120q40 33 139 81l19 45v133l-15 116v334q-2 39 -51 129l-7 20v22q38 40 38 55v29q-54 77 -54 140q-92 156 -208 194q-45 44 -112 91v3h31
q178 -49 247 -62q69 -11 131 -81q33 -43 70 -55l38 -9h58q22 0 128 71l4 -3v-65q-5 -40 -109 -149q-11 -17 -11 -39q9 -184 66 -184q23 -30 88 -30l82 59q24 -20 46 -78h50l31 19v81q15 78 31 114q62 80 62 100v23q-42 110 -62 110q-85 49 -162 81v6l77 3q95 0 147 -35
l77 -36h19q74 0 174 42q74 7 101 29q26 0 100 65q112 49 112 68q11 0 93 162v7z" />
    <glyph glyph-name="i" unicode="i" horiz-adv-x="1060" 
d="M-443 1843h4q47 -47 164 -192l68 -56q1 -7 76 -48q0 -23 212 -72q68 0 108 12h120q75 -13 116 -40h4l4 20v48q-32 34 -32 56v36q0 15 -80 40v4q0 11 60 20q44 0 100 -24h88l100 12q12 -15 12 -28v-72l-20 -64v-20h48q16 0 108 36q171 27 224 72q67 50 92 108q12 34 36 48
h44q176 0 176 24l52 28l4 -4v-4q-62 -79 -152 -132q-60 -31 -60 -64q-63 -132 -168 -172q-26 -23 -124 -36q-40 0 -160 -64q-132 -28 -132 -44v-164q0 -21 -8 -271v-80l16 -52l-19 -159l95 -145l88 -24h72l32 8h32q24 -24 56 -24l24 4l104 -88l48 8l47 2l2 80q34 18 89 26
q8 174 189 150q10 -14 76 -40v-8h-24q-144 9 -203 -343q-205 -45 -220 5l-48 44q-40 24 -52 24h-20q-76 -28 -132 -28l-12 -4h-116l-88 28q-23 -107 -96 -196q0 -22 -20 -32h-8q0 6 -48 40q-60 78 -60 120q-6 0 -8 40l-128 76l-112 -52q0 -15 -88 -20h-4l-112 16h-20l-32 8
h-8q-124 -60 -268 -100q-41 -8 -128 -8h-64l-8 8q97 104 112 104q100 56 160 136q43 36 60 36h236l108 -8h60l136 72h84q-48 101 -48 124v12l8 8h4q8 0 8 -12h24l28 76l8 32v96l-21 188l-23 103l-8 36v56q0 76 -112 104q0 6 -56 16h-8q-62 -12 -144 -44q-90 -60 -132 -64
h-16q-31 0 -76 60q0 26 -88 88q-53 40 -68 100l-68 128q-22 0 -72 124l-12 80v64z" />
    <glyph glyph-name="j" unicode="j" horiz-adv-x="900" 
d="M683 1852q6 -27 96 -104q-14 -21 -76 -56q-21 -44 -36 -44v-8l36 8l208 4q22 -34 36 -76l12 -8h76q74 0 272 -24h48v-8h-28q-42 0 -256 -64h-96q0 -39 12 -56v-72q-8 -40 -16 -40q-1 10 -76 72q0 11 -44 48h-128q-24 -23 -24 -52v-12l16 -56l-36 -108v-48l20 -68v-12
q0 -21 -40 -64v-12q13 -27 72 -84v-72l-16 -48l-3 -412q0 -36 68 -116l20 -60l20 -68v-48q12 -39 12 -80q0 -50 -28 -108q0 -35 -68 -128q-161 -116 -248 -148h-20q-74 20 -100 20q-41 12 -197 84q-434 228 -498 293q-42 34 -56 64q-7 0 -56 56q-53 44 -68 44l-40 84
l-71 109q-12 124 82 190l35 28q59 148 240 100l90 -10l169 -334l-82 50q-226 263 -364 13l130 -171l112 -66l232 -140q165 -122 252 -111q-1 -36 36 -24l126 62q59 67 96 155l4 36v36q0 14 20 48v36l-24 84l-8 36v28q0 26 35 332v12q-11 11 -28 124l-56 96v4q0 20 24 36
l40 84q-20 0 -48 76l8 36v20l-8 12l-4 152q-3 14 -36 40v4h-44l-16 12h-152v-64l-16 -32v-64l-8 -8q-57 72 -104 164l-4 4h-80l-64 -8l-160 16l-68 20q-181 80 -196 80v8h4l36 -8h308q54 21 192 32l40 32q6 44 20 44l124 -44l64 -16h28l92 20h8q0 48 -36 48q-39 15 -40 24v4
q30 37 168 68q34 38 132 72z" />
    <glyph glyph-name="k" unicode="k" horiz-adv-x="1288" 
d="M-289 1851h24q68 0 88 -32l80 -76q99 0 444 -100q29 0 40 -20v-68l32 -88v-12q0 -39 -44 -92q60 -120 60 -136q24 -84 44 -84q0 12 96 16q124 31 124 52l88 60l24 84l44 80q0 64 40 64l-16 64v8q0 138 335 240q-100 -148 -119 -172l4 -20l-68 -40v-84l-48 -136l4 -120
q0 -145 -132 -176q0 -10 -40 -24v-8q56 -17 56 -28l-16 -20q48 -39 48 -92q0 -23 108 -112q38 -51 120 -104q32 -48 68 -136l32 -44q36 0 72 -92q84 -120 112 -120q180 -44 180 -72q89 -103 208 -211q239 -228 533 -377q-388 110 -660 348l-201 100l-56 12h-20
q-143 -36 -150 70q-76 64 -70 74l8 8q-13 23 -24 72q-13 13 -52 104q-106 29 -168 96q0 16 -16 16l-28 32q-44 49 -44 76v44q0 14 -48 80q0 10 -84 56l-80 92q-37 -15 -60 -36h-76q-25 0 -60 -40q27 -22 32 -60l-20 -60q-28 -51 -28 -68v-24q83 -60 96 -120q0 -15 -12 -32
v-56q19 -48 88 -48q0 -6 80 -12q12 -11 16 -64q44 -67 44 -96q-6 -13 -48 -36l-16 4q-113 -18 -144 -56q-105 -68 -128 -68l-44 28q-104 -31 -116 -64q-8 -25 -76 -52q-15 0 -56 -32q-26 -5 -132 -116q-35 -21 -60 -68q-69 -38 -176 -80q-79 -33 -180 -100h-4v12
q17 98 60 128q88 67 112 96q15 0 100 116l92 60q19 13 84 32q0 43 76 160q25 64 48 64q24 26 24 40q32 14 64 64q32 18 32 24l-24 104v24q0 20 28 52v8q-28 24 -28 124v180l-12 48q-24 0 -60 -44q-21 -19 -100 -44q-36 30 -92 56q-48 41 -48 76l12 8h4q21 0 44 -36h12
q132 93 132 144q21 25 60 132v84l-44 140q0 65 -68 88q-161 64 -184 120q-45 52 -56 52l-56 56v-4l4 -4v-4l-4 -4h-8l-52 60q-98 71 -100 84l12 4l44 -8z" />
    <glyph glyph-name="l" unicode="l" horiz-adv-x="671" 
d="M570 -180l-196 32l-144 -4l-88 -16l-184 16h-16v8l108 84l136 32l4 24v16q0 8 -24 8q0 8 -44 8l-4 4v28l16 52l-4 40l12 32v60l-4 336l-40 112v12q0 29 24 96v20q0 71 36 244q-18 220 -36 220q-31 54 -136 104q-70 43 -100 132q-30 63 -68 224l-40 104h12
q45 -30 100 -100q26 -12 160 -180l112 -44q48 0 104 -44q88 -31 88 -72q0 -20 20 -64l4 -28q0 -89 -20 -180q0 -62 32 -216v-96q-8 -5 -20 -76q-5 0 -28 -56q16 -49 32 -152v-100q0 -25 52 -164l8 -76v-8l28 -4h32l88 20q293 -52 388 -52l-36 104l-4 4l4 4q106 -48 304 -180
q12 0 156 -92l24 -8v-8l-116 -4q-137 0 -212 28l-208 -20l-128 4l-84 -20q-66 0 -224 56l8 -20q-36 -5 -36 -12q2 -52 8 -52q42 0 144 -108v-12z" />
    <glyph glyph-name="m" unicode="m" horiz-adv-x="1123" 
d="M-384 1764q100 -32 228 -48q69 -32 172 -32q53 -19 132 -32h36q40 0 40 -44q14 -14 32 -76q33 0 180 -116l4 -4v-4q-37 -44 -116 -44v-28l-8 -48q0 -107 24 -232l4 -60l-8 -36l52 -84q10 -3 64 -88q74 0 120 -88l24 -4q0 24 64 80q9 29 188 124v8q0 85 -48 196l20 76
l-4 24v28l16 68q-101 111 -108 164v44l4 4v4l28 -16h4q39 10 140 92l68 32h8l12 -8l-4 -28q47 -104 100 -104q160 -80 168 -124q43 -64 104 -200q74 -118 156 -172q50 -34 104 -88h-4q-136 52 -184 92q-156 94 -156 128q-19 0 -148 124q-31 50 -84 88q-10 -66 -20 -84v-12
q24 -36 24 -52q-36 -86 -36 -104l-8 -32v-16l12 -48q202 40 244 56h4l-128 -100q0 -8 -116 -84l-16 -24q12 -15 12 -116l36 -56q12 -20 12 -40v-24q-32 -73 -32 -88q0 -36 28 -80l4 -80q10 -3 24 -52q238 -27 276 -48q98 -23 176 -104l68 -60v-4l-224 20q-68 20 -108 20h-40
q-77 -24 -120 -24v-16q0 -34 -36 -120h-4q-34 30 -88 112l-52 -4q-164 24 -276 24h-72l-68 -4v8q19 0 56 56l88 56q144 52 164 52q40 0 100 28q0 28 -48 96l-24 76l16 84l-4 4v4q36 66 36 100q-2 116 -8 116q-129 -73 -132 -84q-64 -56 -96 -132q-64 -53 -64 -64l-16 -84h-8
q-16 72 -72 172q0 11 -48 56l-60 48l-48 64l-4 -4h-8l-28 48h-4v-12l4 -24l-16 -116q12 -50 12 -88v-4q0 -149 -28 -208v-16l20 -84l-20 -152v-48q0 -24 -28 -92l-4 -84l4 -80l-8 -36l4 -56l-16 -44l4 -44l-4 -28h-8l-12 56l8 24q-32 46 -32 56q18 8 20 16v4l-20 44v16
l16 48l-8 72l12 68q-24 58 -24 88v8l12 56v12l-20 72l4 60q-13 132 -28 132l-4 24q0 163 36 300l-8 164q-18 0 -132 96q-15 0 -48 44q-143 102 -152 116v4q90 -15 112 -48q96 -91 188 -96l16 -4q0 63 -20 136q-8 224 -20 224q-112 59 -112 124q-103 20 -256 120
q-51 14 -136 152z" />
    <glyph glyph-name="n" unicode="n" horiz-adv-x="1241" 
d="M143 1889h4q81 -69 132 -84q121 -92 136 -92h4l240 44h8l4 -4v-4l-116 -164q103 -96 152 -96h124l64 8h112l244 4l72 -4q26 0 120 76q13 1 108 160q0 23 96 104l20 20v-8q-21 -29 -28 -92q-128 -344 -196 -424q-53 -118 -88 -144q0 -16 -24 -32l-156 48l-60 4h-32
q-68 -163 -80 -268v-56l12 -68l-20 -92v-28q0 -17 76 -128l8 -32l-4 -100q26 -77 60 -96q24 -12 136 -28h64l68 8l132 -4h80l192 -144q54 0 112 -88q100 -73 100 -100l-4 -4h-4q-71 16 -388 120h-104q-25 0 -132 52l-236 4h-32q-128 -44 -128 -72q-60 -67 -112 -84
q-51 -30 -104 -96l-40 -32q136 -74 136 -100q48 -61 48 -76v-44l4 -48h-8q0 27 -120 124q-43 10 -160 96h-16q-105 -56 -212 -56q-101 -24 -192 -24v4q21 38 280 148l4 4v8q-70 40 -132 100q-47 23 -164 52q-5 15 -108 48l-28 -4q0 20 -244 52h-20q-32 16 -32 104v28l8 8h48
q63 32 144 48q52 40 84 52v52l-8 76v20q0 22 60 156l-2 241q-81 72 -458 372l425 -179l3 98q0 97 -88 208q-89 77 -240 124q-24 11 -24 40q-15 9 -28 32l4 4h4q120 -48 256 -48l40 8q79 -4 104 -12q36 24 92 88l84 20q0 11 -104 132zM307 1109q0 -64 104 -140
q82 -79 156 -120q75 -90 140 -128q88 -104 100 -104l82 -88q-18 126 -18 152v40q0 34 -48 148l-4 28l44 100l4 20l-8 56v68l12 80v32l-44 -12h-12q-62 0 -164 100l-204 168q-72 -23 -72 -112q0 -25 -60 -204zM254 874q1 -242 1 -325v-40q0 -118 32 -244q35 -49 136 -116
q82 -73 104 -124l68 -56q89 148 132 148q14 24 32 24v32l68 85q80 58 -33 158q-85 131 -237 255q-84 19 -151 103q-112 76 -152 100z" />
    <glyph glyph-name="o" unicode="o" horiz-adv-x="826" 
d="M384 1763h8q31 -108 60 -147q48 -28 88 -104q83 -31 120 -54q35 -39 52 -125q119 -203 123 -269q10 -16 22 -74l5 -86l-8 -64l21 -40q6 -112 -66 -248q-27 -65 -25 -103l2 -26q2 -47 -67 -90q-118 -51 -115 -97q-7 0 -24 -61q-91 -79 -106 -130q-20 -53 -56 -67
q-61 -37 -88 -46q-3 49 -93 187l-105 138q-51 20 -109 148q-122 185 -124 208v15q-3 49 23 50q19 1 18 20l35 130q19 133 16 188l-5 90q-3 57 60 86q-1 18 20 35l16 -3q27 100 55 101q69 32 67 75q-2 45 60 82q110 47 109 62l5 204q7 0 6 15zM176 925l1 -4l30 -81
q-54 -135 -55 -169l1 -22l43 -99l3 -57q3 -60 153 -198l50 -20q25 80 56 81q90 71 89 103q19 131 58 176q26 75 20 189q8 0 7 19l-4 83q-27 69 -28 92l6 42q-57 149 -59 177q-2 43 -118 111q-37 -54 -101 -92q-14 -73 -62 -105q-55 -32 -50 -115q-23 -40 -30 -85
q-7 -1 -10 -26z" />
    <glyph glyph-name="p" unicode="p" horiz-adv-x="689" 
d="M-533 1635q30 0 152 -80q134 -20 248 -56h28l36 -4l112 -44l124 4q21 0 36 12q20 0 24 -12q48 0 64 -64l-20 -60v-4h4l24 44l120 24q146 80 160 80h4q108 0 228 -52q32 0 32 -104q9 -28 52 -68v-116l20 -64v-108l-28 -100q-123 -53 -192 -100h-88q-51 0 -80 -12
q-91 -37 -172 -48q-75 0 -92 -112v-48l32 -40v-60q0 -47 56 -120l-20 -56q0 -20 48 -96l96 4l4 -4q44 -17 44 -24l-8 -32v-40l-20 -16q-85 -37 -88 -44q-65 0 -148 -44q-160 -112 -228 -144l-264 -188q-154 -16 -168 -24v4q20 27 40 36q29 44 72 44q33 0 144 120
q64 21 132 152q56 25 80 84q43 38 44 48q0 37 -16 68l-4 236q0 13 -36 84q0 178 56 256v4h-48l-28 4q0 -8 -28 -8h-84l-128 -12v4l-4 4q-124 66 -124 72v4l8 8h60l44 8h4l80 -32q50 0 160 48q24 0 24 36q-3 104 -8 104l-32 104q0 108 -32 156l-68 36q-35 0 -52 68l-56 44
q-112 54 -112 60q-40 12 -112 88q-82 30 -120 80v4l4 4h8zM691 1107q-8 76 -16 76q0 56 -132 104h-116q-91 -68 -116 -68q-68 -84 -68 -104v-48l16 -40q40 -41 56 -144v-4l44 8q89 0 240 80q14 0 76 -36q20 0 52 60v16z" />
    <glyph glyph-name="q" unicode="q" horiz-adv-x="1005" 
d="M438 1663h4q22 -32 44 -104l4 -4h56q176 -66 176 -108q104 -43 104 -76q79 -125 124 -264q13 -100 36 -100v-8h-36v-8q52 -71 52 -120v-32q0 -45 -124 -296q-32 -58 -32 -80q-29 -104 -56 -104l-32 -64l-24 -72h4l116 64h12l188 -84q104 -17 104 -64q65 -93 112 -116
q30 -6 164 -124l84 -52q20 0 180 -116q156 -88 224 -88h68v-8q-130 -48 -196 -48q-167 0 -252 36q-74 15 -232 132l-160 100q-249 122 -264 144l-32 12q-63 -40 -96 -40q-96 0 -168 64q-19 28 -84 60q-31 36 -156 36q-16 8 -44 8l-84 -20h-32l-8 8v24l16 116q-52 61 -68 112
q-61 113 -92 128q-75 85 -108 228q0 54 20 72q-72 9 -132 40v4q156 49 156 116q6 41 72 100l8 36v24l-12 40v80q0 52 72 192q0 21 64 92q224 15 224 44q0 16 36 84v4zM150 907q25 -25 28 -52v-36l-8 -32v-56q0 -40 44 -152q0 -58 100 -140q33 -35 96 -52v36q-12 82 -44 152
l-24 84v16q0 34 36 120l44 232l4 4h4q17 -65 72 -120q20 -25 20 -120v-80q34 -172 68 -172q12 -40 36 -40q0 8 72 68q35 56 60 220q4 37 24 84v52q-73 121 -80 200q-8 1 -12 28v20l24 32v12q-11 17 -120 80l-44 60h-36q-80 28 -120 28h-8q-23 0 -48 -68q-33 -65 -100 -156
q-48 -54 -48 -156z" />
    <glyph glyph-name="r" unicode="r" horiz-adv-x="750" 
d="M86 1519q64 -28 172 -28l8 -8l-4 -64v-4q56 40 168 96h12q42 -30 124 -72q103 -35 132 -64l-12 -56v-20l20 -52q29 -36 48 -220q0 -25 -80 -88q-48 -3 -88 -24v-4l4 -4q56 -20 56 -76v-88q15 0 44 -88q52 -25 100 -68l76 -140q11 8 52 12q116 30 156 84l40 136
q87 180 92 236h8v-8l8 -64v-200q0 -27 -48 -108v-72l12 -116v-12q0 -20 -28 -76l-68 20h-28q-68 0 -120 -24l-132 -76h-28l-120 -16l-8 8v88q0 32 -20 76l-76 132q-24 72 -56 88q28 71 28 104v20q0 33 -68 104q-96 35 -108 48q-23 0 -96 64h-4q-28 -64 -36 -128l24 -76v-24
q-48 -111 -48 -196v-16q0 -43 12 -88q0 -11 36 -28q0 -37 -52 -112q-39 -107 -132 -196l-12 4l-52 24q0 19 -124 36h-52q-88 0 -176 80v4h92l68 -8q92 12 92 20q62 0 112 136v8l-8 184v28q40 156 40 184q32 143 32 208v40l-8 76v40q0 53 20 120v20l-32 84h4l4 4h4
q-16 40 -24 40h-4q-60 -15 -60 -24q-35 0 -68 -108q-55 -104 -188 -104h-8q18 19 64 48q31 20 44 60q64 216 188 300zM598 1183q0 104 -88 148q-20 -9 -44 -40l-100 4h-4l-120 -84q23 -78 60 -104q0 -38 76 -56q96 4 160 20q64 22 64 84z" />
    <glyph glyph-name="s" unicode="s" horiz-adv-x="1051" 
d="M1071 1403h16q185 0 292 -52l113 -5q0 -9 -11 -9l-74 -5l-43 9l-59 -4h-19l-47 23q-46 0 -172 -90q0 -33 -43 -42q-5 0 -27 -57l4 -24l66 24h8q70 0 160 -52q133 -55 246 -142q148 -161 148 -203l-4 -5h-4q-29 14 -113 24q-127 52 -359 189q-43 -11 -113 -95l-74 62
l-35 23q-42 0 -113 -47l-74 -19l-78 66l-43 15h-12q-28 0 -43 -10q-41 95 -164 95l-39 14q-27 0 -27 -66l-23 -43v-118q0 -44 23 -85q0 -90 51 -90q37 -29 140 -76l39 9h51q117 -23 300 -42q33 0 43 -76q15 -15 23 -90q16 -21 16 -42v-10l-51 -137v-29l8 -37v-48
q0 -50 -35 -118v-24q11 0 109 -71l39 -4h20q101 0 195 33l4 -5v-5q-78 -61 -250 -161h-12q-95 34 -191 34q-18 56 -35 56q-24 -4 -117 -123q-23 -3 -74 -71l-51 -42h-4l-199 208q-78 118 -97 118q-96 0 -133 38l-66 62h-4l-4 -5h-4q-55 113 -97 113q-13 -37 -39 -37l-70 71
l-24 -10q-168 87 -168 118q-41 58 -156 313q-97 166 -97 236l-4 24l16 189h7q26 -126 129 -317q34 -47 63 -123q64 -117 136 -189q10 0 55 -43q37 -41 58 -47q18 35 106 71q117 -19 117 -28q57 -170 93 -176q23 -33 98 -33h15q7 0 28 -56q69 -27 136 -67l20 -4v-5
q-16 -20 -16 -38v-28q0 -54 98 -81q60 0 89 100q9 0 12 61l-4 24q74 42 74 99q43 102 59 175q-100 95 -172 95h-90q-54 0 -97 52q-141 50 -234 109q-64 104 -70 170q-9 0 -16 62q-27 37 -27 151v5l4 128q67 58 124 90l63 118l31 33h8l11 -10h4l32 10h27q26 0 74 -38
q72 0 172 -104l23 -33q104 71 156 71q129 0 129 61q18 31 140 95z" />
    <glyph glyph-name="t" unicode="t" horiz-adv-x="768" 
d="M1322 1850h4v-24q-20 -65 -24 -144q-37 -64 -76 -156l-44 -84v-28q0 -35 -68 -156v-28l32 -132v-48q-20 -51 -28 -108q-32 -77 -44 -196l-4 -16l-4 -4h-8q-32 79 -32 148v132q0 11 -32 56q-24 63 -72 80q-1 32 -124 120q-104 44 -208 44h-36l8 -12q-34 -56 -60 -60
q-36 -44 -36 -68v-92q0 -17 -44 -108l-4 -24v-28q20 -60 32 -132q28 -52 28 -64v-52q0 -18 -40 -104v-40l36 -64v-36q16 -17 16 -32v-44l88 -44l104 -72q107 32 144 32h36q57 -15 88 -36q62 -24 92 -24h32q86 -46 176 -120q101 -89 120 -132v-8l-188 92q0 8 -24 12
q-26 14 -72 60q-136 -24 -188 -48h-16l-116 52q-260 -41 -260 -76l-128 -68l-136 -72q-19 0 -180 -104l-156 -68l-72 -20h-12q-192 0 -208 -36h-16v8q69 60 188 104q124 59 236 148l56 40q41 33 100 64q44 63 44 80h-8q-88 -16 -116 -32l-4 4v48q13 41 24 52l68 140l-12 32
v20q0 34 88 196v12l-24 24v48l8 44v72q-32 29 -60 192q-12 45 -12 88l76 104q-44 57 -60 96h-4q-60 0 -172 48q-77 0 -168 32l-40 -88v-32l-16 -140v-8q31 -50 60 -76v-4l-24 -40v-12q9 -42 68 -100v-4h-20q-72 0 -124 36q-90 121 -104 200q-68 78 -68 124v24q0 78 -28 172
v4q0 56 36 56q80 57 104 124h8q64 0 116 -12h152q56 0 192 -48q60 121 60 164q18 36 28 36l72 4l80 -28l104 40h52q18 0 100 -28q64 -11 64 -28v-8q-16 -8 -68 -8q-43 -28 -132 -48h-60q-20 -18 -20 -32q0 -30 48 -72h4l12 8h52l136 -40h28q76 10 76 32h4l84 -28
q208 80 208 136q6 0 16 36q8 0 12 32q5 0 12 28q12 0 24 16q126 50 168 132z" />
    <glyph glyph-name="u" unicode="u" horiz-adv-x="920" 
d="M-544 1630q68 0 68 -36h68q36 -11 132 -20q7 -13 112 -24q0 -8 28 -8l44 -16l52 -80h200q13 0 128 -56q30 0 40 -20q-21 -33 -48 -108v-44q-8 -59 -36 -92v-56q0 -11 36 -68q44 -87 44 -220q-44 -60 -44 -76v-20q0 -33 80 -164q33 -1 64 -28l68 36q33 -15 56 -56l4 -4h20
q92 52 92 92q9 0 16 48q-12 95 -68 200q-28 44 -28 60v84q-59 148 -88 148q0 12 -68 28v124q0 11 52 16q63 46 204 88q88 54 88 120l12 8h20q120 -62 120 -68v-4l-4 -164q16 -140 36 -220v-100l12 -44l-4 -4h-12q-39 15 -68 96q-20 27 -84 216q-8 0 -8 16l-4 4h-4
q-50 0 -64 -80q14 -45 48 -108q0 -87 112 -176l16 -28v-48q-44 -35 -44 -88q0 -15 40 -24h28q0 -20 -48 -92l-24 -60v-68q-84 -113 -84 -124q-12 -80 -76 -80h-56q-26 -13 -64 -124q-7 -1 -44 -72l-20 -24q-45 148 -68 148q-84 9 -84 36q-35 24 -88 104l-116 44
q-51 96 -80 244v48q12 14 24 80q-12 97 -44 140q-16 29 -16 60v12q40 90 40 112l-4 144q-34 62 -84 104q-58 72 -104 96h-112q-77 76 -116 76q0 14 -112 44q-23 23 -172 56q-13 8 -216 32h-8v8h100l48 12h12q57 0 108 -12q29 24 44 24z" />
    <glyph glyph-name="v" unicode="v" horiz-adv-x="911" 
d="M801 1831q19 -16 52 -81q64 -89 64 -115h12q29 0 100 35q101 -65 124 -65h124q8 -6 76 -158q8 -19 8 -69v-65l12 -77v-8l-8 -7q-55 48 -156 192l-56 38h-4q-26 -196 -48 -196q-41 51 -88 138l-12 8h-4q-152 -61 -152 -115v-8l8 -11v-58l24 -65v-23q0 -71 -48 -257
q0 -82 -36 -108q-48 -84 -48 -103q-15 -79 -56 -139l-56 -96q-68 -22 -68 -69v-11q0 -23 28 -23v-8l-48 -364l-4 -269l4 -27q-11 -17 -16 -92l-4 -4h-20q-8 0 -16 81q-19 58 -56 272q-7 0 -32 104q-36 68 -36 88q36 70 48 119v38q0 17 -80 127q-39 76 -68 169
q-100 124 -100 200q-16 33 -36 145q-28 94 -44 231q-48 11 -48 115v38l-8 8h-28q-104 28 -104 34v8q84 59 84 100v8q-9 54 -60 96q-43 9 -112 50q-15 0 -88 72q-99 70 -140 70l-32 19h-112l-8 7l132 69l4 4h104q78 -42 132 -42q71 -54 112 -54q0 -6 52 -11q34 -62 60 -62
q12 -13 112 -23l12 -3h88l20 -23v-16l-60 -92v-188q8 -76 72 -169q32 -19 48 -127v-61l36 -127q0 -37 60 -130q40 -63 60 -111l4 -24h4l84 192l76 135q0 11 16 23l68 161v15l-12 96v200q0 92 64 146v207q8 96 24 96z" />
    <glyph glyph-name="w" unicode="w" horiz-adv-x="1060" 
d="M-573 1856h4q47 -42 168 -179q47 -30 85 -88l13 -2q-1 8 11 9q50 -39 96 -34q218 -98 267 -93l20 -2l50 26q41 -45 42 -60q-9 -1 -15 -46l4 -36l40 -116q9 1 38 -57l9 -7l3 -28l-3 -237l5 -52q22 -208 70 -278l29 -49l12 1l89 266q9 31 89 102l-5 48l-2 137l-2 16h8
q72 -106 79 -176l119 -245q45 -84 104 -110l44 -44l4 1q15 58 67 128l-28 266q-3 29 -19 66l-12 120l4 32l-1 12l-74 129l-11 27l-2 20q0 6 58 26q22 15 42 97q124 62 220 124l27 15q118 -44 243 -59l23 -211l14 -63q5 -42 -97 -147q-18 -1 -52 -37q-31 21 -35 64l-9 8l7 8
l32 4l49 29l-5 44l-34 57q-3 32 4 76q-9 -1 -56 35l-19 -2q-94 -10 -120 -45q-97 -59 -123 -97q35 -68 39 -101l16 -42l28 -267q3 -21 69 -114v-7q10 -94 -84 -235l-30 -55q-38 -59 -60 -119l4 -36l6 -168l1 -12q-10 -27 0 -193l7 -68h-8q-49 161 -104 262q-18 18 -61 118
q-4 40 -61 90q-83 58 -131 172q-14 46 -25 45q-31 -71 -56 -74q-64 -7 -61 -38q-62 -170 -60 -192l-4 -77q45 -10 48 -39q-45 -32 -165 -70q-125 -67 -164 -129l-61 -67l-15 -6l-24 -2q-393 -19 -395 7q-26 -3 -186 44h-4l-1 12l60 6q48 5 299 -17l107 12q43 4 267 257
q36 4 55 90l-1 44q-3 26 -50 132l-75 181l-4 40l10 130l-56 110l-32 118l-10 135l-19 143q-70 162 -169 151q-116 34 -194 80q-24 -2 -141 195l-56 114z" />
    <glyph glyph-name="x" unicode="x" horiz-adv-x="772" 
d="M-290 1756q41 -64 132 -93q57 0 57 -18q32 -97 69 -110q38 -30 38 -36l8 -18l81 9q5 0 77 -78q24 0 78 -116q94 -74 94 -96q12 -54 35 -68q14 -6 60 -51q26 0 34 -9h6q0 9 55 51q100 61 143 152q7 0 12 24q7 17 94 72q95 87 112 128q70 63 124 63q45 0 92 -36
q33 -72 97 -72q69 0 69 -15l3 -24q-17 -76 -17 -116l3 -24l-3 -9l3 -18q0 -77 -23 -152q-29 -128 -58 -155q-17 0 -31 107l11 155l-3 18l3 12q-11 9 -46 21q-50 58 -106 90q-19 -8 -49 -60q-5 -10 -49 -15q-49 -18 -71 -57q-36 -74 -106 -104q-54 -40 -101 -125l-37 -66
q88 -8 94 -24q-9 -14 -51 -42q45 -103 115 -128q46 -12 46 -33q31 -22 60 -83q6 0 51 -63q6 0 55 -60l40 -27l72 -15q24 -47 120 -119l130 -81q74 -53 114 -53q6 -7 35 -15q15 -8 49 -51q41 -43 66 -54q24 -19 63 -38q0 -6 26 -15q0 -11 37 -33v-3q-81 26 -164 36
q-37 1 -103 38q-28 0 -120 75l-72 45h-32l-86 -15q-110 110 -143 110q-39 41 -170 84q-21 0 -46 48q-46 23 -92 27l-2 3q-9 0 -9 5q7 11 60 21q0 7 38 24v6q-24 45 -101 93q-57 31 -57 62q-34 112 -86 162l-69 17q-13 -12 -32 -59q-17 -10 -57 -69l-63 -101q-26 -30 -49 -75
q-15 0 -38 -72h3q38 -19 38 -35l3 -18l-3 -3q47 -70 89 -84q2 -9 91 -86v-3l-31 -78q-7 -27 -12 -27q-10 12 -23 78l-20 42q-20 33 -103 68q-50 15 -86 33q-70 0 -98 27h-20q-14 0 -57 -48q-59 -27 -132 -42q-24 -65 -52 -80q-43 -18 -126 -36q-68 -24 -149 -90l-26 -47h-6
v3l52 98q0 18 28 54l101 48q75 95 80 95q69 36 127 78q8 11 77 39q52 42 52 56q15 62 37 75q32 27 66 95q51 44 98 108q11 14 17 39l8 9q-38 40 -100 62q-9 0 -9 9q0 23 75 39l3 -3h3l112 18v3q0 5 -32 21q0 9 -20 27l-26 80q0 12 -57 60q-13 2 -43 71q-16 0 -38 72
q-21 27 -63 45l-8 30h-6l-60 -27q-12 12 -12 24v39q0 60 -77 92q-6 10 -49 18q-29 36 -101 92q-13 0 -25 60l-6 6q-11 0 -37 -45l-61 -24h-8l-3 3q0 -9 -115 -17l-9 -6l-14 3v3q15 13 98 53q36 24 66 75q54 56 80 60z" />
    <glyph glyph-name="y" unicode="y" horiz-adv-x="939" 
d="M1014 -231h8v-6h-8v6zM-116 1729h3q13 0 98 -41q76 -27 169 -48l4 -3l49 72h7l34 -48q0 -27 23 -38q0 -42 26 -139q4 -48 15 -79v-6l-4 -4v-3q35 0 64 -51l-15 -109q38 -46 38 -58q4 -49 79 -201q7 0 7 -14l16 -7q23 13 79 79q37 42 71 136q22 53 105 163v4
q-15 48 -34 48l-60 30q-11 18 -11 34v24l7 24l-3 27q0 21 49 24q210 -30 210 -48l109 -64l12 3l45 -7l15 4l3 -4l46 7v-3l3 3l245 -17h19l41 3l4 -3h4l165 14q98 -5 98 -11l4 4h3q57 -5 57 -14q-38 -39 -83 -54q-283 -75 -350 -75l-22 3l-4 -3h-4l-45 10l-30 -7h-38l-41 -3
l-4 3h-4l-94 -13h-67q-6 0 -19 -65q-71 -140 -109 -140l-53 -58q-52 -21 -162 -180l-22 -51h4l109 -7v-10q-11 0 -75 -45q-73 -22 -91 -68q-31 -26 -64 -143l-3 -3h-4l-19 3l-83 -150q0 -38 -49 -88l-64 -123l-45 -109q0 -63 -75 -95q-54 -38 -150 -72l-94 -129
q-121 -74 -121 -140l-3 -10l-4 -4q0 -10 -8 -10l-131 41h-38q-91 0 -162 61q-21 27 -71 133q-68 0 -293 92q-119 59 -192 170q-74 65 -166 259q-11 30 -11 68v31h4l52 -95q17 -40 203 -198l155 -123q104 -68 244 -68h45q90 -20 117 -54l15 -24q125 23 203 78q62 23 109 126
v28q8 22 98 81q131 104 131 137l34 27l-3 3v4q146 197 146 211l4 31l-15 58v6q0 13 68 103q0 8 -87 132q-34 62 -60 164q-13 0 -34 71l15 109l-4 62v37q1 17 8 17q-8 45 -45 109q-10 0 -79 82q-10 0 -53 38q-54 17 -113 136z" />
    <glyph glyph-name="z" unicode="z" horiz-adv-x="759" 
d="M852 1571h4l72 -62q50 -80 100 -191q25 -34 48 -121q16 -6 16 -37v-59q0 -30 -12 -33q-17 0 -64 21q-26 -29 -56 -96q-78 -137 -120 -149q-52 -39 -52 -54q0 -35 -32 -54q0 -9 -76 -79q-65 -123 -180 -187q0 -9 -52 -25q-112 -129 -208 -216q-87 -55 -140 -104l4 -4h100
q74 0 216 21h84q25 -20 48 -63l16 -4h104q30 38 120 91q178 102 344 233q35 43 64 108q88 137 168 237l4 -4q0 -71 -116 -233q-28 -39 -68 -149q-32 -46 -48 -125q-64 -102 -64 -191q-80 -155 -112 -200q-8 0 -28 -41q-66 -83 -104 -100l-20 -21l-4 4v5l4 29l-24 95l4 4
q-4 75 -28 75q-59 -16 -116 -16h-4l-56 4q-24 -13 -76 -13h-332l-148 -33h-8q-90 58 -140 58h-52l16 -220h-4q-8 0 -76 79q-41 21 -76 120l-24 142l85 146l183 82q94 41 112 71l192 208q64 37 220 203q56 21 128 142q47 108 88 108q56 52 56 62h-8q-232 -9 -232 -25l-4 4
l16 83l-132 34q-49 -25 -64 -25q0 -7 -104 -13q-10 -14 -60 -29l-56 -29q-70 -36 -180 -129q-75 -31 -288 -299h-4v4q6 52 296 470h-4q-72 -42 -244 -92q0 -6 -108 -8q-204 37 -280 37h-12l-80 -12q78 52 260 108q58 12 180 17q83 12 184 66q82 58 248 58q22 0 320 104
q212 21 308 42q59 0 204 -67l12 4q-8 78 -32 154q-16 47 -16 79z" />
    <glyph glyph-name="braceleft" unicode="{" 
 />
    <glyph glyph-name="bar" unicode="|" 
 />
    <glyph glyph-name="braceright" unicode="}" 
 />
    <glyph glyph-name="asciitilde" unicode="~" 
 />
    <glyph glyph-name="exclamdown" unicode="&#xa1;" horiz-adv-x="672" 
 />
    <glyph glyph-name="cent" unicode="&#xa2;" horiz-adv-x="1139" 
 />
    <glyph glyph-name="sterling" unicode="&#xa3;" 
 />
    <glyph glyph-name="currency" unicode="&#xa4;" 
 />
    <glyph glyph-name="yen" unicode="&#xa5;" horiz-adv-x="1262" 
 />
    <glyph glyph-name="brokenbar" unicode="&#xa6;" 
 />
    <glyph glyph-name="section" unicode="&#xa7;" 
 />
    <glyph glyph-name="dieresis" unicode="&#xa8;" horiz-adv-x="1024" 
 />
    <glyph glyph-name="copyright" unicode="&#xa9;" horiz-adv-x="1674" 
 />
    <glyph glyph-name="ordfeminine" unicode="&#xaa;" horiz-adv-x="648" 
 />
    <glyph glyph-name="guillemotleft" unicode="&#xab;" horiz-adv-x="944" 
 />
    <glyph glyph-name="logicalnot" unicode="&#xac;" 
 />
    <glyph glyph-name="registered" unicode="&#xae;" horiz-adv-x="1674" 
 />
    <glyph glyph-name="macron" unicode="&#xaf;" horiz-adv-x="670" 
 />
    <glyph glyph-name="degree" unicode="&#xb0;" horiz-adv-x="674" 
 />
    <glyph glyph-name="plusminus" unicode="&#xb1;" 
 />
    <glyph glyph-name="uni00B2" unicode="&#xb2;" 
 />
    <glyph glyph-name="uni00B3" unicode="&#xb3;" 
 />
    <glyph glyph-name="acute" unicode="&#xb4;" horiz-adv-x="1024" 
 />
    <glyph glyph-name="mu" unicode="&#xb5;" horiz-adv-x="1180" 
 />
    <glyph glyph-name="paragraph" unicode="&#xb6;" horiz-adv-x="1024" 
 />
    <glyph glyph-name="periodcentered" unicode="&#xb7;" horiz-adv-x="508" 
 />
    <glyph glyph-name="periodcentered" unicode="&#x2219;" horiz-adv-x="508" 
 />
    <glyph glyph-name="cedilla" unicode="&#xb8;" horiz-adv-x="1024" 
 />
    <glyph glyph-name="uni00B9" unicode="&#xb9;" 
 />
    <glyph glyph-name="ordmasculine" unicode="&#xba;" horiz-adv-x="718" 
 />
    <glyph glyph-name="guillemotright" unicode="&#xbb;" horiz-adv-x="944" 
 />
    <glyph glyph-name="onequarter" unicode="&#xbc;" horiz-adv-x="1708" 
 />
    <glyph glyph-name="onehalf" unicode="&#xbd;" horiz-adv-x="1964" 
 />
    <glyph glyph-name="threequarters" unicode="&#xbe;" horiz-adv-x="1708" 
 />
    <glyph glyph-name="questiondown" unicode="&#xbf;" horiz-adv-x="748" 
 />
    <glyph glyph-name="Agrave" unicode="&#xc0;" horiz-adv-x="1540" 
 />
    <glyph glyph-name="Aacute" unicode="&#xc1;" horiz-adv-x="1540" 
 />
    <glyph glyph-name="Acircumflex" unicode="&#xc2;" horiz-adv-x="1540" 
 />
    <glyph glyph-name="Atilde" unicode="&#xc3;" horiz-adv-x="1540" 
 />
    <glyph glyph-name="Adieresis" unicode="&#xc4;" horiz-adv-x="1540" 
 />
    <glyph glyph-name="Aring" unicode="&#xc5;" horiz-adv-x="1540" 
 />
    <glyph glyph-name="AE" unicode="&#xc6;" horiz-adv-x="2118" 
 />
    <glyph glyph-name="Ccedilla" unicode="&#xc7;" horiz-adv-x="1399" 
 />
    <glyph glyph-name="Egrave" unicode="&#xc8;" horiz-adv-x="1151" 
 />
    <glyph glyph-name="Eacute" unicode="&#xc9;" horiz-adv-x="1151" 
 />
    <glyph glyph-name="Ecircumflex" unicode="&#xca;" horiz-adv-x="1151" 
 />
    <glyph glyph-name="Edieresis" unicode="&#xcb;" horiz-adv-x="1151" 
 />
    <glyph glyph-name="Igrave" unicode="&#xcc;" horiz-adv-x="657" 
 />
    <glyph glyph-name="Iacute" unicode="&#xcd;" horiz-adv-x="657" 
 />
    <glyph glyph-name="Icircumflex" unicode="&#xce;" horiz-adv-x="657" 
 />
    <glyph glyph-name="Idieresis" unicode="&#xcf;" horiz-adv-x="657" 
 />
    <glyph glyph-name="Eth" unicode="&#xd0;" horiz-adv-x="1518" 
 />
    <glyph glyph-name="Ntilde" unicode="&#xd1;" horiz-adv-x="1554" 
 />
    <glyph glyph-name="Ograve" unicode="&#xd2;" horiz-adv-x="1614" 
 />
    <glyph glyph-name="Oacute" unicode="&#xd3;" horiz-adv-x="1614" 
 />
    <glyph glyph-name="Ocircumflex" unicode="&#xd4;" horiz-adv-x="1614" 
 />
    <glyph glyph-name="Otilde" unicode="&#xd5;" horiz-adv-x="1614" 
 />
    <glyph glyph-name="Odieresis" unicode="&#xd6;" horiz-adv-x="1614" 
 />
    <glyph glyph-name="multiply" unicode="&#xd7;" 
 />
    <glyph glyph-name="Oslash" unicode="&#xd8;" horiz-adv-x="1614" 
 />
    <glyph glyph-name="Ugrave" unicode="&#xd9;" horiz-adv-x="1501" 
 />
    <glyph glyph-name="Uacute" unicode="&#xda;" horiz-adv-x="1501" 
 />
    <glyph glyph-name="Ucircumflex" unicode="&#xdb;" horiz-adv-x="1501" 
 />
    <glyph glyph-name="Udieresis" unicode="&#xdc;" horiz-adv-x="1501" 
 />
    <glyph glyph-name="Yacute" unicode="&#xdd;" horiz-adv-x="1233" 
 />
    <glyph glyph-name="Thorn" unicode="&#xde;" horiz-adv-x="1120" 
 />
    <glyph glyph-name="germandbls" unicode="&#xdf;" horiz-adv-x="1251" 
 />
    <glyph glyph-name="agrave" unicode="&#xe0;" horiz-adv-x="922" 
 />
    <glyph glyph-name="aacute" unicode="&#xe1;" horiz-adv-x="922" 
 />
    <glyph glyph-name="acircumflex" unicode="&#xe2;" horiz-adv-x="922" 
 />
    <glyph glyph-name="atilde" unicode="&#xe3;" horiz-adv-x="922" 
 />
    <glyph glyph-name="adieresis" unicode="&#xe4;" horiz-adv-x="922" 
 />
    <glyph glyph-name="aring" unicode="&#xe5;" horiz-adv-x="922" 
 />
    <glyph glyph-name="ae" unicode="&#xe6;" horiz-adv-x="1454" 
 />
    <glyph glyph-name="ccedilla" unicode="&#xe7;" horiz-adv-x="905" 
 />
    <glyph glyph-name="egrave" unicode="&#xe8;" horiz-adv-x="909" 
 />
    <glyph glyph-name="eacute" unicode="&#xe9;" horiz-adv-x="909" 
 />
    <glyph glyph-name="ecircumflex" unicode="&#xea;" horiz-adv-x="909" 
 />
    <glyph glyph-name="edieresis" unicode="&#xeb;" horiz-adv-x="909" 
 />
    <glyph glyph-name="igrave" unicode="&#xec;" horiz-adv-x="514" 
 />
    <glyph glyph-name="iacute" unicode="&#xed;" horiz-adv-x="514" 
 />
    <glyph glyph-name="icircumflex" unicode="&#xee;" horiz-adv-x="514" 
 />
    <glyph glyph-name="idieresis" unicode="&#xef;" horiz-adv-x="514" 
 />
    <glyph glyph-name="eth" unicode="&#xf0;" horiz-adv-x="1139" 
 />
    <glyph glyph-name="ntilde" unicode="&#xf1;" horiz-adv-x="1108" 
 />
    <glyph glyph-name="ograve" unicode="&#xf2;" horiz-adv-x="1010" 
 />
    <glyph glyph-name="oacute" unicode="&#xf3;" horiz-adv-x="1010" 
 />
    <glyph glyph-name="ocircumflex" unicode="&#xf4;" horiz-adv-x="1010" 
 />
    <glyph glyph-name="otilde" unicode="&#xf5;" horiz-adv-x="1010" 
 />
    <glyph glyph-name="odieresis" unicode="&#xf6;" horiz-adv-x="1010" 
 />
    <glyph glyph-name="divide" unicode="&#xf7;" 
 />
    <glyph glyph-name="oslash" unicode="&#xf8;" horiz-adv-x="1010" 
 />
    <glyph glyph-name="ugrave" unicode="&#xf9;" horiz-adv-x="1059" 
 />
    <glyph glyph-name="uacute" unicode="&#xfa;" horiz-adv-x="1059" 
 />
    <glyph glyph-name="ucircumflex" unicode="&#xfb;" horiz-adv-x="1059" 
 />
    <glyph glyph-name="udieresis" unicode="&#xfc;" horiz-adv-x="1059" 
 />
    <glyph glyph-name="yacute" unicode="&#xfd;" horiz-adv-x="868" 
 />
    <glyph glyph-name="thorn" unicode="&#xfe;" horiz-adv-x="1010" 
 />
    <glyph glyph-name="ydieresis" unicode="&#xff;" horiz-adv-x="868" 
 />
    <glyph glyph-name="dotlessi" unicode="&#x131;" horiz-adv-x="514" 
 />
    <glyph glyph-name="circumflex" unicode="&#x2c6;" horiz-adv-x="1024" 
 />
    <glyph glyph-name="caron" unicode="&#x2c7;" horiz-adv-x="1024" 
 />
    <glyph glyph-name="uni02C9" unicode="&#x2c9;" horiz-adv-x="1024" 
 />
    <glyph glyph-name="breve" unicode="&#x2d8;" horiz-adv-x="1024" 
 />
    <glyph glyph-name="dotaccent" unicode="&#x2d9;" horiz-adv-x="1024" 
 />
    <glyph glyph-name="ring" unicode="&#x2da;" horiz-adv-x="1024" 
 />
    <glyph glyph-name="ogonek" unicode="&#x2db;" horiz-adv-x="1024" 
 />
    <glyph glyph-name="tilde" unicode="&#x2dc;" horiz-adv-x="1024" 
 />
    <glyph glyph-name="hungarumlaut" unicode="&#x2dd;" horiz-adv-x="1024" 
 />
    <glyph glyph-name="endash" unicode="&#x2013;" horiz-adv-x="1108" 
 />
    <glyph glyph-name="emdash" unicode="&#x2014;" horiz-adv-x="2048" 
 />
    <glyph glyph-name="quoteleft" unicode="&#x2018;" horiz-adv-x="557" 
 />
    <glyph glyph-name="quoteright" unicode="&#x2019;" horiz-adv-x="557" 
 />
    <glyph glyph-name="quotesinglbase" unicode="&#x201a;" horiz-adv-x="557" 
 />
    <glyph glyph-name="quotedblleft" unicode="&#x201c;" horiz-adv-x="910" 
 />
    <glyph glyph-name="quotedblright" unicode="&#x201d;" horiz-adv-x="910" 
 />
    <glyph glyph-name="quotedblbase" unicode="&#x201e;" horiz-adv-x="910" 
 />
    <glyph glyph-name="dagger" unicode="&#x2020;" 
 />
    <glyph glyph-name="daggerdbl" unicode="&#x2021;" 
 />
    <glyph glyph-name="bullet" unicode="&#x2022;" horiz-adv-x="1024" 
 />
    <glyph glyph-name="ellipsis" unicode="&#x2026;" horiz-adv-x="2048" 
 />
    <glyph glyph-name="guilsinglleft" unicode="&#x2039;" horiz-adv-x="631" 
 />
    <glyph glyph-name="guilsinglright" unicode="&#x203a;" horiz-adv-x="631" 
 />
    <glyph glyph-name="fraction" unicode="&#x2044;" horiz-adv-x="342" 
 />
    <glyph glyph-name="fraction" unicode="&#x2215;" horiz-adv-x="342" 
 />
    <glyph glyph-name="franc" unicode="&#x20a3;" 
 />
    <glyph glyph-name="lira" unicode="&#x20a4;" 
 />
    <glyph glyph-name="peseta" unicode="&#x20a7;" horiz-adv-x="2028" 
 />
    <glyph glyph-name="Euro" unicode="&#x20ac;" 
 />
    <glyph glyph-name="afii61352" unicode="&#x2116;" horiz-adv-x="2271" 
 />
    <glyph glyph-name="trademark" unicode="&#x2122;" horiz-adv-x="1497" 
 />
    <glyph glyph-name="partialdiff" unicode="&#x2202;" 
 />
    <glyph glyph-name="Delta" unicode="&#x2206;" horiz-adv-x="1081" 
 />
    <glyph glyph-name="product" unicode="&#x220f;" horiz-adv-x="1515" 
 />
    <glyph glyph-name="summation" unicode="&#x2211;" horiz-adv-x="1206" 
 />
    <glyph glyph-name="minus" unicode="&#x2212;" 
 />
    <glyph glyph-name="radical" unicode="&#x221a;" 
 />
    <glyph glyph-name="infinity" unicode="&#x221e;" 
 />
    <glyph glyph-name="integral" unicode="&#x222b;" horiz-adv-x="665" 
 />
    <glyph glyph-name="approxequal" unicode="&#x2248;" 
 />
    <glyph glyph-name="lessequal" unicode="&#x2264;" 
 />
    <glyph glyph-name="greaterequal" unicode="&#x2265;" 
 />
    <glyph glyph-name="uniF001" unicode="&#xf001;" horiz-adv-x="1073" 
 />
    <glyph glyph-name="uniF001" unicode="&#xfb01;" horiz-adv-x="1073" 
 />
    <glyph glyph-name="uniF002" unicode="&#xf002;" horiz-adv-x="1081" 
 />
    <glyph glyph-name="uniF002" unicode="&#xfb02;" horiz-adv-x="1081" 
 />
  </font>
</defs>
</svg>
